<mxfile host="www.draw.io" modified="2020-03-04T23:01:31.449Z" agent="Mozilla/5.0 (X11; Ubuntu; Linux x86_64; rv:73.0) Gecko/20100101 Firefox/73.0" etag="258spxZSkPQ3LORowLQH" version="12.7.9" type="github">
  <diagram id="cFf7Al00toWebNJee5AC" name="Page-1">
    <mxGraphModel dx="801" dy="-2844" grid="1" gridSize="10" guides="1" tooltips="1" connect="1" arrows="1" fold="1" page="1" pageScale="1" pageWidth="1169" pageHeight="827" math="0" shadow="0">
      <root>
        <mxCell id="0" />
        <mxCell id="1" parent="0" />
        <mxCell id="rRB9kiorKSMEdPoHpbNI-1" value="" style="shape=image;verticalLabelPosition=bottom;labelBackgroundColor=#ffffff;verticalAlign=top;aspect=fixed;imageAspect=0;image=data:image/png,iVBORw0KGgoAAAANSUhEUgAAAG8AAADhCAYAAADGf+vIAAAABHNCSVQICAgIfAhkiAAAIABJREFUeF7svQecXXd177tOL3PmTG8aSSPJVrcky7ZsueDeMDbGphmCgylJIEBCAglwc7kGLjeQ3LwXQglJnFxCqMEGA8a4N9my3GWr2+ptNDOaPnN6u9/ff8+RjkaSDY/yuO/ztnw8M+fss/f//1/9t9b6b5/9Pzg2btj6xU9/+tPZzs7Oi/x+/8WpVMrGxsZMPyuVinvp0I9KxXfkDt7b3mfem2WdZeVy+ch3fL7p5/uPG2H1+tUPjl7XZ/p69W9dt1TStb3r69rV65fLlSPn+v3ePd3Ya+7mrzn/uEG4N0ru/7om63DklOrf1fnrs2Aw6F6hUMji8bg1NDRY54wOu+++ez/12c9+NnrN66/Yz/f+7cDBfl9dXV28qTGROvE9j757dKVOcubuXfv9c+fNKj/04GP/48EHH3z7hg0bTjl48GClqalJN7FIJOIGVCqVLBAIOEJUD01iio4nvHqVTrUEryXe9C/VEr96XTeBaYt8PHFFPHeaY5KjYxKpvCXwxnKi5aglp7vZkWGJKXRU71fLHO7MY+bvMbXuLWYpFkuWL+QsncnYyMiIhcNhu/76623u3Lmf/L13vu0+vvvikRud5JcTjfbIqaMjk+euWfP4yAMP3L917dq1le7ubl8iUW/j42M2iZSlJiedtOmVy+WtUMi7iZTKJavA2ebzuLt6QfjeW0H3hhYFbp2+NjWL4+P7tSdILqqTd1fgj1pie4vlXdB9xr+pv9wdfT6/u7qTL/efd44blvc/d97JDkekI+PlF65nFf8U8TypddcXg+ja7roc/E/Sp1fAH7CgpC8WtUg0Zk0trZZACJLJJGuYs927d9vSpUvtD//oj6645KLzHxweHm1vbm4cONGYTko8BnDxrZ++9Qs/+tGdqxcvWgRByrZj+3bbvWePkzLdqAznBQNBK5YKDCp4nNR5Mz0qiTUzd2PxVGrtEGp+dxPXAh1ZrSMc7tbDiYpHTI8Q3vQ86Zr63Z3n3fWY893NvXPc/2uHUPN+7SnuNCfhNd+TSdBLPzRU95k3Lv2sVGDiqRsd8z3OCkBIH2tWQAKDwQCSF7G5c+bY7J4eq6+vt/Xr19tb3/rWvs9//nPXDQ2NPN/a2jx9OMcM241qYGDA19bWtvq88877a7jk4lkzZztueP6FFxhM2cqyIVNDrJnGSX7l3JrFr523+4Kzh8fbtKMX072mjbm6NrV3rL3w9MFV/z5u6icZ8smuW32/eh3u6ftFxl+d//T7T32/IumdOiSxMkGLFy92r/3791tXV1f2jjt+cCaMs2X6iIPT38CQrv7IRz7ypMS4panZNm140Q4PHMY25x2lX22pp1/L/V3jsJzwc6uVzBOdMY3k0xfB3WPa917r7xPd5kTvTb9O7TlHPnuN8Z9s/nxf3/RN2U1dWhLoQ1q3bt5kxXzOTlu2zIaGR6Jz557y73x89vQhBqa/AeXvwDGZyWEvPP+8dXV22ZatW6fU1HGyM/3r0/7W+bqFSK6X/q59vcbX3bm1369e53fl5686/mO/Lz8hgBmS09fe3m5DQ8OGR2/RaHTG5ZdfceMLLzz/T7XfOCJIuP++e+659zPYuLMlstu2bbMlGM4XUJcSZRlb2bhf5pATcCy5phP/1Vhbd5r+/ePJP50dfrt/T5/Psatz/Pynj//Y7weQvBxOn2zrjh07rLt7hu3du9eam5t9OIzLvvOd737mJz+++8iXjvn2Bz/wkcqe3XssX8xA+VbbumWrbdy40S1hEQ8yiKdUGwr8MoQ82bnyKH14bJLMKqmqgyJKQ7WcnGGqhDrZtV/rfbHOa7HPa13j1/m57LvnABadV9ozp8fOOfts27fvIARsswSOzHe/903fyOh4XVNjMuUkr79vyHfvPQ99Zt26pyqtbW3o3pAb044d292Cem43OvqXlLxfaGLOJmgJ5ZmJUPpZff0uLe0vNJtf+SR58n6cGAnJnj27LZ1OO+8zSmixZcuWyle+/E+fEeF0I0e8js6WyjPPPH2r4ridO3faihUrnKeTSqXdYKohgYtzfo2Hp1aOaG6uLEkrWcnnvY7zNH+N9/5dvJSI5iJE1llmqoQN3Ldvr51++um2e9du1Gi3b8euHbfyuZOuI94mwbgzkvpShqh/FycLzikWPREuloqOI37dBPSsgJxST+7kWTtFyc/XUou/a2rvV2UIR7QpAgroCIDE7D9w0A4fPmydXZ0E8g324AMP6jZn8nrKsf3ja9Z9YWhosCKizZ4924nq4cP9BJBFpzYlwlX1+asOsPb7IIJTdo53oQTomgALILeQBYGLRBwxk7jRoROcoJ+iqs/hkR7C4gXPepO3al/ujKP/PPVcJbn3vsajBXPXnB5J1w72t/S7Ew7HuB60ODQ05BCsRQsX2fDwsDxP+6v/+t8u6h8Y9CLEu+/+2fzW1jbf+Pi4dXR0WF9fnwN0Bcz+Ng63nNwKsAGkIWTtHbPgtHk2o2u2u7233Po/ihWOrC5yhIn4Q8GjL1FfY556+QJAUrzng+D66UeT1L5CobCHx2LLOeM3Y9N/hQWsrn5vb6+BJTuN2AKc1tjY+MWO9taKU5uNjQ1vFtKtzIDCgv7+fndLcYHnAf4KI3iNr1YH6FAm6FOXaLIOiDYynLZYfRJnap8TJnlf+WLBosBIhULB5s+f7wgy3S5Olx7Nwc0DgupVq/Z13RIcswfIT9cM+PCmfxNO2Wuswck+LjPuAAw4MTHhxjUJljyjIenCB+ZBRMixZ+8eSyTqIN4oKjNl2WwWVYnbqthOAPNv7NC1p8jHryJGJpOzyfEM6jFssWjASkwgxDCdF8a5WmQdUiehSPi4kdUSr/p7zV2OIZ6gPt7APBScGv51h0HHDe6XfEMrI2aTRpycmLS2tlaXTuo91CtGLDniTUyOmU+5JharWM5ZIZ+1sPN2HIDzS97yFz9dMVw1jhNOWCmWLVcat8G+XS6m2by33xFMhKseVckZHBp0b/0yrHWymfwm7PkvvgonP1Nz89R5kSwOWjGszETZBg73uS854mWzOWxB0ZKIpNI6aUIEL30yXSmd/Ea/jk8kKXJKhocHwfQOO1V5ssMtuByWk51wkvd/02bgJLf9ld7O5/N4/ZiMKCajmLfhoeHKZDr1Bedt6kOleLRw+t3ZCdTlb5d03vzkkPjlaOBL6fdXO0SIX/bfq13vd+0zzU2qvJAv8LNksVjM2T0OH9oodyTOE9fLDVeGt8rOHnf/9qbkVCL/SZXq3r+ZuPK3N59f9U6iiRyVqqnQ33Ioq/G3kzwvLV90zoADoLEx/296XVXVVusZ/qoL8X/i90WDapyr8Ws9VLEg4MQlC6qTUvDneWe1vtn/iVP+/86YT2TPY2CcDjpz3jeHwgEVEv3/x+/+CkjinE/Cy9k8GUWhKZXfcGjwu780v9gIfxO66YQJd250VPo8gEG00kvOpeew6JslH0F5CHtXIdYDJAZtUEpeyKLQJg24mlk7ksVxcz2RcHuLILE+opf5Xf5INTJzv/LdYwbt/BXvE+8K/H3M5bGGtX8zIK/CrCbemzYcdzV3HmOZWgym6sbi3pt2vt5zuAQvd77OnRqMxqI10E/3nrveFGrjzuUD/acTdF0u5K+p4Zk2NdaYU9wCTZ2vwWhgFCbhanM9olz3U7EuiQHBfIRP+vuI5Lmxue8dBYBdGoiTA4xWv2ssgamZQF/3tyagn7VHdaJ6r+p4VD/33PqjZ7tSJo+iR94UWF09HERQe0F9cOR8tzpuobzfpr5Vc74WRp9p2AH3vpe5cIvOm+6fQBb+Vceq3zUCt3C6ufvPAyv8upfWqXqrKc5y19H7Tp3pnvqSd8Xjxj/1Xf0IcZof5967nreiWhO/UmKsuUtGV8fJTw8Bqt4dYau5lru5m9TUS7Geh4FUScTg+FWYm+AkLXQteuaGWz2VC+s8zaZ6OzfMms/dHx427g3DnXv07OkT965fewHu7xZ46lUzGbeuels/pn7Cs0fu7xZaY6RGpsrJ3tne9TU3r6jWI5z+9hIZUxfjux4hvRtprtWRKzrVZ44Rq2/WjE2/6m0PmfXCIkdwjiDfEuFCfCrC5dF+bti64LTjOOLpc2cDkbo4eGdQFdFgiJqssEAtln4H/mAyKovwBqrveZznMUD1PkczEx4i4r5be9ToLY9Xjy5CVc2500+wCBWlkPin85ya0T/mWJmaKKEtn/EhHOZd26NdJYhUKcsQwEwUMBO43sJVBQLLeauOMRCYIozgOSZaZSb91PVKLKxUsFSZK5n3KObWzmMIvgbkp8ONa9rci1r9IB/o+vIeuW6U9ZaKLOraExkrDU9MfU9z03iqRMRh2bJl2ycp9XMEq3oy7sb8XeDn4pUr3OSyIDANjQ2OaMr3aTQKL/RToKmif5Vsj1FNLaRepYPpTNpNTKxf5e4jOTmG4afgRhNSorc6r5DSNiykm7DO4f8am7xhAcjFQtEFqXKVC1NFrbFg2NLjE5YD5ksm610JeY5rqh9AVd3JeMKyvOewWhGEOdQBBeYyeX6FMXm/kZSLCmE1T81FObQACxsIgzpx3SIoR4b3hHaIIfOc52wfRNO8YzB6e0c7axKzLGV7mq8KkcMwiFARnaPKsGwu68AHzaelvckmsylLj41bmPPjrGeGxECiod4y4MsP/PAuKw2OHCG6rukYjXHqesGHH374CyKGLib0uvYoM7DhyXHHpQsWLSCru99am9oswkAnmEi8sZGk7ZDNp76QsjS79trrHAfqJmvXPmk+JlKcCvgFADgGcZKiHBs6m8yrcm5lX9ANUIMq8BKBnJ3lOrI9kq80k9HAJRkhp43E/j6qrXI2xuK85fobbN+u3UYfhdW1NFkzea+ly06z733r2zacmrArL7/C+kgw95OVXnXuOfbze+/lHj5L1iWswhj7x4adcJe4RyMiUOIlgsVCEIN7piBIkHSUj0UTWyUgthg1jFaKJeIQOmRJcqHDZGYqLttRsTMoJzlAumnVhefa5i2b7dRTT7W+Q+RK1Q7AfFvi9fZ7F73F6pQ1AVP2sz6BUMC+8vWvIrE5EpxFd6+qrIk2TNkdbr1mzZrluFjYpqhZeygVE/SFbcWS5Xbnbf/L/uA9f2i3/tWt9ud/8uf2/ne/z+74xrfsumuuszu/9GVbMG+BrV3zhM2ZOQcPyWeZibTzXgu5ouXhcBEsBJf7pOtws6SuSng+Fcanz/SvXChbNpWzbDrLdyRlCmEknVJn8rCwQwhPgfcL+RJesVQlLrOPRpds0c5bda6ND47ZjW+4webMmmODhw67619ywcV26UWX4hz47dqrr7XXnXehpRif1FRJRBF/KMkrXJVFT03Q8QRhMjD1OGoLtw11FndeYCgaN18oYmWIVUdZQiQWt3hd0hqbW0gKh2HAEHnHso1nstY/0G+vO/98e/yxR231qlW2ecMGJ/iLFyy0QXKmEdb3wmUrbMmpi+ycFSvtLF6LFsy3Cy+8gNSYtFYt2Y4hjfsjKO4Wx0sVKVNbeyhFE2CBX3xuvV1y3ZtMaZim5ibLAV5LLX7zG/9hIyRw1z2x1nFCLBy15599zrZs3mzxSBQCZBkgOTnnvzF3xuLiSf6puMYgbDlIwnFqkD6uEXRengpPsQNIYIHvSBqkctyhReaHVJzsQ2YyxXdIZaUztvaRx6ydKu9//7d/s8XUnI4yttxEyorZvH35779kS5YssbWPPW7rX1hvdYy1ngaPIhwvwyVvVN5lKBqCkQuWQHXKfRii9KDMOSEYuwlVO4p6DpC91/hkAurjdY4JNO6hQdJUvCfpiELIw30D9vS6J+28c862p59ca4vmn2qbWZu9u3a6vNyWl7fZP/7n96wTLVGAWLlcmtChYj/42U8sT+qneNTx9uY+7f9BDUCSp1fVLomYGkFFnChpRF30TmZQk0mbKKRcWcEoYl2XbLYCidtshGLRfMYCiaC9tPdlq2AnFP/nfBSQcq5PBh2pKZWzzA1nGJtYQfKCdfVwKXbHV+CzvGWhVyCcQJWiRiGcBZmA/F1WVm6zamo03hB/V7huVl/IoYqxKw89ugbfO2h5zhO4vvZ5ioWRgkhTq63d8BJzqFjv+rVO7bY1tVtEdrCcsQrM48vRqlaKobLHYKYs92fhh/3WgfoNhIatUJ6EOFF+hi0hmwrzxqUquZ+ImcQ8pNKTqEucONZLar+CZhjKpGw4M2E7+/ssAjJycP0LlhqdcEztGBmT8dOHfk71AKobLVLBTg+h2uUVZ0nL+ctoI7H6FMM7h0dMNvU6JqtQJWzVKzpS5MPi6wJ57FaMAef4qfhqYKDPEuSYhvoH3aRSqLxgEJhNwRNqLiyVJwmS5PF7qQxRcC7yJfKHELrEoifrYpaeHHScXS7KhuEQ8C8KccpIZiXvRMKp9FxO15ItLFiYxShFuEZdyDJISr4MA7BofMPFp1GcIQEOqnFx9hGihZ1aCzjnRYwQDqoVLSOf1IpoiqKzv5xbSlnIN2oTw9g0fZ/7axpyiOobqaGUaDFHXTdJqUYaCY/CsDITcooUGxOqWRFzIdUhx69YScOkXtAd4qeu1djS4MyVvDUJTg673tTczNhDdmj/AebKWF7lOCZUmH6eiCiJrLjaDjhaEqoQgQUIBqJwCNKQLlgjEphRmqkUQU3CRQEZMl6VmOMiH4PJwonlMM4AKuLgwAE7df48Gxk6bDGkyFepw0sL2eDIhNWhTvKTqA8mlUeqE/UNTg0VkbLAVNQtFQ/9WBTsIhWMw3BrR1uH42aFM8U8JIR40boogilXvQIzYG8hZgR7Je84AjOEinhsfFb20a6mgJhySH8pAXEKfH+QOppDlmiezdgL1sCiOi3E+X6NWepcni/Xi8AsfqS9f0+fMysB1H4Yqanj1nm8SzlqztOdQkfGaaaM4NSkR8fNz7zDrE8OTSZPM4XTGJD5YN1eqwDMEU9Urz2qf3venuc9yudRHJTDfoSjdTgNJZoDm6ytcQYL3M6cZNAjYiIGSjGPuFoxjjdmx72qSMsXJy0eTkE4bAl9fUO4yUEWK49dkXSlsGExmOVd77zJbuLVgiOgwKE6Qs/3PDpakSYFob/z/e/b3/3jV62IBIRRY+FIDGciZhUtnjQw0lWGqNe9/gp7x01vtxmtzQ6h8Lh3gt9k75O8ohqys9IjuRH76T2P2D98/V+ZHz5BmhCARZYaj3CeD0epggQnMCsr6GG88c03uHBKTBKWEyalgYeiAN7JKT8VM4+MjthLOC/f+PZ/oIVKzstXzJhhrPIwkzCwpDRP+kdHVRO6P2qOoAo69aFe4mjZFA+G8YjqPHUpFgYRQe2orlKTiCMRdQ2zLd5AFZc/ilPBMmATJOh+pK6Mm1fiywryc/kJ1I8fVcSk/Alrio3Z6Mh2YpkJFpgUB/fkPyYl2xKxm1ncj7/vPdgAJmNIF3ZR45ONKTGhMmNxPd4sKJ1n1owUfuTmdzvn4a//8SuqH8TgG+psxBpQa6ksJ1D/ccP1b7RPffiDclcRCWxKkYC4MGTbn7zNDuxci9TMsZVXvN+sfrblmU4CW37jdVfQJ9Bht/7132HLfcS4jLkuglbwWSwewUkL25J5s+2973qX5fBOc6ha13uBZytdG4qGnSMo2x+kHjU1MuY6Y89adrrVfyBhX/jS/7RALOJiZ8Wxso1qOMniDSvursbFtQTU76JREK/naRbibJwUn4LJ6VR2HK//8QVXloDtCAYgSLZsra2z+aDBcap6y5yDMyUiit3U86DOT/rjnTFGQZjCl57uU4jHXrBYMuQKjUJInirWkokkxCjZTTfeiEe2wyLo4jxjaunotF07d9ostTthW7N4lrrNyNCYBSIJJ51F6j1veetb7Atf/RITRsoZi1qHC4UscVjMxscm7R1vfxuLnrEont3m+++BfhC3btxi+edsUeMhy/sGrH9z3urnr7J8NGH1zQvAH2fZVReeb5//4t8boTpzJ5sNoykAV6Hp6PigXfqO37MMRBMILeYtYauj4ZjrNa84JjZr7+ywsdFhxhR3YZSYdtmSxVaHlphg7jrUzFNM48kTrKvfvygmkyqbOqZryODb3vaW1Vdd9Xq0GpKFlBx3cGNPq+IowD0Cpf0Qhp4hq080cAMsX2ECI4tez4FKOL1GtCTjLIsSwokoanCyF42WbG516EfUxUVqjS5aGnUh+1HmeyGu3dHUYIcOH4KAuy1JfDUx8ooLCybGJ2k83Ebr72w7gEH3x7G7kYz1D/VbCDRl0YwWW0A9586DBwgFYkgAY4aBiix4IBa2GW0tFmSMO5541PqffdrqqVTrze2yps6U9SxP2iBOyoGxZ+0UwYAZn00MDuFhNzDyTuuka2r7od0WaxagwJhR7+VS2lBwSF8Em5y1OtT0+pdepLdgpd3105/Z44+vscMjh4kBm1gzv33lK19xfoNezuvk5+zuWbZtzw48UIEAMDxMOI4D5McbPpG/UmvKnMqXCiqweNUPagnovScGIIDGe4qFxM1ePkll6THUURtIy9WXrUJFQWk4RWEBXgvSBqwFzXLo8fFsyO59cJPt6QXFQb2FaVlKj+83P263Im95ttmU6jVBMRjATHqzZ8+b46AsJ/rYQanvWeeex8+SdZ9zrvtZRJTTODiycYr35FjBR3h6Oe6NI4D9DeERZwi8nd+LupmEuPW5jLVxvWwmYgPbh5A0vM15DVZqBrAwysorOQL/NpwJrmVivrI1QchiULs3sLiVeq6P1CBdkkB5u4889KBDUu64/Q6YmQ0D4jGb0zTPIUNShR/+yIddfFqPKv/whz/i4td0Cu2CKYhD+BxMoY6gIL5Co4gnqanxR2oJx4A8e+165HB95VmWZd2dIpSHlHEFrwUWxe/DA5T7y8c+v3C9FG1HCcuxcFevXmGjuzfa0ksvMB8SAj0tVsQhyQsbbGKBinb/mifswnN6bODeLUgjnFgIewF8QQTDW0MXtTQ3WFBeqQbGwoj1hHtK/f7853c7Pe8qmzGQUrNvfstbGUsUdx3EAwJLwTicFKdFUyshtWUWtVhB/WBPHKem5d3Rrs3mCKm2OivhLHQnY/bKS6/Y7MUX2R6KeXPRiuUjWWtpKFkD35P2qDDnaMJvKakymFJoTRYVTBGXi1V9LPg+oLn9fYcYE7WwSHVrS7vNBsFKpUbtle3bKFlvtMHBYeegFPM4bz6+X1EsLCRJ4VHQUqj3CPMdIVyRFDpvH+aWs6i5Cy7URgxCpzxnS5M6waELhsH28sRsmaKwR1SGoC1JCv/0sy7GYrDw1197mX3vR3fbVTe+AUcEFZgHPgIDJfSz+x56xG684Up78PntEBwXGGlMjfVSpY1bj0sttEGAtADaMlyo7jx51iqE0gTEua9//TVOM4hoakOTbXYxlYBvHVO21tkFXs5UsKA+aRTGGeSn2OGRux+00KFRmzN7uW19bq01Rir03I9Y4nXL7LGdI+brZKuSQ2m210DdZ3bY6OHv2sXn/in2vd1GeweoKtc9ccxQmdJY5RwV18RszptFAicgTAjHqqu9g/Cl3R577DEcFLNzzjnTnnjiCUwT68l3FDOrYD0Cg0VQuylssyIh+Jjr+nCeksS+r0qeKdzqBISrrohCggLEEMbok1piUQMgED6C7SSIS4A4JY/Ln0ICb4Jwt//nT3H2IDKg63C2Yt+78yd2A4QbZWK+ECQn+1iXkEqdgBAEwQxcOJ7q8VVQKvhA1lJEkKqpesH6qZpSZTKefvppO+2005zEelpFrKR/mrzUrDQEjgLjJmIhngOFQYJ0jABhFRWPJubZwoUX26HhkO0rdto57/iE7fX12F3PHbCDkzEY6xQkFOSofBA1OuSuXSkQCuWwb5iNTG6Ye4MYweDCQAuMTXGp4scUceQMevmfAhrLgZ2WuL/K+AW75fB8VeScAWVJA+4jxBwE8qyPGLHAWjYABCjcypBxeLXDm+lJzhD3CoOMg7w3JBuRsjqclCTQEPpYGB4qskj4UAIn9MNBj4Nx3nT9Nfbkmhfsla07bdNLL9lNb7rGHnv8mSkJ8eP5JZGrgOM4Jz0M1oUBOBWqCvaIgeQpCcn9JUDV/KII8+KLL9rKlSvde7If7tDK1kiepDiExCq8kS2VykEBc1LF6tvAZsN11psO2wv7Jy06b5VtmqizD936LXv8qSHr7LnQ9kLQV3opsfN14F22I1UaK2oOBAQ80am8MHMXriu7rvHLAxZyIwBADCa4a2Rk2BFzdJRSdQXiEM/1fqD2VJnuip1VUMtbYlTtZzN37hy0U8Rm9XQjwVNaxZulY+ja4xji6UMtin5qQK4Lh/M1EGFtMqwKNgVhFfi8wgQq4JMZBvbkpu228LTluL5Bu/x1Z9j8eXPtdWefQXhgtnL5Ulv//GYWFA8wWI8EJkmtNFg03ugkRWpGQboWvYTNVcCqhfYB0jqO516SJKmp5557zhGvehyZjziNQ6pUQbFUEVeCsaTy9ZvwIJ9deuM1Funusm3jxHmnLLKX/TGLL3md7e+P4K2+zob2oarre+xgPm7j+Tm2avm7GUkrV6aPIgvwjLQJmhOaFAqiiBm/4jjFaGqKUSZAoPWaxx8naH+z9fTMsTe84Q320kubUcWEQtgqSZ7gsbGJcUeoMLFgBKcqiUM0QfqqQPDqtNCUNtG8tAZ6Venj4tzqB1Vg2q1A9UCFKatbyKYBGLSgBKl4Rw2dTXiZzRaKe/1tGw5M2EVnzrf+ctq1ZkWcugO2IpD1w1Yl+lkSXXPtyQ276ZxElzNQxYHS+1GCdxlhLxMtrkSioIhMmbdhj8dtMtbbcTJWkVqpOi2Kqo7yItzMCNWQL25Po6b8OC4lPDhBWLLbWo4YWGi2LmAdK9jVCTveMrvD9u48ZEvOuMhCNNnE2+Zaz9xmFvcQnUj1ZEcWO6x1cmIESSFuA49VCBSLswYxPFOljlCNIe4hEKEez1sapLGh0R75BfL+AAAgAElEQVR+5BEXx8pGJ9BWjY3NfFYi7KEfBNC6CFgeYv5+mFRJ5BD+g8tycIdRoDPFfdOPqvQ5ZtaHzr5Iyqa4t/oFVwTD5AUDFZEIeUE+FiRDrORHggJ4SXUEwKPYxW8/9Lw1xLkcHpgWv0DWQKi5ANogNjJfQeXEGq3sGiK5A0BtUAguIYUcHzEP/3OQkhbLebsyCFOipez2fffdZx/96Efd8KRy5MzUHpI9oRJiCsWsk5lxgmGcC5CvEHCWzh5FSho6k7Zr7xB2PESQXbSOxQutZ+YcG+nfjnUDKisGLBmgiTHUiqcqBiEnKc0Anpsn4la2XG6+APZ4kuyEFhz1d8rCBfBmHSoQNIU5FJVtZwoRQG+FYvrdQ7G8vVZE5HCMLAkAu1JByi6Mj46iXvExlLB24dHRQ/QRraovR7yqKIqaR9QQ73v7Y4m/sUuoo5KzSSEvb5UG6gKAVgCOIrFI20wbFRYXL7nUf4lYz5UziAC8woDSKZKsCaS1XBgjSTvGwhIfuayB4jx+8NJOeBPZSUtAYUmRHKQgHC346Po3vtFJtBZOi+CZOqdYUe/CG32Oy1ldeIjtI1n0YgaXuhAl7opZ7+ERa8eLO3PVSjptsjZ8YNQWdSy0Pmy2pLZzXpc14ekpLOqOtduVq87jPkJzorZn915SQZgTktPCbbMFSj/IiMgnGAarbMV8KCNQ39LoxhWW6tA4WQs5KcpoSOoCjFvrrJxoOSAwnDsjBGrjlvptbGziu0E7RNjhCpimHSKcvg9zZgN/8RefeGrr1m3damuWPo4TQL/88ivEIhMsWtQ6ZnRZmn1ZuKsbaBSChBhYEVXaNWuONbbPhLAgJkil+CTCQosjgohclMFBRrw2+FCZdCQxEkpRrvC07d2z0WJ8JwJ3STXLcZFzEeGeiWg9WYfFAAKkcJR6QX2o3bkJlYSHwHualqcyS9iOCtedRNrWbdpoP77rZ9aGW68copwJsbtMlLIcCXJwq9hZoYJNWTCv204/b6EtPm2m7d67k8UE4ceeXX/JBXb5sjNtec8p3COM/Qna+i1b7Ac//rErUSgLt/UBHiNxRSWTkTgxawf3VJ4yRPznRx1XWEtJmgimDJnrepLtZQ1VFyv3aTAzZBt3bnQJYMFlcYJ67XUj30KMu3/HbssQ9wle1MZGkjx5qZOgO+wHd3nwrLPOOoc9NB01hU/WHspeK98UBYgVci+3WB6V+rpjQCd33fFtu+Emdqubv4gBgYuq+U9BjYyrAlmFzlKdUFNbEwjY3Pnyi/bEQ3dZEnVWUgKXa3kMBuGQmMMH+u1LX/uKNdc32bVXXQkTSAEhbRoYl1BJwlE7x3uoU3324JrH7NYvfN665sy2cSYn1ekQfcWlLLoY8Wv/fpsjwHvf/k4HBGi2+Fd2yxvPt2EEoJ6hCyB0DR4A5CgZe2njBvv0Zz9HgK6iIKWOOAdnKA04nwSS05j3DhxyEFh7UwuYplfjIjUphpsE2anXd5l7CaL7JQRoibHJEXvy+ccs3Ci4rWLN1MQUWLOhgSF8DKXZwIyn2TzRSOZDuKe2tQq2trY6cdVeY1O9X1omd7hd/tBbWjwvg42q4saqsPLjdMSCBbv39n8FRSFuwpNKNra46iglaoPo/bC4DS7LIVU5gtAs6jCIbq/HUJdxKNQsmFe2nXNFlCGA284ZnVZOl+xvvvR/2+f/7m+tCTxSuKbzgKGaojktrsYlHFTOy6HBAcsg/T7guuH0OKENXi01BOLSKBN1lV4wSZi49MvfuM2+/r9us85WwDFA4Gikju+qFASikWlob0k4tKZ/LEW81UQL8QHwU+Jarq2CGFWQ1UM0ea4FFjdL6UIEydmwe7slIWKOWE92V8llOXdi8jzr29nZznioFENjwZHOq6xvTxLLIVn4DVofVQTE8T6HiHlLxJQK1msPZ8+RdNFp7ty5XGbKWdEbVU+m+gXFJKLyCE6IVJNzKgg4hYgoyemndEF2r4wtDJIFL0yo2EjxDpVlIgx2S46FOC5IeiWO2y6J9JH0jIRxeCgZVpoIh94VH+leE5QTQE/ULSUGVK6VCfg1LjGYnBCvfkQxF0VNMuiygXyuQqAStsNBZ5wrFRXh/jmVb9ST4GXS4nClqORIbNu1Axed0kVUszYqCLNQceiTxVwMpwAdwGNmQewczNaEivSRPooWVccKIVHvwiLlZGSJ/SoE1LNnkUbiukNkF6QaFNepJgcOtrpGnJgY9ps55kj8KtOfaCJvCMMpreScM6Q6Xk9dDYQs5/FMQac8wO8o+bT+sv3Ke2o9guJgHaKq57B4MV6VqKpfDHGD/JQIS5U6IrJgiqeknkIQRkG1uKu+vo49QxbaYw8/xE1i1j2j28ZSI7Zp2wZXVRUKx+EoFpCSCBkDFZcqmJZbpHSSglWhDactX4EH2GPPrHsWqQi4TEIKJho4POA2FB0YPGznnHU2e8g8Ls/KumbOsHVPP4U6Zqyo4xA6T7YmwM/CBOqOPxRTKr7qBLa6+vIrXbJ2DGZ5gYKkubM67ZSZHS4TMI97DWYCIDAULPXutzEQoBkzZpDSGbVuQoDefftdTk/lefUwjQilMsHzAM2l1p56ch3FTaSUWAvVfsr4qR5GKaFJcM54Mm4vblg/BSBoHWAqTE6aehdQZFRmAqcF7TWVXxMPiE6O+dAg+l0/j3NnasMFqU2XEJxmC+V5Ki5zlcJ8XkF9CSYN4bW1d8xwE2hisMuWn4atgOshWhhUIxxCOqC7UiEq/MmyyIoJI/IchWMyHMU50vWNgNT33H23W8hVZ610KmQVQf8Vl1/KYvlt5QqwyS2bmGg9VWGLnGptI80UxFNTykrlgGGQfTkAzsHBxU9TSaY9RCUhKpvYu2Wbpff22dsuv5YcH4sH5nnRslXW6a+zhY1tgOs4INit4eEhO3SIfB+MOkGpQhjnQvhrjJBBlWXK8Q0ASBfIVDy99glK+06lYmwVe9q0O7t3+vJlSFTCzlx5OtolYT2A1SK6x6xCgSQ8GicSiPqMY4iDxEzSHrXHdM3oQoWTHlDcqTLUo4gqPe7Hi3I7pmtRUBsFFkLekvRXH1tMjI8M2SMP9FkDYj8MQp/G7gTQ5WBNqANvk5wy6IGqxcIRJA7VXCA8iEJAVSNLNarg9elnnrEly5baM88/67h+hKz4ngN7Meolm0R1BLZvRZ01UvMxYYcnhhkDKR2YXHbOQVHgmqoFUZWZ6i0reL5xvNgRgGOpsx/99CcW57MSZR07D/W7NM12alDqYJIYHne2MmY79+/GYyYurYPb8SDhBOxYBlOB2884/PKCue8EkqnE+cNI7fKlp5Fo7rXJMaSI3TUGRgdt60+2QND5tmHzSwDbYKK6B5UIEUpHVHQkdCbLNQS9qQxStSwRxuyV25+UOjKd046aN0RpofgZXGupGEd5LQhfkXvv8nVInt4uYuxVgqE0rR9dnkmNW4EAuABxQuToSlM5QB/OS5CFVKlEnvSPsueq5BJDKKQQ6qEjjQ1+aeNLTjXvPrDHVYFN9DNR7lsPjJSDyyfJDQo0D2C3VI7X3jWDkISiWfKOKrkPId0CeKVWq70IFXa9UE5PJYVFYKmD4+CPzG0fO1AobdRJPeqBscNUXCPFMOskubsA0qNEtCYuIL0gj5tFVoZcuks9EQHWQQZoy7at1oEGaJSHCUEUsDc0sRnQYD/2cBBvNMi+bntcKUcDtlAOj8uowJAN3FvOt3KRyQZKER3acvSYDqIEXVOGXhwuWGeAR16YTCHiSiyiMVh0ZbpFQKYOgcLUWCpULgcIZIM50hrDcD/qIIq+ZpDjcF8RtMKHBxKhdIL8BBxKhCZ9UcJ9Z2JFXUtZeFRGhvjGFdfiVgaUFCRdFCZ7oXAlTlmC4h/pfz9zisIQh4GQGuDgELmUEu71RB/1OKifsK6B86LlLHCZPBMSUqLVjqO+M+w7kyc/V5rEcQp1WR4mCzPuungnNgdPka+XYAahSQFstF/BNAwmtT88Psoik8YhlZQDLotiKgI4YIlQveUYTySoxCraiMrteW3N1keoMIgHPExQn/ejWSiOaZokXkvSl8CQQjhtqQlqVlngFpyhoOp1oEUe8FsbCWm5xTc6JDyikZwy/X7EYdFZ03WqXHLXfMJs0GROOjQprY1Q9UKh3xpbA7birPkUw2ADZN8IXLX4ceK4FCiKaieXzFhls5uXW19vyv7tW9+nuJZzZJAVMihZyt8alCQvO0nNCYvk0iwpEBjceY3hEKpNKIW22FJ5nZwrqe5BipZUnRxTgAuTUVDB5BWzqs6IehPUWqlMYhMdkwPhiYbbrblhrlfxxpkV8MwKjodPgTO6L1ZH9Vegk4y5YDCAgOw+bPYoajVOzKYENIsOM+WQ7CB1l2OsUTvjW0JiugmGiuJUdRDYx8F4iyM0ueDQnloCVSo32CRM6lPVHSr3AInOvUN45sw/y5r5kO5RcNI6Nbag6SqYEjXSOEqe5AhKFJ04Vn/WnChiRlXNK+6FaMLiYhBF3pxQhdmzEva2m86gTmM/9ZjsXTY5jHRSbsfgAgG6XRhYoJKwJfPn2LkLLrGhg2k7d9lq+8z/9TnbyS5HgprcPcD+ssQ/ZQLbOMnKAttXDR2gyhiPVLWaZZCPm99xk51O40Z390y3ddXmzZvstm9+kziJuBIblyduipbIVLQ1usXVjk5leZowjxgvCINEKVWc0bEMTTcDwoLwKyYJTFBkRKjAWOWdKt/eCCOUQ8wbnHP2zCYYZCeOSi9At0QApkNKlSwtN8atHtu0aChti6kW6EZToJUtAkPJa/Qx/tI4DMQYokhSTmghTBtGC/XhVAWIAzcRRgmArshoYutmdPTYjsMkm2Fg19/4KoeL83RUXdHac5X+8auEm1PCoOYqLyggET48xDQu9ttv+gAqZpjmEgpTKUKqbyOYrnhxUIX0viCKcoFcYGI5LnsEripRC7nPPvSBt9uffu6T2JFGFlctJgoVFH6zMEx6APUXYyEwhnbDm95kn/rkJ52np/ht7ZNPuk3j3vf777IPf+gD9vc0ufzL177OrQDM8YvC2BEh9dL9KBkWgLobiFti5TpnLEBK27HN9B6GiAUDOBrglL4yzk6JGE5OAgxaT9AeIO7KI8npfD3lDD02mQf5QKVFsJNNlNA34bVmYOgZOb+dhuT00EsXoQouLZQEraAWgIBQFoiiNU6gsuU7utgZ5qqnbHEBKn83hUgpHL405qlMs8w4LV0tAAipEdCn44MBR56q7XPeppeRZuGka2oOtXY52nNzZXhl8/zYKTWfNJDeGO4jSVmgZ88P96OuAkhSpex5nig8iCMk3W99YKX3Tb5k773p9bZwxQJbqEqyIKqPQNir8WTgXEFqsULvgRAaOQXvf+/77dbPfNruv/8Bp65WEPtdctmlLr2SqE/YmjVr7BMf/3ObiYPw6c99lgUvuILVEZwA5dZUcqFeilIebZBPoi7n46myk1C011oSh21WM3YPo7ijP2Gj/tlWioKCoKobmGdYWQCBCdFm1GgewBhEhn4FV+IINw/iVav+MlYIWjMqNCyiIeJX/uFHzK/FZ+4qgVccm0UF+1GXPmLQAkyfefFl2/pz5jRZsiYKTA9QxyOEqAPHKQ7Dj+GoBHDcIoIGJTlibuZTzfxUBc5JnhwC/awG7FX6CRBW7WBZVcjKTPNBLqWS8TAcHKRwdCmLzEXRN5Idgc9l54gQw5ESCqBDFOMVyjF7/JGHrUQZhAYiVLGxfgm4ZJlF2OplBDDWBbysAAuhAp3T559m7/+DP7ANxGLnX3gxdkuVYgXXViULniYrffY555BCGbbLrrzM7n/gAVvzwnOoH5lTVCaTFfoRgdlCJFxTKRUMR1HvECI8YNdeULae4AGqs5tsT2qOfefhAdsxRsjS2g16JKmtw1YIOAfJwb6XAU5UsqgiWhXeRik7TCPVvaj4CWxajkrwc2+5xYLLVtp9//JNW3D6YlOG7IkNL9gbP/4hNBTnoJ7jgtT2HLYgTlJ7QsSH7bH9stQqPspR9qjSkiZsrDYT8Hx7jyJVIZMJEyGDwgaVtp9OOCdwLICKd7z+OAw0nkod5yZUo8Iid1LDmB09DBpAxA/xi6iQANypTPvMDpoSM6PYFfoQ2nvsoYfK1ts/ZAOHhiyMuihmhi2J6pkFrDQJvifOmoQ7/cBJAr7//GMfI/m60yVgF8yb75hIZRgZnA6XKuL+RZgmxHsvPrbO/stf/Td74LprIJwqYFQ4JXxRDpCaRqTBSWFRmlgqDlLF1m4LGij6tV6kP2BnndqN03Wh7RqtszsffspePnAY20SQr/IOFtAHo8ZUPs88IwTQfvKQSur6YaYO8n7lfSM2ievfsep0GBL7Czb57A++a5dfcpkt6qFwV20A9FoEUeUBvRi/Ul4VpCtKsF4Jq78C54357+8/ZHNXnGbFQeYpkL/mqNJKguYqqTdt2uRwsmrhjicZU5RmGRQ4akdY/ZS7HKW5UAlUH4uHpbAuvKyGMql8SeQkPQd9IzYr0WqV0Zx1Eew2YzMDDKpELixEJVqYRYxGAY/jfUg7MRYYqK6fBFVvAZFwHTnc9+zzVttqJOu9774FqO0RWpDBEOWpKUshT5OXGkpCxF1XXXONe/pHY4OKW/H0KH7SogQDQFf+ehARyhVCOCQhVSpjp1rC1kre0Z9ssbqlF1iAXosYKaw2vMo/ueF8O6MbCTXGiE2MhAiV0ApeDWoUjzjiQIOgwhsYY2jrHop31SEEo+AlwlJ26Q1XW0syaA/dcyfQoUzABCYEQZA3zd/pOIzMtYeoQPMrhpQTCIOlkWzFjLsPHrDeoQG3mYDnkRyVPG1fJeI9ie0PgqDcwkf/LodAyVdJQJWQPtQC64r+FsiqXByxVIoKYSqIW0NAU+Ft2KgZtvaBvbQkHeKzXRamM6fkb0Wt+e2P/+Qt2AtccaRX3AppXb1G0Xl2tCrjIcqFF2qiPFhDfSstWzk2Km8DnTlsu6lxXLhoiZ130YX2/PPP2fhQHwa93955y3vIkiNfoB/yJtW00s8jc3rmzQFQoCgdqYtKSomf5MjkhJ9S8FRPGFBhIUcAnrPdLYyxzbqCK5znqRR+rIFFpP/wPW+7BkL47Lbv/AT7o8YTtAcesR/PVH3sYdJLSg4UkKICHmgFZygOvBYvISnYq3/+0j/Ye99ziz1/7z322O0/tPk3XsE1MDqMNcA6BgEsomJAYZrcpzxMvz9FTtIW6jaKce1xaJESZuw6gmUpvNISxde8KkuXLl4X/OMP/tETd911l3MCVGZde7iSdaAg7ZrgtnQEa9cYyniUJRu0iaEn8VWIX8DrBmd22pJz3mpjDKQRQm1edydqCu8JO1ImoM0zYAXsaGsXl5Xw7rIZ6XRiQbIDmdSATWCs1Z+t0u9G0i5xzlOCso++dx5QZfVMZvasmcRratxgMcWXQktwLrQ3tmI/lSUicl62HXVEAR2EoSgdBixVCOgpfHr2xR3W2XA+5YOnwt2koGhLyxXkqqqxA2ZCSiQxl7/hcvvuD9e4XTEEsaVxhAT1OQ9eyJFASX7i9rjGlBz3yzUE7aM/uI2xleyy159jl+LojXIeoT72l9P5algpM7zNHOvUPzlq/ibCI2y4CCvbPjEyjueOg4SmqT28+bltNX0333zz38ph2fnWt93kiKNguPYoKc+l9l/qCIMTQpQp7UaSAhUkBg8sWUcVWW6vrTj7XNv59Litw6vMp6K2oJ0y76WzqRehSZ+F2XdggI2tu+gCYoPr2W30K6iTlPRLANgGu6Eu1TF685KxehvFpo1SQp5A7a3fvIXQ4ClrA+y+7ro3go1O2iBQmXOO8MKUV0wgEV0kJtWfrmdBzEwuZEyA27wQEIJflW4o24433BBHhVGijge8bzxmPblFLKS0itdt6zJMqEM1jOTk5itdQ3lDiXUJYOsDeJYqikoRnwkelBlROksSKI/ch/YQJrlt6yt85gHW+qiEsxIkXabE7bhv0vyEQgoZyjBZhvnDw5ZGolQwJQqUxpBugNoAzt4xepPPqh7n4ODgGUCBlRnC1aQqRdljDhYoj4eUK8Hp2JoAwaVCBQGrgSCgcL6dOKjJ6mnV+r1VDTZr6G7rydxr82K77fwzToP7WRgk4fv/+SM7Z/X59q9sSjCrq92ayOWF0PNi4TIcFyeGFKQlu6YsgJoNf0Y5w759++zcc891XqVUL+szJV1eSKO8lvrAv//d75mqAYS+COR1dlowEGFAgIAaBYVNAQSIkeRsZLOCZr/tRlXnUaVhJVnlkcbUgiXAXWPA78AxeXHLbgs30FSJCg4IMGe8KsuTaRHGqdZrjbfCelTUt4jnGJik3IKQKYYUqXxdzBEiJGgg6VsAfZHZUJGV4Dz1nybxA+qAwWKsUwFiScUHmFdRpRDTCpBk67ySd9cUNBy87PIrmyRxevOo0+KRUGVzcerzs2CVubzwNDwjl1ilvA01GEb1WOWwJfi9MN5r77+SADlRsP6RFyzpBzGvEMhi3+agUh+65+d2+tJFcDTBJ05Ajl4GVx1MSmeYbhy32wLelxogFUt99jO32n333gfj10+VkBNekC318lmqvvaTwRgjgG6hZ+HNdhW1kcqa63OB4YLcAqoTJaaMqWee+DHM91lv1GTctg+M2e1rN9nMBggDk0qKEBCgKSTKFyMzkLZ9g3QCwWiqCFD+LoCdzdIJnKcJhTIi8MywdbdRrjCM/CE5wrLE2Gm0UhYckwmxZjB7lDUsUyEeI/fJWsVSdBQJwkcFF0ZVKhkDHWJNFA6hWCPAjGrmrAVORLhqcK58KozbFLz22ms33Xnnnewc3ubwxNpDqsmVymiwgTo3KTxmVBQl6kWaFkudqBR0MA0T4ZYKAGwvccwuMsLof0Q/kliGgp9p777pEiSQJn7U5ME924zbksofYkEaXG5NcUsewglrKYIfStNHKLr55H/5lP3TP99m27bvstbmRriTfV9IwnbPnmtDqNb77nvQ3n/L79vHP/oxG1D6ibhO9SoOGXJornJuxGNqn8LqEOhQb9qCfaVeJTrbdnCN7ZTpC8aS7VLrlrIDRRyLXKHRwti6GCh4lHUYYlPuJEAlS4pUJ9A69Pa1NNvo/hHLoJVa8Uj3/fh+K3ZSoAtjxVUvilRqCypBYmozCxP/Oix3fx+2mGo6PG9VCogoqkSQNzpCPm9S642tl7arPXReNUB331lI1tvpUWzG9P48BbwScQXrbnNq7fwOrISvruWlI2aUjWBIptLmnKZPL1R/uo2DzzVEB3A0+glByDRk91tTV9iaqUUZGRhGVaRtx7Y+7IrUBNdWhZkCdO4lEFttUarHHGEzmnXr1tktBL6f/8LfWPfMWWCQOXv4oYftrPNe50DgKy6/3N518+8bz/vDU0y6xVS5xszZM/F+D7LJQR1E8FItGbqSRvp7rb6zDueMim28OqH2avbXT9d/gYHS7vbKAYbV+ydpEtoBEQb6aQsD5SkjmWnqVnOoz34w1xxaZARCzETCdvzsQSugrrWxTnASvwDmkfzl0MPCNZXxkDZrZwnzrNvOUNZ6KYnMcl2hC4qrVTCsEEiC5G0gdAz9jvkDhEeIt1cK4Ypcaw8clphSKIQMMiEB7EAZD0ktXmpp+cZ/fMc+82cfpsGiD+MqvT0Hji6AkBCDIPlYaWyZPMJeYCiqncARA3DaV7/2L4QdSVJHRIoQ03s4MKqLUxWg98yba7u2bLU67Mx6+h0uufQyO//88+yyi861WXPm2m3/cputWfe83Qshk6jVOjzTPDZx5qxulst4Iks/XEvlNA7H+OCo49ZoNGmbNz1il/SoeGjEVQdg8SAQ0BnMCfgJEcE5kLQKwX+5QrEUdSfoc7v7zjusBaetTMubMvbDqL1IImqj+TFUJElo3u/GvrWjWrOMY4JKuuY6CqDUBqy4lEHFmVw0g7rD69Ruf4dAn/ajifqxsyXUuTYBUn2QMjKuMFdSe4wPooivNupT7hQpUgApSF1qw3NmRURe9KUVsFExjHkO2yYbEmTPEmWVteNDH8WzH/7M52z12WcB59STQsMT9bPRmTURw5F4ZGIhHIBwbLP54gO2fd9hu/+RtahEVWgBO6EVUHDO5jjDz9+uUAjV1bV8CX3ZBOakiDpRoS+zl8nuH93lnBqhHXnEtvPU+YwDdYvT0Ub/QVrJSwXCquVkEfr7R+ExGE52UNtHwNl3/eA/bB41oSEcCJVGyGXX4Wo8OZQ8VfmBvMo8Gwrs3r3Fy1K0Jolv6a2QSmykThQIT2WJ2AJ7hVa1fvrnFwAShBlf6jB1KjgbHT0zUOVFbDaNJjBQWX4FjtphHMCxeiA+TEEFexnG3SzBTFmAAsGL0kJ64oWwZDlpis+EEcsOMhn+9ojIb1VqHktVNxOOqpen39XfTaLL0VUB5oS27GC/ige2Pg/igafFOaqIiIGqpFL0X9O0OAYR/X4eZoShLwLCxlopD0S11tMQqW2qpKpV4+hJv7d7ubxeZZdjLXXW1NPq7GIcImgDt+ZYEwtN+SAEzmKv9AiZLBw+TvAtQ99JvLeH/b7khE3QyKEaS7B+t0/aMGByK5sD7H8Fu0sc4Tp8cJpUfiG7KwmRZMlbnaC8IptXvYpXXDUxTm0lallduHGdoxiPLwgFmUCK6hbPtA0Ua/WnMRkz+Vwqknm3zZ9tfQcnbRQQoa0pQR0NYYI8Wxy1OhwZVVmPUKsp25xjyy5Bf1HFmyLgdE04RROPZmL7VzlEdY/6MuYqnVM7EnETiscr2MPRIM3DXnjsNNRksxYus6YZi6xvVBw5x/b1C/aZQR0iqAsYoD9KCohbBolW01maEPnpSunE7agbORr6PU7GIIi6iiAdaeKjC86/3JYvX2VzexbSB8hC05w4gFQtARIb4zoqq8ugIVQfsnf/LtRnB3FlkiqxVhQLV4X7c/SztxCzxVjsWTZVCXYAACAASURBVOTiZjXV2+KeTrLy42QYQI2wX6fMarE5XTgq9FH4i1wXTaLaGm3BlSRc6DtwwJUNqkSjRLK0ojoVSv2aCHVEyH6eOkL+y7q0UYCq5ijM3bNtJxXcnW77k/2HBlxMSVCHbkKLAd6rvEJ7ssjB0ktM7OpM0RLTvf/ppHLJ2JMdruqZQUnisgw2EqQvD9K5p2LxM4DbG1H2WaAtycbFXT0s2Ax7Jdnpdj1QHi0PGtKJLbr9J3eiKIkZVZsvewTnCUEoATdpDAKR3Y5Fcttlg7h+hN/PPPMMe/qRhyBGG0DvpQC9s91nu3fusjOWLwfIPYAHShKYeEmhx5jagtlySglh9dB3gkMeBp3JUPMiT0/J4auvuJz4kJwh6vjMM5faVh5o3NG+2pXv6d4LF8zVgwYJj0r2k5//3A6xAZzjcpycenDScZwpJY3HUYeutYsFl/veRFlIPWUTl84/w3Zs3GZXXEi7Nzha29xuO8jmcKrV2b1jOw9Q3mJ7uX/XzJkuk6CMg/r6mD7XYXZoNtn+I12/JyQRKl/qRQb9RC1eskXS15WkuEKxzFTgKM8IO6miVrc/FuLujxVtDOzx0L5dLAJe5jh1j/MX2K49/B0GvaFMIk9Ari09tL2hCocE8pYC5AK5vzIBqjvRgbliQl4IsuGV5231xasceL6nn+09UIPbX9nh9rZ8+LEHUIOtSOEQDECjfl0LnoFSVnQEKWajpmYCSEtN8lKN8p6zI4P2yu6XQWFgyF5VfwGdwUx7qPgSUCBgQKXnY6jHIsw1gPPTSPGt8ofj1L5oPeQJqtC4jKMxyXUjVJepwq6Ra6mh8qFnnrae5k7byrV2H9pvnZiQMs6eSgi1x2iAEGSCeEXhzay2TrdVla4/htoNCgdGByn9pT4HyVa1Q9hJImsj6ZRp8ay1VuwEJs9rZEfMcQqUzlCNonwc2QTV22eYnKRGFWRq1Fi3aR2/qwJMNiRnGw6/DAQGY2zUVhyAyKgh9ZmXssRK2gCH37VjQ1Y92tgcISZyNuQBu7YygulgsskefeFlvi/8j/tDWY1ry75XrCmObd21nU1R27B7IBrqkcM2SjJaqNhSDlJhb4QEbYU+LwER0ghrWVz1BUZilDIwjmZSU33UXSrNpAWaoLxvL6GG5qHSeZXwq/JLGwLIxVKBsb5X3ekopD3VsNvaXMhPqDOEdtm8kW5gJFepsj3KM7Lgp3RSwtjbb00QhP0KiG2phWmgaaW+0e3Z4pf6ZK3l2ChcOaI2Tyh5DmY++aE4QxunCayNAuu42nkGXiLGUQ+2awTk7zxtXurj8yYGHxAzRcApy8BTRTLXCe3kh+1Ro6W7BOdqkGIkIQoFIeW8L0sqG6hYTxXOKsaJ4sW1weEh4rU6vLEmjLyf/F8ricxKltaqRkFhBE4gGLn0qA0OHMSJKdpBKp1VBJvDKyy4HfTY0Qi7o/6GOsIf7Z0mgDvOvIboMWilnDCCk6G4Tnirks2KuVT2p83kZJf0GGx5xBqj6wEELqwjERuZLLM1CMyDPW4h8VtAarXLrhpvwuCpQoOEwGjLS4HbLucHalXGUx1hS0jRRnCb2q9FMGmiE+VXp1PqqOSdkLrMmEV1bUoMRAG/21cPVambUFwFZiG3GVRE3hFSoZ0glI6pwJkR3N4kEpQlDS1oSo+pDRB7pZULg2iSvKiCctTVOJ6hEHUv0YrBxn7Nbi7b7HZtmeF1KLk2KaS93AWURGWa3P1R0jt5/OotrxygtE7bLcaRQqqOUWU+F2QzSBZdqZUQRJOn20XKqb2rzeqxu5IuVT6XUH+qiFOjiOc00L2Katr08jZHRFdbCkNFABfcI1GRJJU35LUXDQyB38bGOGMu+atKsJSKWKlryUrF8bu8yTJZh/HxERuh6bOxp4vCXDYdImZMUTKoKnNlLqTV3BaNQnx4uUNusDv4WUMn57BUxdPZnhqq67uq5CuDNoTIBEdxUFLYQaoDzEfA2cQOeVvXbeI7wDoMPAZqoC4Rd30WOkB+S3UgRSVveTcUQolh45ZfcKYVuOYEsEOaJG4yipRhE0ZxKEJcoxkX+2NvucCWd+OZ+gniGaODhdzYqxCR/tb2FyrsabS9vafYZ798nw3XrcL7pXg1vRdpAdOk8ClIZVeG87S7wt996i/tPHKEKi5ydTNTyyKroXFXrYd+ym3ajWPxif9+q43DEL46zoaDKyI0uOQoRbUNlGWEJvM28PIu66UBUxdpQurGhgACYJ4kwf0EZX6qJW6BaQYIGXxoneKBYTIsM0GsJNlSoWq0gXnQBtIQWWBCH8TUISdKmLJDtkCzpbFcr4II53XgVKdxlLQuAciXXYsyEFIIB0NQWhpXVsWwm195AdhnCMThsDWxi16RGNBHCbcwSsiG288+jmEgsTD7m/B7NjvKwGK2bcNWAGiuDKHLBPWTJGXVP0/Kk6qqvL39imV2avNBEpYvwSSbUJME+fz0ZWt+z9CUmNllkdQB86e22ZyWAfv4By+0idEX2Q97Brgkve+q4ySUyMcIbLC5HySJe94pAK/j63HTB1ypfhbnQwG3cpn6qX1U9FIdTZqFVGbgUx/7CwpjafQnAPchSYr3VK6nDb1Vd3No734b7sd7ZX0U/6nqS+yqMga1dLuee+JRhQny011CljN2v7zD5Tbd5uM4ZNpRwnU5MS41W6p7qXpUmerIG/ziJE+OgitinRY2uOcqCDCGcDKPeiRpAfsXUX4KaRtnwC0KdlGVxSEgISCvoow2d4LnSfnDGKhIyOgy50GuMzZEozxS5u2dSe2KX61bKN8i+B5nBib77YxTmqwpsIOt6YG2/G1HxaF25Bo8jJemGjnCBnSFwqj1tM+x5fNjeI5byOXxrDmqltVGVmEDgfGBtF3zuoutd+P3bNO6u2zJpX9oHQuvcC65PO6q9qldA/wi9tuM4dE2WaNQITljeMvaYioNMcfY9EehwSt7D1gbFd2jE4MujNIhpvdqf1D1iLDnR0uzaa82/AWctDQbyCnvKKcmz9prV/pmegLzrKfOd42nr3IElaGulk97Az9KY7nvbscjYCTZM4HJKkjSTnW+FEVHbENVT1z39W9+kW2Z+hmtjK0H32izHL+DcqRKNXo4Fq/qYx/7uO1n9yNtNhehNK+cQ+1xywoOQBCbEnfqIGEjE5TBCThmjy9W4YRTkIdZCoBV4r3iGlGCQWnD0HpasrRZAAyG19dCN9C4KqUBtZtILA8mZ1mgmSRsHXk6lWMgGVJBVaId8fC4o/rw1KUaBDZqI3zoo1Uti1d5mDYzISiSmijz1TaSRbZgVqhRZH1koqTeXT0O61aVPK2l/Ic6dQhB5Drqf5S3U297kThasNwEgHYEleyuI1MxdUwXLL0d1GO1eVVmzZwJqC0k5djIXjdUsCo97dO+0Ngq4WxK88eyQTune7H1b3yCztEhMEZUrHa1pmJMqlaE9GPUMdmcDxw2HLMli3rs0NMHcUgoN8yThK0AUKNWytg9V1iLjbL4aahTNs0mlizJJXdzmMpn1RBSRQ5q2ChRsRZCQ/h9DZYM91qA0gt/BPuA1B/sHSFJCpBAFl7nR+debCu6LiHzoVxb0T17XHPWQomJa4+gFhspCDXjOeNdZ1GbYQBp7f+pHR7UYJkfA+JT0hXp1UbkCpHckze5lqt45rrqN9Rem3/5iU/Yx//sow7mi3J+BqRGNnOSCnRtqD6pjiGFTKpQ8756ZDhVQsqZ0u9y9oIf/ZM/9b39HTdV1KQuPLH2cHpaE4AQZeyf9Li2mRD6HYDbS7Q1T4QGrQIgO5bdAjGUPklgB7QQ8sCQOCaj1HQ2H4Z7V3A9bcmk8jfVi6COSSUVkNKCjDGOUCjSYsn2s1lsfnd1oN4sPPopmPcOp4p9IBwg8wUfMR1fT1KibraWhRi3RCP2ggxBqUTieIiO1UM7sTN+e2Jzrz36+FZ704Vz7bzlM93zx0W0ai3kMfNHkzi0B/RHrVxUMOCYDVtXVxe2DGbCqwxqkznO8RpNKQ1Bpepa8kZljpQCCgMD6vkP27dvsw4aUKU2sxDu/X/wPrtv7Ro2ZQC/lXuEacnhmaqNrg5iHvE2j6HK0T8ctXQzBdHTm/mkuIWNinhFWMEvQnIDZXlUt+kDT4yimjLgjBU6XwJsy+jDs5tFq1IFdEN5rDG+l2afsTINiyH2GlPsJ5rGAK1TfN8HLqkCt7Irb+dm1Ik0RrzF8UNQPxlpKc1aFVIdvr9EPT/qMSOkh7NkbXJSN2IWvOGJsX5LUoLfRw+FNmlTl9KctgT9AOze0NnCvNVxI62MRvG8t2PsvtSfbKK8TlerwqLzgHn3SPJWAGVl3d1eM6hQtQAoTpWzUU9u8d3vvsV++tM7HWar0omLLrrYnqFz9/XXXO3yfA89cC9AwB5L0oQ6DENEQFhUvad7oeTwCZhzNVQ4Sq9jfnPEO5G+1/uyeXrIQ0ABNVKI/LkMgLZXdBIB542DbV5x1S1WwDlohMsjaZ89etft1GyQbWe7xtWXXE9dJIg93JfHfv38vr/BQcALRFX44yAu8qjIzPvJq6FEqddnP0waKSsEvNrMW9kLidtRiTs6/pDgIzzWSSTD8Fpz5MbylRHsERur0sqsBv0JUHw/vW65Ec8L7mnJ2Ruv6GHfFNViqsuIneXxCqvqqHZ19J7ceMFgfu4hwFx7h+qQs6L9NqVV0ooNcVjUfLpw8SKbO3cum7puspWnr7Cnnn3KLr30EohKPInJeZoEs3L973rXO+07P/ohnUZN7npyGF2YBrG1oZwfRj5q8XSG/qq+3Fem4DEo7IyzvEvYV9iiTnMdBJQbB/Aave3pcXH1RA/UneIWlbcn8BRTOSSuvsUGkGAwIVv27jfarm1bbP7CpTbOhLiIs5MRUI2gEo8YaT9eSimrYFfi7e3Boq2hAsQ6CeKkIEWx/HWUat54p/1fowTTlGgaKlOl0fRKZGiOlNNXwSGQ59tZpE6G+Ahy2roDP+WhGI/aZWfcbCvmXuHanF2diQzrlI2q3kTt0K7BEUaUo6KX+gtl32QP5YzkCTVeD2AeQ4qHwT7rWhttf+9emHmEnF6bXXnp1WCvh6kUBxajv0OdUMrY/+xn9zjEyU9RUgxVNgnWGVSgzjXVjq2+SKdy3OHl8wg+eE922fNojxi5I+dVz3c/ZWPUe4BrrwkKVJYl1ScMQGpjUv0FeHHqGnJoCS9tQjBzyTJ65XBVUH2ClLQ4kfoYExwGmMWWUM+hVixtVKMyOLVbyU4UUT8KLvSfYClVbJ3sUH1IgO9qZ1tJiKpgEFdQHC9mTYFkiDFa2JUoTP5QMnNK0+lW6i7YjKZFxFGC/rSxjUoQvLtUrar+DMKhbgcjfq8HNRIumiXwFsitxdXWxDMaW23L00/YLKrMBkbZMXeQZ02wIUCeTuE0dS+9ICrKdNRpgz1lZ/AB5PxpN2BtdVnE2w4Q0wn5icEUwnWz7GCR5F7HQ2Ri1qPHsR7KMR+JdKrSpShITSOsS4AVCsLdgsjUUwBF+A+pwqssMpiUsgu87XZ7EOrNxOVrujYKnJIU1ciqwlJD4SQcp/K/EoNX7BOA41xLE/dS8FwAlZBEqG3t5IeWmjHJ1nNemSqsNJ6gHgwVALOsF6YK2j9JnWmR+k1tmjHDtxQ0IEoZ/hxXYZZSRxFG+ESSF5RWQI2VgfTUfy5gXt5zGMzV7XvGuF0BMDN0pfhKDDN2MXsf9hzYFXRHKbCKy0g0NnG+vGyYLYRXLuavgInGAdhF3BTXakgySogoEP21jlclnjbAERZQhzRFHKF4khbAcBqoSF2EKnR97tn19v3v3E6JeitICXYAFaMiHWF0ckCUuC2ismSIxym6fXH9RreXSph/6ZT2UiE4F8UhvkIGNZTo8zoqtSQNkj4t7IniHEFwIp5AZxGvhPpRZkCbILhdjBAZ5cqGkcAgLTtax5fXbLMn2H32vOsqtvKCFYzTi7mq96h1jNQ/rxi1hA3NsNN8BKIJpBdTaWNUlWIk4qAtjFNhRJ5tIGOYhdwwWghfQc850sYK2nusiKSqBVwmwxU6IQTeXmPNzh661jmcqhSwmJ5zpCyF90SZk5PQEU8Drn0dEVdJAxeUWnPRP8nLIPYvTSpDvWn1xCgl+gG+/e3veAtNhkGqT46N1E5E1ch8N0/FsufWQRQ4DEgXmA4VQfih4L8CCBAmc64iVG2iM4g3R0DlinEV3LsnqSgxPIW6u+mgTsU8ApWVeVZzf47Z9B/qsyjZbLm0ERB+5eSkSpWO6h3Ya/MXU+JOtmHe/E6uobIOpFuJPikSd2GtBbfl+ppHAHxUuyodBqvMIkFBWq+0l4saS5TTdLGZnDF54owxMMnz9+QwjaFZ1J9HaOVgL4ipMn7tvqv9vCsUbGnzVLVmu2cPMQT1J6pGRwlebfXhOVEefTxzfKzaPE4pacjVQ5vbyGArcBRRJkj7S9drHy9t4N1I9XMatidUI7OvgBl7hc0iWOOFU4PaLKuSlRipRFpEi9hPArKre6bLu8lj9RopKGYl6z0hUBZn5V+//S0XZgzD7eOAv7Izetqk+uPSxEsZxUmyF4x1iB33JiFGhbF+6wffczk8V8bIvSezdOfgJfrZ2DROUe9Xv/FVa1jQYGdcsdqauikIpkvHVVNzfhYiZ1n8LOo+zWLmYToprmGY9q4HH0DFYaOxdXmqvOR8qcBJe24LGJ9z2iI7xL3GCJvGIKaebSStpf3aBE9ALne9LGunHGie746RptJ2HmUhLYRWylo4ZwWh0E4WIuBrwmNHKHXCX0i94NLrQS1x9ZMxkAy2iFCMJ1+VrJnNYCI01e/atp12I1pz1fwvt5szxSMCrVSgU0Ck5LUK/lq6lJ5wVMtEgV323E4KOCycrA7SAATWI9ceXvsEKaIJe8eNb7EZ7RTrgroodePSJTUODCbGhlg07aVy+7//yO559GGLMh5XEyNYi/6QSWpRaFXEtqTssReetJs/8af2rje/xxbOm4kWgMDYSEma1Jbba43rC7pS1dwYPQn3PvygPfbMOhuXLcN8qGHGpZBQ79IqZarSkgTe8849w15Zv4HOJLaKJHsySb7Oiyogohw2yTQaK82YVVrSDLARQNtoB4wGB5dJAhkz99YWlRUlfAUQvMpxxOZVBfJYwVQSklI6OMpluOVVosdLYH16wKFq9KMdTba48QxUHiqFISrbLThIh7A+bYNRoQNWsaK2ksqzqKpnVH5QTy9R86Ky8moVlq1LwenaDnHzzh32kU/+BcygRcXlQQ0KCXGx19TLgS8wiBZRj/0sa6dYVJk2oZHqKqIW9aBCn9rBCOYDhDnr92y3jX/9RcsPoZqp9PapmZMFE5crSHaPeXNxhjxdUBsyCKcuXkirFygNJRDyONV2rfoeeYRyLNymPo3scHTVxXigmAiuMQHh1WOuZwq5tUMDie9Oo/N17949qFjVyzAEPtd6yVfQlh5qd1M7OV6PAJdXPZzaVLwiDFOpCtWkqBfP4RWwZAk1oBLvIpXBGThKWyyF4HRlzsugHxNUbMktlrrVtk5+VGOR96O0LSXb2ZKjOOE2iFHD/ATclMMOlBmon9L5uI8nZmEXXfkCzluWzECsDqeDW2dp8o82tlscRF+P8YxRghDA5uql98IkUuXVJnHRozRJ5gQpsUAh1BE5bCQNLcA+0X7QuIoP6aPcblbrqTazroM8IxvXUHJfJNuQ6Gi2rkWnWhGGKbGwFepVkt0dDleNU6rXTp+FSiSUrBX+qKy/anSCLLhfHiFErMisIJHjOCyt7Z0Qo4w01TnVmIYIYv6IepzRYSPDFCjTPibITYC8EBjtqaZN2OUXKFRwXINwKDxzB38e1TieeDlss0raoxJ3LLkLDLSEble8lSMQ1cN1VUQkFxrD5oJ0SdDpNPuftnS5vfTiC9bbd9AWsx9YDi8PTSOdZGdT8XzX3fc4uE2H0kxKvFJFAGvgvJAN1yUrICw+yhqiYJYhtrOY17OYesthW7BgAY4Gz/kBO1z/4nq332SWPSsPHdjLxjYQA2nxtr5Q6b5+91rA1NWagcvFgDdcfz0l74dtzSOPuh1p58ycReYB1YsUdrNxQCsbyk2S0Vd1dLZnvg2MDdkiNj0fpjrthZfW46iQvoH5xKgq8C0Le4UCQvboD8fpCtnZK8+yR4fHbfmy5bZiRZqneG60lRexn+fhQSq2t9hZq1fbs+s32QH+xhciRtVOUPRrcD3tT6Z9bpTfkxf9WsdxDkvtFxSfOY8HwgWEtEhf46BIBcpj0jNPFaMlMbwJvMgX6V5NIBlvAL9z2GFp0s4863TwwITbNFQtTkpmColU5ZmcmzxqS5igmj1ifvZRCfCYFyQqxI5KmXQ/z61TLRVPM45q45ohvL5dQFDdbF3f6K5/8WUXwlQgxrj0gq6yEC2H5hBeGkRShHUKwhomWF6/cT0PLd5rZ/GAita2Zrejw4Heg7Z6NS1k2DTVu7TgMGndFq1Y5nb5ffapdbRXn+2elRDHmVClnHs8N/dJkVBO031UhqkreJJ+mGsjT8ycf+oCPmexOC5cvcoGkVxVvc3oxs7yrMHGVrb8Zx80bY7qbRarLD+eL5rOe6QATI2AHB+kH0tOR97r33RjJUFsJFFsAXD98Z0/drvcxZrrbOUl59IFg0fJAjSA7aHgnFGVVdP2TlEgnRwl6co4KA5SkVLeGfsRBkJdvlQBanJsLM25DJgJ62GKqnrOQ/wKUqkdIGQzVZElKVWsVKLgKIOLLrBcfdjuQYC8FAArPtKen4KJ0uobUM0ni5lHBISySOnLbdJ3tC9oEcJq7+p6AvcyXq3sj7brT1K97XoTmYx2qFXIIQ7NIQ1ZzEIdNjqG6goBLOh5EqNAXnmkzwfjFR0ng71CgLBiQUyHmFSoj0rcQ8rVgagECMql9gTq68EfqlmVPYvB7M5/YC6K5+ScKKOgWleln7QTRN/OXTbc22vtbV12zTXXasVdD+K2lzfTk/7EZ4+ozWNp6v2lYiA9SjOKfJeo4nJqi0lohzo9FTILkfLaiA17pU2tcZi85kNsXgKkQC1K7nFtLEoM5sjirLiSOYiv54CXmbwrzClQEi+4zKkgyvFQoQWe+RNhy6eSMD+ey1fdj0R5XR6xhFHkXGxwSFVYEDoAQZRlzLFIepJkEKfI4YMQQMZBzZY5ER18NU4nrpB7FVIl2WI/C5yn4jc9TVrbSdYBMgchrhAW5bTH+d4w14ujKWR79F2lxSrsMybbrx1v5YBkFFi7LAT2EnWdQhXGwHwVcLunQoPX5qmj8Ssuxf5FmH8BxtbWyapS0CEb6IqRpsIFOTm6p7L9Xg8GzM/fkspXJZ5gMe3CN0m6PsxmadqVTg2NUZwSt5MPN54gztJEIqhO5bxQBE7taF/KFsq8M/QoNMdayLSD9mOEtS0GfqND/rU3mAdQ42WxWUFByVvU8uRIr7VJatjGKUkbddV9l9Tpvm6DAj4XI6glK8ACpiYhWvNcO8wjcNy2WNxFG5KLmKqvFFAXBhhIEJT6QHZCgOt18mRhRGVJhG8qK+AkiY1SSwLOuccQHqm/hccP8GAmP9is1Kbbcl+QoFJi2slBlQYgNYfZW0W71Sp2TdG6rDWZAP5T/OODIem5cnUpOPBIIfuS0dipkkA9/Fi5P6nBEtIndEgVa7Voj4g4/XhV4gmbHGPzs0YeHEHczwIJxxOsQ8IQo1pHQHzjJdfatVe+wT7y4T+xrexme/HFF9k//cM/c37KPv+3/8N+/MDPnKq766674Ue//YgO2Z/ed69b/CCgdZFyCEm4KydkQSq44+2VATunw+ziK+bxrAbl2lCjSIQOOQvVIw/wGQTPlD16cfew3f7kK9ScLCU4xgtk8npOLTrSI5weH0df/VIaTRa0n4p6Srjd4wV7qQw/QEOJnsYlsxBTLSbj0U58O9m2at3obrxRdtBlYfVsW+XnpMLjaBX3lJdg0rpPPY3tRy4BLqMhk7oZ9SEKocHwcg4OE5kCt60y7xaQ4q1bN9uj9/3EujvUAKNsPszDWOl2dBvchclzVuthphOt+vcJiHfUyxG4rA3EBTjXsyFbGnC1CW7Kq3AUrt7P84JOuYHn3DXMtJ9884c88P56W3fvU/b+m99n//qtf7PP/+VfWyvbVH3ta1+z6y660u5/6GH7w5tuZuGi9sOf32WT9LUJJ5HBV9WZHjoBj9tZXUF753naxGCX0nSOYVxZgbxcDsVl8lq15SOuJIvBA2PmzySzv8y+/Qwdt/U89oz9qdXQIvQkLFUECRdDuNXt862O5wjpgbyJpridds2VbuO4rAwfKI26h7atfc76X95tzYwzGZthRWptHhneQohDrAhh1OUqPHAS7dKYaKEreI5dejVPxaTUUZIVxQSsPH0eqphgnrBE5kEIkB7EMTwMW+O4zVx0sV2D83L397/stjOW/VZmIYEt18OOpV2cCps64JXjDudtyp8TWCqnvYJRUXOhXhJpVzKu+kPiqhndbEbKWdrCIoAk9FPf/8cf/BAZ4b0MbLf92Sc+SiA7yC6yP7I77rgD13iT3XTTOxywPYFnd+t//STPVHiZRsmV6H56IEBv9KiaErZGm5hWqOmMFvvsqvmUp9NTQOjqetWKxIRpeuJFMGUJXBu0OJRnm2dUNk9xUXxoq122gPYoH8+/A+mJhZAAHAfQTSsoeCfxupRnBHWyoBmkYtEbz7a2c06xR7/7fVvznfvsuW+tsSe/eb/d883v8xDaiF30gRvsUAAUCOIvwgvuYesRH5KcQkIimBB1S+nRc6NUSy+54A02COyUwyk7e24DFWxBu//Zg3bn4332+Et99ujGl+0Ha7dQfpiwy5Z2WGde2G3Z2hadBcPRzctMg6jtBNuMyEFTjrcA3HjkgHDSPGJa2f6qOnXEO0ad1vyh5xLo0WrijAlc/UlUmlx+18vGRQRWP/jIY2yfz056kaWP5QAAIABJREFUTPKt73wnQG3OvvxPX2dXojfY7Pmn2tvefTOdPAO2/KxV9uWv/aN19cyxH/xAOwOpUlo4JEN3NSAeqB1HWhLyCln4EYpyC/Vs/9R9hcVmXWP9uU4b9jVjh2goaTjL6mZeZSOhBTZSbAXq6qSus2wtbM4WQa3JYcGYSEG4Z+ipG1XP+ZlgcS666mrbu22XPffA4ySR660/SvDcVbC21820ldedbYO9e+y+791lv/eu97mGENmfkLxiN17KRkBMtC+2gGdpgwRq3Ucv3+Lls8nfFeyh5/bYJHiqVHaDcnv0PsgJ2rl/3O5/erddcNU5mCNqQ/Ef1K6tLfxFGA9JUpxLltNhtCcwdEdJ+uoOi6iq/J2KS/vZkYiI1JrZfjcGJqfHqXz79tttIM1Orgcn2PHnvWyXmLAP/tEf2VI28t7DM1//662fZl/NfXbKiqX2xa9+xTbg+j7zwvP2P//+K+xqdIHLMMjZ0UN4GbkyPM4V14YyMbzE5jkrbeEl7yFd0MWQwzZ39dV230++ahde8UbCmHPweoPWXZe2A8/eaYNrfwxBKR2UIwU6EoBwRVShetKj9Fhry5cMjk0bOCRViza2q4+yDcry8YLf998/ZIVG2Rw+INzq3cL+mmCU69Y8Y8suONeee/EpV+Ke+9/VvQeUpVd94Hkr59g5h2qFVg6tLBQQGJDARrADGDwzNizYnmEcdg57HHZmYZjBu8vA7FmM1x6isRkJWwQZgSSEQKCIhIRasdVJnVN1dVV1xVf1qt7+fv/7XndVh2r2eI5Pz9cqVdWr977v3vvPuUDIq5VUQQCmL3bCqilKy5qR/7V0t20k6+uprUxrrjcHB04xdjBduGY1nqT5afN+uv2B8Af57H2Pb0lXXLicVIk9HCndkDhfS7xaW8lRpdFQEc3e4cjR9XeO66S/ztRwougPki3g1O1A05LVj1ExakjFge/jKBw7+/aGffTJz34qsGeIQOjLdHzwPu/7yAfSu6ffi1banJ55dWN4y7uWLkzf+NY30he/8iWi8Gh6aH1NZgdDxfaz1rGtf6wIFbXTYnGqtIyizEXhB7SX9PIL35EayC5jxGQoMhNFZhK1LYOvcFisI/czzXJpSgc1B9sE7zUnZAwKv+iWG9LD334gLcDUqA31HsTBZNy1c3/as3lz6hxUm0RpYZjx86+9mn7z1t9Ijz77GMoLgMLF5TpMRG5AHhpN0UVU4uCvvmpteuixx+Eg5IXSSGyaebg3XL6KKc5H01uuXJt23PVIGnZcK+e4hwj7NRf1pE2DL2LmaD7gesPZbehLkyA8N5E6ebKgm6l1HgNexZqXdP2Q32PUM/xY/6Zeb2WibEi+XMvDdExr0JKEQSISh6BCiN/Ob2papr2VUP0nCgy6MMMKTBphLpHphAR1IGuzrWzPj6yCVep6mhw8gMDWX8jTaLRaon2HrUJyp3Pkb2kJa1kSzWbM5bdniyaBkW6Dp5NQQwGMcyjjBBhs9Q0Wdxjmo2iGNdhQg4SeFtNQrlSkvBpj+t5P/13aykhRDfKVZH61t3amPYU9qZpKpNf27U6NsNbaUfyxHL4HXA+SejaThr/Qdoto361oktO460rI4RoWv6h+IL3pkuvTZ/7v/0ojgZvS9etXpx/gFhso0JQOZO3fuZNZtcRH+VyUXutew9WohtvBYAy7G1YUFtlnRB10ZvBsYaXsOwa8U0FZNhZFhACpBmav9tmG+6sajQyJgh2ENmdMHwQ57jg9TueR/gDrjSw0PR/ydajVzg0mywplMU3fnomsjYxoM+NLfJgiSFpCezNbtET3IpUqsAQAmZ9iBiabUwBRdzeNF0OEmrRxm5odYSaDo3pCNFOixErTBBk0arkXrw2AkAjDNI91LKrrTAfJPzECP4nicRRqNcfGzLWi2dao/9FkCLZo1NSV6EkJBz4H6kgZs8rJcUwXrVuQbrxmJax0MB3c0Z8+8L73hE94HiKlDe22l/V//8En0ji2YwtsIoK6eIcc62YCmCZIAJCQ0Y6yeXT8RGf/dBLbnPXnshwy/uRMPLFfxaW6jqxeUtdtTDGF9z8D7lTCtWybsUmNd7UjnGJ8WR+AF8NUCg1mD5h36MKKVAgOpArWmXt9mhxk9olHxjMchod2aRaVwDGHRmPddsdFAQvg6o09snYdDKZRROspdqosbYVN2264CDUNk/WWm4Yjr2ijWOyg88RV66ju3ZvSbh0BfMZ0BT0wgaNmq4iAvJfNVCaQQYP8ToQdE2THltfQk7anW6+9Lt39rYfJnWGf7TVpCfJ4/cqe9OQjv8CHS2Iy97HBQbTaYv8CzX3XkjzlBGgz97JdeDrQaSXMecFuyvbVOMasRZUxHYQDNu40hUY1VcJL4Nd0/iryvVj+vTRFK0S+StP4/LDjpvju+4olg5p6KHQl4qSWz6swa5qo0eGRgJD43TAwz4SiqqYRTMobWCiRYDiBKeEGiDUhAAL3kyqrEESNAKgDFm0HCU2NSU0btFAreFADuDHlyvhelxD5eOO772SsNRF76tj/5ac+kq77jesJ8A6QIMT9udfSeQtp6IPNqHsNtutVcRTUQoWtONaHaCRwlPSNcWrfBtEJVq/rSX9732N09EPROzqdth06mn7+8pZ0wfpVaRGFJCOkSixZtTZt3bUnOIFZBTEQBMUlhm3A0ZT/xxwSJ4u+4GgnUV5F3vk9eCtCfxqgtZI6NwLVOcApauIwcqdpaVWA8qQaL5/hl07YiKXLxmSRdQyYJ5pOm1QUEShDlsh7xFi6TEcRYK+sGXnZ1E94aJTJYtbl1Q+n/Ru/n3pfeB5fIWNcbn4zLBfv/8CetP2H/5CqjiCzzjmHjDS8PbjAanutzCulF6iSXcLvnXCKAq48SA4AI4uJXLzys01QwLlow7vTnf/m14KYH7hvkMKWYnru75+BPdJmcrvVSexjIcWbPC+c60Tzq/VFasyzX/c54hx5FLcaijZfeOZV5ssuYmrJkfTicwfS7m02Z5Wj8B5qOlJxRfrk//XDtIB7dtSjUWPnOutBp8AkrcAsG59CH9AsMZfHprLVOnI5n4AF2rPz1G147u+WCpwEvFmyS7aBlmWcKudl4upB2FejHrdT2TKJmVCnbBFycjR/MrDr7zw0tonscLpWZHfBy5uIPk8QdFWO2YhnkkQcr1ai9OPE/0xOYlZVaqNn8/7776andVVazFsMtj753EPpkpvfkp558Mupc/hAtP7dufVpFJRRGm2PpKNN81MvsDraCaLB6lYi5G0HXMSTPAVyjJP28FO03t/9Vx9OP/3i59MXP3dXqoVtH+0bSl14Sh6+7+EYS2MyscM6PvLef57+6s8/j7NZb467RFCAjEZQity7ChNkihqMcbrFP/+L7enDH/p1Oja9mrZu3YIWbe4m75nEoMcp0EBGAaMxUv/2QvoX/+Jd6Zvf+R4pEI5wQ/aibNloQPPDqIpqvcCKgSXl04xDiitOmyvC5ae/xLgCrjBHwJhQY1egwAwoZqBvX7Zl2ArMDsUFdd/+0mRsjZe/xvTSs3Pogs/T+LqGMdfkKTqrdRjD1GiDKTp1RrFhJT3z8eCggfXSwreOCSDzjgykxWph2IE1rKOdxtw7f/BA6qaypx5XUs1UH7Mb9qZ28lR0WR0GUJP4O1sZidqKV8b+l9gSBDdhdxz+EGbBFBGS//cvv5w++tu/SZpCSlt20DgA7B+A4mrpSHRAhCQP5gN/8KH0t1+8K3UiAia1z6h3t/FbRBsgS9MrqpkhUcfXCCGxOhJmvvKVewivvZXeZ/Nhn/uBNfPf6QBRT5RlZJjqJZzsH/7td6Xv3f8zsqilKPaNll7UV6oaj/gwa7wEVakMmlk313US5c18sxlMaojO8m7tolBE41cPuh4GeP2WbXRkWHUDuJAjBXrap9mYiUdiTQ2YpC1VMqSDIqGMa8E+2rF9Mx6HBajyByOgOg1LXoTfUe/7EQ7yZQzrTlTuFUbEiRDQ3JE/4aPEc19HF6UJ2IljJ6JpAUZ9I8rPoanGtJt2s20gyDL1GZ5vHuckBx4jwylmtF2kc/A6kNXf/ezX0uVvui7dfsuvpJ3bXo9R4natX7ySCD37/esvfA0EUb5XMVOWsuhOEIO8VXtcR8YUB2tA2kKYYZrC1mLLTuD8/spXv5Muv/rS9Lu/e2PatnUn78Vkgnuds+4W5Fsh/cWf3wvAMLPoBzMwuB+/MSny2I9TsmPDaoEU8DDOKptnpwffScATWJXLn5vJxYg681C9WTRKhXZfK6GQp3/03XT9m1rT2nXn8yQaweDANkXOLn5iuo7sNlpKlSyyBHLafkep3PnFL34IGwJbuf9RDNQRWk/VVVGKBcUO4sh+/DDehqYlpEl4eBO0eTORCA0VNtTGAas4FUlb6INttvKZCUI9e4nAP76Xvivkko7CimoxaQpQXnAenqwmv2vkIGycLTR1MBVgOj3y+GNp6qePoZa3RRB6gPDWo09SBg2niaoflJwDyKzddcM0U9a+Y1/4N9XoTSzCf8O6hkkx3K0aRKgM5z1JR0//7GfpR4/8mIZCBK9tlgeF/ejBx4JS5WB1zbY62Z927ngF80ilD3mGvWdvN4FXBfJ0wL41m2STijKTr07Moj4JeDPhDCvGNzePhY3j4yOOh6FrQLMF4JQA4PzagXTw599IW348zryCJWzYSlaBR7E9c8U7mae+jzzN1hYjEqASB4gKATApqm/EBMCL0gS22WJ/HLlgfuMkqQsTLcvSUyhHWxwxo8ukkUgGByrDhg1Ed9rCEK6wjoVU+WAYYzvuhd0NNZKIBCVMofbXkRxcxYgTUzaUVWMY79Xz2tKmwkDagYw0DbEer4vlVk1UKA3veCn6WQ8z670FF2BUGiFXx3ES93NPWzhWQZ12YZ+G69SrzCn/CN0U6BB4tLCTADN1GChlU/bO5vC2v76f98AByAZuRNGbYCzAGE7p8WnKn5vofERQeJpnR+Us2qxODDXPBtbcae8YAVC+Ks6TmfCZE3ga1y3NeLo1lvEC9FNEofrdwkY0HWqou5tCgZnAeT1IB0DZpYJ3nJoER4j1btsaRuhg3y5eN2vZKgeUFjwIslDqe+Lvkwifarzs00SZHe1ZQHYdsd90Q3u0WhxgRLaTmodoDlDVlqc2DtCKcUEH4ar5joxhHXg6amFF09PM0gPb8TVjYoBsIJ7sez6UuAtvyaKla9LBIRrIze9Ih+EM0w3GvWncRl9sfZdEf1kXcg3vYgPVV0WUqkgthCXXIUf76YQ4TgS/HsO7lqbiTnCpoq5+itKyAoWjjlTVJaFDyoxox/CMIwaMkIzjZmwE2NXhVQLImjuWE/NmE5z1GE2heTtndiWdIyC1mbA66edZCsuJXhZT2g8ePBjYUMTgtQuRbqZxvORVRgLAlH7YyDoyxwzn3/CWt0RXvzveQ5d3Hrxo3uK0Zv6q1A1Lu6znQnJCSNVDPtXQAmR6nPIrFPtGWJjJS+3MAOpisFITqnAnRqtTVKrRGtdfcl5621vfhHbbkDYgS3gDHfwa0vXXbkjz69vT9edugMIYj0ML5XbMF8d1TmvesPYq2I41fvNJ3eihdv7f/c5H0yLY01q8GesZnLgC5eua889NS2Fda2k014Kn5503vyFduWZ1eutVV6Vz1yyFAifTRT1rCeAup9KXNbF/J3xNm4cKG52GZRuueeedt2M2jDG6m89g4qw9xxqGA+naG1elK4ksX33j0rRwaRVI3ZAuueiGtJBc12WLLor8nlpEQXTRhwIdWb4e88eR4M7dzZfc42TlJYBXAVolmbUC4ig1Jt/xyBEap5Fu0EZBYjUeB4ez4zQBCGQLw5ZfefHZ9KEPvS9te/0FGoHTzI2Y3U1sfhF5l62wvGs2XEGHoea0sINgq1RBs5vWBg1eSqKn+1MLB12EH9kk2Z4vUxxMEwff6rSsFitHB9KvEGLatmlH+ud3/EbasPZKOj+sYt2T9JimcwTPsKJ5smUY+5MMZPyh47D5ZpJ9nWNecsYCIZYXt76WVq1cklaTl1nHPm5+422MKl2arrnqJta3DHOwmsSrw5Fv00faXz2mwK1X3wbl1qTlF/ekJRetpmVWQ+rCIdDGDIgJWLqNE+bDAeZhptxw2fVpcB/G/nt/M41QSr2aDoj9DGzsal9NZ6bptHbNlbQ8WcpkNFIEr1ufLr5orTFd3BDIMxC2Fj2ihSarrdh4g2ScVSt7w6bUCMv2pYa7oPRrTrapwWpHIMdCL2PqRw1As4m1l5nFRdip/ZbPY+7PPV//Xvgnnzn4dFq7YnXa8fouOi6ApXhD9r+6Ja2kYcxh2G4d7MuCjJKZWTSLMbJQpT0E27Pnlz4+/Z0lQiVOLnmZVLo1PT3pG3fflS654rJ0973fTKuhhMOv9wW17u/vhcnpPCeCjcN3Gk3OhjS20jcbq105hllihPswJkY3VK4y0gtCvPbE4dSDp2PPnj2RjdZIwq09s1/fT0tia8vREncf2BeeFRWN/XChMcwWu89r5hgmclKm37/81b9OVzAibt2556Vnfk4KJJ/fun1XKHKTBw+jwZoNtjPGdx84dDhyTRUcZpM1K8NtKgAQl+ADBZVJzyCzzKyouCrgKv9a/jYn8Mwc0240czeG3VPeZXg+knTA5NbWJciYRgxicixpQdHGIibIc3n9tc0sBqyhtVR1q8lB1DtspUUFkQNLnRpgv2FWsLgmotzjRiTAsBaSd4ZRiIpmGEN5fcigeg57z6ZnqThtST/f/lKaJFts84EdgYt9yL3X922P9or79uCP5IAj30WfLJg8SmGMLEmj1+jHCLIGlzNOa+rV0VhlLIVNhK/Qem0M5GjTl199NeJrFrBYtdOCtqz2umf/vsje0o2nFhg9alBazLscADlayeLeuntnTOvUvSVgnK++g7xQkdTJ1faG6aNllUUqDE4KT1UdSFMEgbt41jI0zHmc4SRnWbewK7w8c11zAs+wg4WO87pIOWfbUpY+PseN2kRmhLzKetifzu/SFFF2o5wsWoWjCa/4ONrc9Ih1MlmZsPGa7iRbEU9BkZFJprDmaxI31JQuLpGRf6AJB2XljkPjkQXo/NUI8xJ9zgRsC5ueUCPEuX2EhmydZLbpJ4wqXu47xIG3QEmGjDx8fYet2JAW6pvF1k42tn1E7U/W3sJnzd/kmSZVTSMOmvicSoTlV3a/9bwt2DQTTb+u/Ta1B6WNOlP1SFuwsNKOutbjmW7DW9OCpfTt5HfPRTPK6S3G6yLawV61R23EunbRPCiPAYrsYxrvkiGy4KlzXLOAl+NEGdyKR0ul2jgku7patCGbcj75ujVrcB7nHpYNqOTvePPbI1HWq8FBtyg3hJMBBJgVnhl+59AOITu/+/17ATj6HPLK5CAzi2scwY0XxLiW9WuyEQRBev8b78AxvIA5rxRggghWzerlMUanJJAKB/RiEAx9+pmnUy/vGYDd1EHNzdhUTsPU0KsmtaKWA+wAeHXECq+54hqa6zDuhfVmOzCHpkTW6HEN5WpTjYCsP6dBeS/dGoyE2LbfXB81SXM1pTpt3ykdEUCiBtdfICDuRPtXS2Em4GoGBILzuzaiuodJwjZD1c24gEhCC8b/SveKvGtspiswRxAFooCjEsM7SaE8HWBlSxaVGG+0y61pxf3YbMuWLAv1+NzzmEaJrPr4n3wi6tacxhXVnzx8EpU4Bt/DAo39yX6NVZnC+v47359+79/9TuqjTZXt7aOdU3w36RUaJXbWjifl8//n56FsWmYwpCEap4G5Dn3yAAc0+FkYKUG0D8FgZ43/7E2/lj7xuU+lzXt2hAOkAFU1o1zI6qRstTiskfTHH/2DKG7x9Wbcci+89AvS8DaFWGgH6xfQ2njDhg3Id5qbws5uvv4N6e7vfCu9vH2LDs5QG5R/ESISR/lXMuWBDZh74rxzR4hOiWhl6osKY94jJBzBJgJqf6NQR1JxHeaDNRW24mpnyIZracMGPH2P6Qy1OblqFQJvmOiwyaU2EjBoahNRE2kPMlPhdz78bzhYWABYXiBabWinBlusYXhneu6ez+Kf3JVqJ9AoYQNV+CXNSrSZzB989GPpsJ3XrUqVoMByKd1ahoEDh9P/8pHf55cCLjTmmgMEO7TrIqk3xkeHvQUgT7N9PI/A3oaxFsdReKCSf/3hfxVdaD21VqhXbc0hwioVBpPvfMev4cKComC9/VS6fvpTf8akFaamwH4vPu98MqLr0+ubtqRPffyT6enHHgc5SK1Hrr75DTeT0m6EIJOq5WgCSqTQdFKGW9nrd0fU+WW0IMb3qBPCXeS7smXFQgtIVQsx1CN0OwnwWmk1SQxvUuc1tu4AaYtS6pnieaeVebFQBT9Khe3qTcc2cOjYGGNtwDEtXbwkyw2wutEBfuN70vDe59LP7vsSjXTG0kNfeyZd8pbfSouWkMOxsz+tu+hqItPFtHrRWsyO+RjQ+k6VDWZL6Xqi2zlB3vNXnIMdaKKqSbWkwSLcq1Hjn/zi3enAJhrPwGZXLl+VfrJzWxqhJOy2D743NZ67ACrtSoup1h0kvuZBxVnLp6Ai+2B2MboGTo3ysTfdffc30hvfeHO68dqr0/33358e+sFDafXq1emCCy6A8q5kWsoPcJcNpetuvhm2XYc50Jn2eV8oy+xrBZadipTOZpFpTqj4VGF4h2Jv14zIMjAGAaWq9gN0V2VkpZbwEuQPe4dDcQ8zrU1rNKdGIjCeZ3b4XNcs4B2L4bEI+a3peLZjUht0aINa3DiVqB3t89HGyCbjQpVAbrFGWtL3//wuVPvvpnWruyLxtBZNc8v3P03y1zISlVpSz7kXIRfg5+IjB1rQs8Ih2DSuDoNdXqJnw1iDXWftV2kMq4hsm9y6j1mrO9Maa7n1d5KQu5L8zDHCMY9+74H0zst+O1pANeNEHgRta0CycRoY6NaKhCGooAbHdwGl5lvkat75q2+PvmO7d+9DWx6nUuh6uMxw+v73H4h0iLe97fb0ve/dh124Ms2nXZWeo2mHZACwVhykFpoUWFu0VOZcmsuZ0fyIncr+kLORZwNo6uXjcA1THLWPJ+EqS6jj08TohgqL7KkN6u+zJABbL5rK8tk6nAHeL1xjgeVK6ePXaSnPtyiPoi8z6rKZG2PICW2qcUi7FnbhVaLsyoamLzz8/6SRnfented1YysVMUyXproBBx5xj/69qXqUZjWkwNtyCogh3xTGOTPF7/avVMu0xCkihO7XCIYOW9jTMFpnf+EgE8NqCGaSpUYOaROKzOAQ8oR2j9YP1KIVNtRix5HnV8AbYn+YEPogiMhiafRPH/phWr1qVdhuKjl2JVq+fBlDhX8Q2eFvwUu0mSyyJ554nBrDC9KPf/Rj8lF/3Z0Ga5zGo1RFHYPOCgc46d6TFansNAIwuVK1wUvhzFfBqigPipdknEYMMHQZTcpYbcrMyCSkPnAkAt0qh1XG8VyzyCKbqFynIMI5ZZ5oMsVCjAqohUn2y5Ys5uCYb0dg00rPhF/vvq9+Nk3sfSZd0IN3pJFwzso1qalzPZVCy2jg1oSpYcZUKT3w9S+k0mgfn2MkGVWoOgHcmgs1BcKpjNHLy72iABSRV0bsjcl19yynlRHJQaX9dA98DeNjL4lClEBN7U3X3Ho1WIpSJLaSSxIVgBjH2mhqhmYD1KEBmmLw2hZyJi+/Iv2Edh4333JLzCGqBKAHMNy/+c1vpp6enrRn924cCyuZ5pXtOwOlrtVWjU418UszREQTMczxMb+1mXKzJgDbxN/bUEIMIXFsrIkqKNiicqIV2ehYqloUvCmSg9voJKjy4pe9N81pkaJDyZnjmhN42ktjJsGaV+GN0JSOkGXVysOs5hkFQ6oI4fzaB36XWfEAeoySrY41ePWXpFLrotS8cFlMqRo3mItG+dZff09qsM0GwBsg9lVtszqwKxujeElUz5ATkZ/li2w66vJgVQVMi7f90UfTIezKkfD0j6dNlIatuf3GtHjDxVHXrXwxM8xiELNna1AKapRHHLJFHANQq86FUQS23dQr7sD77rsP+ffG0DadB2sUvmfdOo4bG4zXDjpXQeWEz6pVm2dqUNrk4ybMFmv79PUKqAafBbTsMWTkQjsyIpwA3brzbuSuJlgjANduMJc15uDyviaULCMb0csGBSeM+TmuY8CbRaLlD6jieoKq1d5QNdh0ABd/AI9DI77HKevfbPxWy7DetAAgkQWtSlXPUHhmrE6jdZX4KjImFCuQxYpNzCjA3opuEGxCxJgyX0OEQHUWw5UPynxTk+wS4aiZBloh//p/+WyaRDN8nvvc8nt/mC75rX+ZRrmPjbplMoaHigR4G5nlMEV0w3I0qS9TNrUGmC8xPBg5oqEciT78bAq/e9TJrKruefjdFluyWJUI0wvVWhttIsdXHcjcxF6b+WqF6mSH6qT1PFA5aG6nhZ/ahsov6c+O+D6jHm+LBrv6glPQdM/5N7+sWRRxTkx3DztPIcg1e65CvDT7iuArcJAWjDBUE8awXtq+zPPnMScOFaGKWFfioEZoD2VxRJ2sYZwIMSGSkoNU2ewkGEQuM5DAd0hYRfU50sH9J3/X48DvJSlPiAk8/l+ntsYzxCGODWRAFWfS8i2f/GS6BdMA10QahO3UsC6runSSAw+Vyzi8oGi+nJYCphEoJTcG224MyrMBkKl2ttB3DN3DDz8cc3OlOuXezwiods1fwEq4lzYc39v1fwIYkvkil7WIImINhAqYzXCs9rWbke5f0w4lnAn21II/V2RwjzGdk7Xt7KVkWyc3DvsRxIIahP23JRDje9E22vOf42JXp7+mbIyjOq+KhJ1jmkAnHpQB2jNpoCJJQhumGwAxLgxycjTqcZuNssACyQu2z6hjbp2VqvYws/K+hKLjUTjaegzhrHVucmscNO4oAeffZZf+K6o0ARQbp+q6GgFZlJH15HJWQRGGeYj8AAAgAElEQVQtDLYgpssIgOxldxpYjfPfOMAaFjfNc0yTd3zcmMCzIcEvnguT4PEnnki33fbGtG8fcxVQVoxW33nnnemRRx6JYZDO8NOJHca3QMPx0MhZtJiewUpNbLL82Mv8UBNxQ2LHnuwzBpWpoICg9lqZ4L22A8EkBoFwL4KAw4ilqQVtaWFbPemD6Au0JDm0dw8hpfOCvc51lYGXSfHENyqQZZHmolnKPApKOXbb3tFZmLLUSewVtK5JF4sNV8Q2mqTYcIrYXYHkgTpkVWOUJVOoz8YdRSYtN8HexpCFekw44tAK1SoruOYxBOrqJ+KCo0p+HCYl0QBFlqX2DESQGSCJW9A8gUKrSIRypKfJhdP4XE25t8u6vs/169eT+PoYXvvRSH3oxcOv3Ln66quDhT744INBJSvRSF957TVm1l7PAOIBHAbIORvIyV5Zh+4wQ2YSh+xtks/IHfSeqOQpcgq4zVSWGrHpVmIubXt9R8hK/a6aBAW0VngXZ2Xuj8Y6xYiccTOmitr08RFsFch4OpUTysjKCzqHcxGF5oEAj+/ma+D1qKO40AleGqJ6OmSntunwGufvjWROnbPsrcT3rCSyaJ7PBbFSbcrNShjVXYzxlLImTG2wON+WHRimuvaj5S8AVAsbO4yHRFbKc6KcGcytD4DzsnE+Fl9flsXWIygzmsrUS4IFzcHx0OPoHSKC4EaNrsdUyrgf8oz1Xnz++vTcc8+ntT2rZYB4e/YRwtoWis2CRfMjqvALckXXrFyH0sFEZWKZ7bBeKcEWXSYegb78DS0cEjc6Ya6qvldluHMX5Fo2XpCF2ilwz/5d7J/Pwy2aeH0KRHIidXsr0Q8Sdnfj1O8mqmA+eYsAPtoHUmmoexycObqFg0KEVewL+XAS25yVt8kCddOYLVaF994QidRjea8TLLcPbCUXoystQONaevv/RJax/bLMYpaaoAFONlgusSrnXtue0H6aL+55mWpTWbLZwVIlt2VJg+S9dLR2p227tqXVlB63I8gz88xEKEP1jdptXp6XPUAt+jeM1EvNwBiUMcXf2zmACdiWRSfC3o4QzthzbmxdK9Hsqy9Lmza9mnbu3UVbjwXUzy+MqSp7NNrxxlxC/xWHDSsnp+utCspZ3Xr7jSxYowCOBRBlmbJLt6r2LMXljk06IEBkTALfYbNxzQk72XYTfeDNpNITAlNLZZ39cK1FDFns7TuCB2kR1F2msgqxHSe62H8+hfjx5EvBGcvTr8eXGqD9QXQHNUH2/+k//lFahDZnA7Yq+g4Va5hXnhg2n0gBwGNi2/wCKQ/FRppi13EQvNe5eF/++y+iQJgkpPYKXNEm42c8GCiu6Qt3fYnMLXqcGHngYHCM5G5BfJei7RxkLtqEwUqodhSPyxEQ5CvfvCsmQ3owbXhUqsoutuC5PGcChOun59kosnmU9IZ1l1+U1tD0rQBF7zzEuABY3MJlS5hJew1xRKug9NiR8IRN20QaBhweZLRRAQY6FOhXPZRppbAeEM/HWGEgE++R/VoB1U5M0txRFT2BbqcIQ0627JC7SF1KBal6EMRpxCk9wfvkhnNdc/5V/i3GxARjFq29J89Wr7DXyjjjyf7tB9+f3vSWO4AAmhKLMvpbS9JODYqFk5Ptdiu16KQdJmj7o8d/QhzSDgwqLlxQRLh++E+Xki0ba+uPpv/1//jjdMOV16PhkaRUNidkF2p+bipmy3FfZ+bZ8PSFbZvSTkJOaoH6DhrxbHRhow1gLkwqT0GcApzBXtEj8LkJ0jEETAnAtNQvTIvWrQ5KcM/UHQEsfI0A1SG/DVH8YQeJbAKYmp5LzmQZapXBE9gDa2LPhjmck2CysjbfJJl2UZtIXNT1LuheQDUtDVVlr35Ge0/tWI07/unrpVSM3+M6tUpynG2KJZX0skruZiSrclPtHbYbSordDwyiWi4le9hLZvA3HrwHgNgU1U7mw7BX8kjaDXHQlpDIgDMV1DYbqT+zy7oTs/pgEbWNyBPeb3qcGFiH0a6pAF2w3pr08DMPxwYEmN4Y43iWQvvdjhRN1NYZP3NC8zjPniY3JNrkQ8nOn2vgYGxeYKBUjPMZTfTLnCaoa9TcEKF70s2lF9JIQBWqfjsmg5q1WYca39KSFGOykLabBrulzeoFat2uT/+LgNH08edoDcK6LBqdRGFRnKg0GZk5SnxwAD9qVxdNfGCltqA0giDL1UbWGaDzOurxwIpwaPu3jCIZoOLKsZ9O8UOkPLgt78A7YzQoqy2wgUny7CfwYFR1gsmlkbRiHX28sFNWrb4A1jafxTk8ntjfxHzYQzeunwUYyKppBExpXbGIwGNlPWqWNaYOgIGmXJiIWs28gmoUpbZ5ral7Sbc50/zDtkPsNmLfzVsyPzXgehukQLKBrriRuMoa7RJo7+ZGVG7V+xYoXm3U+5sfoxmzbDnzFGCt5n+2kIbYRop9N6mAOsHn0UhOrXUCJWXEenS4iU29vZdVrMFI+NJvqi0qnciRbNyqs8/cHpupSmlG1ttBVE0OW1UdYBLKPIY22nCnE0+TTRY0+qXkVti0hSXAOyqPJ9F8Q45W4FKRfzPgNCfbVFN3Seroalih8aAliCE5uZbkGhbayYDClZ3z0yJmwq5YsTod6F6BgbuQRNqRcEW10wVIdrrx5Sd5DbWbytMRPjcPQ//QUbPIJDhtO2QIMjEmNbLYUaY133bTm+J5KxavKjvD8WYoQzjIoygoF150cXoEZ/M8Ug6LfEbKsw2koSCNf9MeHJsWXRT4udFOgS0doUhddtGlaM00YwWgyqRzyYWRs2TPSEPqpG3Jrh07kHX4TWF9UoRaia1DpFg1XRFZZLHvmeu0b3X0jOH5Un8fkQu7KdpUyBEz/ZgAPWvXkLFKLk3XGCNT6XQoN+CMLXczWGt/NhubB5bMcc0JvGpYmK09XJD8X7tPDpRz6GnBCPuR2vppuDZeGKLD3fPIx7G0qqcnbd72GukQdI4g7DNeWpwOkj7RzMjGKsIfkciD5T2vdXFqJINZc0OycfKy7KoA1sp8VKV3bdkZPL8OmTqO96aT9vYlugoN4Siow7DdtX0796GVP2p6G9gbLIhDsO9lC5lYRWSfiU5mH6tgVPM+Xf+aJZOkTxymt5fU1UW8rsjvjoixfZTdnvbs2BlRg3FYs8qbTQZqkPl2/jWxSSCbYRYd3wWcSK2zHeCVBCYyzcrhWuziDvJkBkksGsFUev31IVIFG4MrLJzfRXY5yVlm1UWOUN5HK2uwuPT4dbLgOwl48m/lnAAyRU9NU3bVRYvDMZzJDXgqRpl83Egso870PDZg0PQFSqdaTCvY/GrauHkrbqduOppTpEjNXS/R8WbbPI1MpYWLl6Z9TOdqRT4dQsOza6z2iPmWxr5MNNWLYdfcNorvDxzZmbPVYH3zuhYiK0dTgcCEPspaihcnocASSojtfsdQEuyNMoHmqeZq8YYDC8OgBwPqVWb4ee++ncjCevpogomsXW58mLUqT4vIvIXItv69RC1g7+FUVqmQJ4u8ytRABl83ooCcJWvcSS+6xnRrCTQjIXVwk+gvTVLpUYouS2jlDk22nsFRq12IhqNQZANiYswm5hBLPUhldMUJl8dMBXm1TFr/rwqe2+B/JwFvJqSryou2u+sAww0V6NpWpvBJheKCrM4IgwlB0oupdwLZbrW2ARmiAlVqUnGqBwC9+PTmoW0dtfcIvzeaEsfmRmGBapDmsUyiSajlyfvV0MZIHdQgdnihTlxDO82m3HNIzbzPDvFSry2gtAsdJOzalNGyojCW1ftdLz8b/VbBdZRcaHnlfUSJMc0RDvcyyxzgmFdiDDDjvCq9gIMdcrjWkeuKtUVW9J+G4pzHNMwIOg+Jt4XC0RwsGhPgSD+cAe8Ur5uNN3zUGfFOAUNRQ3kSOZR9AiaP2sbGdZGzrtnUNwfwWAOLkv3GoAaSatSYNLQcUROdItgMsOM9JgaB26ragLANHt53+BA9TxbgXUAI60ZSuUHjq0aFG2dkaBNOXhN6a3BU14P9Zkx7ip1oeiYyOUOuCpZnLZzUGH3JoEiRwPQDM7a0t4KP8x77iMlfwycKUoSZo5IJJcpJQs3nHXm4R2ZHRgAqPlRPOyatcK98ZCg+IIfn5+e1b/1uqIZbwxZtGA7g+C7wCq6ZLzPFdLONMXJ0Ho7tKlijgwgaUHCaMfbt/FSFg6JFZ7ksHvtWrdSHmiohckWPadZ2YlThBEjORXn5rdpYoWJHqVfODPEB9kaWhVqFE9nDLDK3ozAtQG8M5VvM6Wkm9mcWlEHMqGlnkVVQTpQ6sUiDkU7EbCOOJUUNUozY5MgbDqQdqprEw+Hvtv7VJaTXvwvKtXdlpam3KYb2hbbFv3QVVCEEoDzDPLE+qNqAqap9QKeMxCYnqUyHZ4n3N2GuaIbosrOjhPq2VKgS4oF6FuNQlN19B1CoDOvYjtgODtHtj6IbZZ5xuci6dkInMk/EZSnIPpwRnE8VmlQ7PswWWKbn5t7AVJ4ri9aWzYb/iQCb+fssyqvkBwaGseBoI8jOtE1aqDOQzLTVxmF5DkCcxDMuAAx5iG2yMvMzjHvJpQSw9p2UM4zrqzG8FHokTAX0WGBtNBl1TI1Tt2qIOti8w9ZVbaj6Ry14ZIPFADAphLDqsLHQEN34qKny3KNWTdU1KxJkQ3IIIGR3PmWTAdOw0zgYKdkEXJUwTWC/1KorHnwjD55DtNUCCB66VKfI0zkfoSmeM4L3ZghKDbbJfqMfmh4TtFIVGqm/j1T5Ru1cuEuua2est0m1Vlhxv0b+Z6sUUywNJ0XXP1k3gAyPDc8/1SV8/JqTbU6wED0JJvEo/grIIPv+d9AncoIFdKDNqT2NIYBlCw3YTeb6W/Qe49PA2yLs1skfzlm15ZUQUw4Zq1LllkJsT79w4RK86riGuI+ywk7wHYSfnKUQY2k4oBgBo1EeyTm5okZeK6uzkslJYXrMpC4xuAYTwYxn5bDNUkPe8zxZpxW82miZFJVRUpds3zuCsByqbFCloQQSyFa14cwKGEVjPQJbLEDpzmFw+mQgLc8qIns9VFthTZA22eY62K9ZZTqv9cV2QJUmJWlKiMIij0SivIsDYm3uKYKvc1xzAs+JHd2UPo1OkrvJBpqhsFHUXeaNcQCyEfI0UEw8ILFZOzB6tkjynhSsQVkc89TJ2lAF12cnPvm+EKGc1rhYy0GZVFuHXNOrL2YZXZ4i3zN7Q6QspmVyj0kHU/BMu61HrxXuYdJP9O1UedLG41hEPFlpaGZiHwCSY8q7ncYlEoTCougMEgbxeIacxnv4WiASO51CjZetm2k2DhuU4gq8x5LvSbRbuyDZ6NTkXpmtvkvbG/csnQ9wWilyQZtVoQJ4tna2E73tTASebrRwbldgFZQV+DLnlYFXflfw/RnAjhCI9hFaUQulvx6JUsXpVU2o+mwZbM1mhSgfgyugCA8uos8qC0aSiYPZiKYFo1fDXM30KL8H3vG+RlphCIAW7LUp1O0SCSAqRNbz6WNQoEsRUoqmT7AVf+Dw1FYdV6oBrplg9vJMQW9Rp7IuVi4AA7OzTAklhEML5UDKY/8CyFdMZlIxUfVX6RGIXiMAyYFTTuPStRUTX6C2Kc6EN6WFJFbVcJ/Fixal5XCbeYS/jtDPzJoPY0fmu5hS0U4rfpUlh4aMAXQNfc9fthm+3CCAX4byysIxUgfKnMTvWvvVAEWZc5SOt3VQhEk3JeTPBB3Vbd+k+s/H0Rj1zeWoewmKM3dENNe9RpAErOZQkJlDQ7ZRZKg2KQ1o5Tij65g1QCUtG7U1sK2OzffQo1FDGl+t/U9I47MvGGqJoUKep+apvLJpAc+WkniScjrikqxbNqujV7dWhHCkOg4luqaXkVWE8HMxVk7eBeDsYaY3yCi8ioeJRMN2+GV/I0S9LR3rQ6nS/aVzdAJK9GddYvPoSbqcHM9Woi6dyOQl1A5K+XSWA8DYcWjEdbDyJuKbJiC14JYbZZ8xqwK7T8VF9OKG7COvOTCmfAVA+VmgRlrFzD+e+HNQD+9uQNZYl2cg074qkeYGS/OQxzWWUTNMrZvA4yLLVIOawjdoRDha+sLKFNhihpQphUgLWX+rCoVHt1QnLrYhYmqCXDnlgdabe8lCTSsXK3WL6UHROJ4ywOomOAi1Q4s/3J32YuYilU1mSsuYzZYFEJ9Ttvn5XAjD9/COZK4h/xApj2K7abpozxYAlral5cpWHsF7o5dnAc+LoqGDydDVKDILidAv5ss+bYeo7zDCYCm4cb1MdQwLIaU9a+ukV3BOYzysMvI7Kyp5bSfCZObvcwJPSMdgQD5RH0FIN5xzLM3HMJ3NMiqnU9nPq5saNWvVs3aYg7ZW7IThroEN+xXXBaxNRms0+qlXaKH+fJwaAlWIRjRDbTjH4BSRK8oqnbrB9vRVSoEKfgSE/smwi2SV/D3YJVQVthufi3Rxv9hAYCxfIpcAk7PoIbEoRI7DDeJz3DKe5XsKIAr+d6gD5QXq0/1lvM2hx5MUS1oLMYGHpIAIqAIw40RKGhYtiZb+DSAWeI4DHncea6hlqkpECYiO685oQR5aqFmLCaYmTaYIa8uzFCyXdqRpZvOnB9+cwFMbkv8rVJVnussUOvVoIUilSKgpgo1mZ9lTM3IaCfN0tVPximlgVrFTt5zzYwTabj9is7Z1HTaieYnRyp5D8B4Of+qiclQWpz3ngMU8FElghKoR5kvOacyAsEpVAKoIRVY0BywAY+4QSCCVqqFqtEdNnDfh72G3CUFeD2DyMXWsGEzPvwkQRwVqVJcX363aNTf0KEUqtp2ypaKAMydHZDN2aIVRG7MnlMFhr/HdYY8dUKBeHT0wUQ1EI4NFUKZy312pqEQNIBxO36gcz/S/ULLmuOYEXuRTonBIJeaS+E8gKAsskhyFjzfCv4MdQoX2y/Rxh+kP3Y7tVjSPA2N9GBYhC22iVW8Yuioaqu7IvSJyzoO2K9IEfF+GqgnRgmEeMgwMtpmcrM1NWcPn4UhHFUVEqtF+k4DCQSYV+ZoUyee8AmgAyvfILlXflXHKv7CbWJNrk6JNTRg2A05jH3a5/9AhkFeEonkeaxLp9F+KjCocBpEXkkm+dNXyCPY6ScWZCnbQcKaRmrVepA7aPcs5OCpMDHJZKGcbheN4LiqGpleWaCUSwCNWWZHNFfhVRIG/h2JT+cOpvkeeP5uUKuD0If88iogcA0xDNx6UKrdxsUHCH6ZuC0HzR2xbMYlAjz6WaGZdaGJFgCFwbKkvllcMb2WY8tAE1xY0MeVKPZTnpmKhocSEVRTBWJXNGHoBQGrAWLHXw3eIruzJdXkI6iGZ5eYdegCyx+w5AngqJryW76wtlz0ooyCI8+6GkWGGjKI+n+9CX7nsaHLLyKz2WbZseVrMiBkp0PZZ0bKEdY2zZ2OGdRSRiDTeIzrZlllyezjhoTT3yJqivh0u4rolApFsrmtO4PlBgVcP8OoAlMa2h1nRdsJxa3oA4ZojCOZ2MMtSYNPiNL4tcJS3SykNeGakLKMNo9T3VaFBWqOtfVdRjGRrRRNWBGpZi42AsJSEb1NOFPaXfk01N6hXbHLerGxVr002wLM7Sx6tXIupyMcwL1Ni3NSzUQbCL7XpJpBxTmQuQJEa38o37To1X53FekMEkJW7aojLFi1OPStWMQt2XjgYbIVcgttMkiNTBVUZaVf7dV9+tz/MUexkWb+lBCbqqmiNOYeIdcT7+IznIdbF9zmuAF55Oye9LVgLO4zWvDQTMCIdw3+VPyQHaYi3mKgDAehdqQeYJTOmuawsmqQ9sSq7CkmB9HZzLtVIs1aQA5v1sJxgiWWZplITs4JIprWSViB5zq7DOoP8WQ1w2K6bK8uskDG8MTfVBoFgW9qQoa94BnEYea8a4qrlk5pBiAT3p69VuWlQtcA9dc0NEqecAqACz/IvqUP2ama1kYF33Pbm6MjkmB10fSjHNHj6vtDjxTS+KMCE0sLDAqBqGCttFyWTgEUaOYWXa5GSvQSiC81b5u8V+MlK4joOrQCe2pZg0kiVzVS+HJ7bZPCRIXQTYJRZT3UKd24E4cAa8SiwjlrbVVDZSSSIAxabkHMjfYR+FqESm4lI54iYHyfLpOgfHq/7ySHzTVaQQtkqPlaQqmHZAUjjvp4NBbvBA+PrapkGbO0U5CANoxy2zMqqNVF4bU0AIevROB82aMr6Iddgo7JfB1KEAY7BGKPOQnGxWwRVwDzTuUHadUPW/gkYgGa+iq04zDftYq56J/Jo/aq10YHe5q1mfpugZVWSbNfhjjZPaKm3ZMvz1R42ORmvEdPIjNrXIAY0AUXmYO8hpLPbUIqVKlkaa88E5NmEqUNER5kbIieAyXUMnscBG69zTqGIVDXEKgiu+mElD81w8IzYVlBs8WB0c3V3L445AVVV7fTugmKhVh2jBd1ZaFBycx3HgSAsTvmkn1MD2uRY5Vj4KkEA3W5GBWqMekMBNbzPyLbP0/vjnDztR1Mogl2y2zgs183vpt3pj4xwEC86CzAQD0w3eUqWbP5JzHPlNVnaAOxvRIWF7OWhowNho+mOa0I0GIlfQlr8fCivA7u2wPubMYXYXbBl0yb0DIn02r86NGpBzFDIFMqsLCqAZK3cV9vQen1t2ay05fdUzjOo8DR8Udo8g8xzohRpCQ5piv5gOkylkOwLrIZFyJbi8OFoOo77BmkYR+NRmBwLtKeKQhgbEUw33U/HsR0f1JUy+6iow7K1bBjLGgVmePYFpiyHZ0So55j80o6Dotwg3/1ZvAvAxjHByfic74+GPLzAyoOSNU1k5/4+DvDGOPAh2Jna5CC1h/29A6GcKONj1jtAXkD6RRc2WxWH3l7fGfZaJ3MQBEpXO75ObT9cZGq9+jc9ds0T1+dXaIpcWRSpOYu8mC8Qhhp87JdVSxaqT2G7xE5Of80NPFZgiMTsOZ3FCAcWIlYLLGwS7huGpDmaGJhRbEixv6xpGW4ia+BKNvOWfNmOMTljd7U2VtUAD3sxC3VZhbaQ7E5/qUpILRhpBpZUpEzQuxIqPfsSmFlb1V7kNb4ypgrLMiD5XD1YX4DiTKNyfQWcCDYiF4DjsEr9k3ZhGoCKjrDeoQGScomUFJFjk7iyuhcss46G9osLwykha7YT4nLKzdQibRcyRgzPuXfm3EhxNjHQThONzLywO6ByPQDI2rKfM4yaoLisAJa1d5E0KI4LLnFc45wNSH/LMk804Aq7qowlfkifndRUIG5XC78WoxwXps/QVDtZgiiknLMHl+xAoe6sPanOGULTJBx5WPVsVJsJbzXvlVUoq/ScuIyKAgLrY6NSoGuROhp5fvQvYfPRtt8NyfMBoJ81e037yPd7hVwof145FK+zJvNCYlQ2r9maRGewyHeY5t9S3WFGi/YzHmYSoOljrUNGtXUuprJ3cVqMhmzNgrkrso5d+3rF17RuqeaBJgt2KdqlkX0btGrXmZtjNZNX1PVBWZoKIp3Uqg3nWbsundvRspH3ypHCdAGx4n0aMSBsRcNXufLys2ekPCmurQtXDrmZFlCo8dk8JtgXQNSPqB0llbt441ZNxOF6D+1J559zaeqlZYfB2AnMBj3+ArDEg1X9syhWSwQMAFJMUyAHWERSXpNS3ZXGtpFznQHajEJPr4RKViVoOVO11thWqfGekyCac9XVLkdhdyOspQ9HgspFPxlje/fTV5N7okOxL00jbDiUku5Fy9CySezFR9YKIjbTN3RwiJaQrMdcFXtEG5qKxF0QKBzzbMp1mJ1tToqZ9pYKyAJFTGW9drOhJBmkAPVqoEFfhcpEXgF4rA9Lpq1434wfzwA83mwTgTEiAd1LaGmI4jB4yFlvuq1MV+cwYZOBZfw2gnvLmbEqKTUt9tk8goBfTpO0IzGi1LCHCkUoVrxfYR3GsoKT3/P37GjWLooiQ+RROKVBGHNKmlAUTLlXAxXC4rYAPLax8s/cLABs9phKyRgA66UkW6+IozsXMn/9wIFDrAGu4U44YJ9nauE8HOT1eH+6KLyU29TA4ltwSlTBTbpNzaAZeSepfCo00TRHSglJpavQIlQjG1CRlBcMgc8qbvhJThDcSeCJ/HzByoKNV9n1vlyzqOklm5/rmpPyuF/krhSZnny4ty+NcIhNbMqb5p5gZD+R+dVEEUkTRvjirnqyzPoCM9Ga7YMTFTeteEyO0O2gDrMgUujdRtiQbst//uABZu9CRXaJwXokRJII8AI0galNl6MKspAsS0KelCk0p4dnTDc9wwjAMFkA+w5KYRPYaA4cpFUkkRFHzyiLbVyKZYCjYQGvkSQMFVJMlJaS2dyAml60Nh9IGDi1RXMJG7ZE8wKbeau1Vdh9PDtvJxzxchTZqntROmUlK8s62b1cY4z0wLoGIg6eA4B0/7JS2e3sq2z/lV88BryZLKfyAZNxpvGKtGJwOiXEScaj/UNgiMXvUBJlJCMsbIpmpQIahyXAxLg25wRNlC5UaQT7z2JEA63jeBJqiEJrEmi/WO2j61Glx8QhG6pJARYnZmM7Y3WkQYDBElMAWKqE1QpUTypGd+YjQ6bl2vJIf+AdRYpb9CPuJuVQ99rUYCGtW8ccPcI3tgJxetbiloXpoPKO507St3o5KeojxC/pz5O6YHEqS5O4+kQER8v40JxngnwmQmJqiI93RJvKnKJEyon1cT56eCIJF2ye5mysNGrivqYLKsKkyip0CW1bs8HDOcaZHe+AJDqoC2QbW3ekWQJzUx6ur1YczLYQ7uzGBUTuZite82kWbKdz2Y0eft3x3kxXWiQIgbbh1yOGJZ3FfHECtM1EHlxYsCn+VajF2XQmKymuzUURkLKb8KGys1A6JCx3KbC0+XiLGCqQQhlAxoitrQxy6qUmQP48QI2ATRZ3Mbfduj1r795w2VU0S10JO6SQBOdBZ3c7FEbGdWkna0ZBo0CmHiqeZ1uj4IoAACAASURBVM4NjneVaZ3r1QLGZ8rlAFBW7BxVgO8S1iqHCHYOZxDpW3QwCOcy64yUCpUw0Yx9OKUaIg2kM5tbmS4Smg7pgGX50pnKmjPvqpDaCd8nwLJaZ8rhCjt4aC/YpItHIEkRZIXBdhz6qzpu1ek4uRwOXWqhWN9aM32FAqaeg5JSZC9GvkPFCQTmFzDTDkUCxeypXE0asZnMKgVa+cvP+rN2m+xI4OuCilIqbKULLr44jP4m2LQtSN77nt+ITnyHQbo9u/em//m3PpSuuOTy0BTbyeoil41SK9bPWrqIn3WjnK1aOI8mPY6yIfFX95GSjEPVuNfH65cO9CYCzs3kouiDtddYGzKwHkPexCmTsSxpUzN0mwIuAs98zhCYCpu2sf5NXYpq3vo1lX+yUWfMev2j4nmaZ5oA46Tn5TQGfH+RUWaJF6q+wAEjrRoNgxptaxg7ymIUF9LgDVi9ignEFgdujE+ZGRoibCo0rAAUFAlgVI8bUW4iaZZDk6eowUmp+b3iQHY8I/qjeEOC1Eep+q9baj8tfjthfRoDR4gAiPGrV68J95oNuGvg16a1izC26vDgzPB24K8N3awtDIXKFlSwfROxXLPs0T2KNM3U71kpbC9NVRURV+e18ljFJcYH8N48zhXA8S4BWDCRCRYaMlCtW1nOz+7JSx9oNfvXZRd9aea4ZrHNE+WeAlZNTpeY4RmzqsCz8ObrLUEXjyMNXQG2qVIh1rgoXVVGImw3r3ofRqqCHWbuVjyMCvGF5wQ13rhhnlpsL2upmQ1rW/EJG3N7EO4xXFzcPzfdYRkAehzv/75n90a4xvvvfW1fenrjLyhDK6UlixeF3Hr5pRfSakYIrGQEeGiGUI/UYUfaZnt+Mk9o2LnsJMYKIF1YNchx5aiKSJF91cB9dBw4Yse+mroeOSb2TWcHyqbVvFtBgAnNE2YDici6xNyDpeCOntMJ7tma2h+mFshtWqWnY4mAPWmmub/PnHm5ppyZZ72iCDbHpQa/fPlqCv/xRjA7oEkTwIlasJuiBwmrNJIcCgSKhizEgUumPaj214XNBpuUenxfBnVgmg5mSSZsINYYtetcUocvqJgIXBUakcN9VBKkxExbKJY/GJ9DcmUWqqLC8y29UuBLF5ZGC1BzJWtRSJTBZjZT9wE1cJcgfp6G+69B1sfDXI2yL9h0fNrcAbwivKfZQDH/BumP6eIUI261YyF15ux7iOZ6YYDHc4mN6AB3/Z4BOB8dDkX4eJE1kFUWZkWcibKRNVKqHY2FTnN5SnMCz8/ZT9McfiARIZM6go0ysXB2833KU/WE2VpEfuOgM2WUwEBX44Oyf1I2we+8x/q+UF7KQJAt+tk4DDYRG0OehXCHMmU5UnkAXO0NQJhhpczMdh6fwU1vyoJJT2K3qpFv8YGyIZaPVgxGc0Yl5E9wAZ4n5WYkDz0vuIbsOJ+wn2fNfsUrIi0/cAlkKWcCw1/lQr9l5NjEHvnyOfF+zyXfw89F7ky+hcuPPUcOBtc0LN39EqYNG3Wuaxbw4iHly59AABYin8/kb6jHw/TwA0VYBE6cOJw49Fgo+MnBVtw7doCN+nEWAqOLjWQzwI8IzOCDGfCCsyz7IkUPjqlwz0WdPkZ3Gk/0+XxGH2gcT6wng1ckcQJX5K6gPZqlrGbqVQGSjNsSbJduIWYAju/hSBaZ4jm8Hw3JA5TTeNxRheSbA6HCcRVyMrM+kMG98XcpJxvjopv3zKIlIBbrzuvx/5nhZKUouJOmEu+ze3VFDh5/9+yfTpJ5FbnHfdCMPBJI3v3Aq4uaBWxLyggWgsvMytPqGhpxozJPTo3gTsK7oC8P1jZJPoboN00DySm799lzRawzkKVJimFsN11oO5sFeMDH6M9Sy/tbSC9YvdQRN2RkM14bU5J5CXyKBgE1HLzxxILGM0pTAxGP3Tu3U8lOnglfup+mTVmg31kRFlENJQp0p03aEcIxb3YdkDWzuwgZQa8sVSpmWcodZQbOCdoYEnpYyvtBhFoa8gTLYe2qrDSvq+UZVQyWqqFtZM+S5VGu7Li3SexcnafNigG9J3zM15XB/fRYGcKu7D1ygFCb1oSJzCY3W3RizgumjxGKCtadBnpzsk2PWAJzH2J3hFf4ErMMZuqgbiWTesL6dOdq0X/MkSyWbRXJZVNhCWeubauCOs3xyP69jHJx0+D58SzsQ4syWukef+OV16U2knOrmOe6HwBZvLivdw9HzlzZ6va0uosyahoIOsKsCeCtP/fidP+jPwhvispDIxRbRFMMPQ+7VHMnPCQAYQobtYaG50E7FH/qHHCUqNrkuG2R+bkm8megYKZR2rzGevRqTQYkTXBBjwbE1UbT6f6mW9/K0A/mt+OUF8e15UdhzT5F67YhEN/XJ9KFNRekSSIZT/7i8bTr8C4AhVjiz+No8hWFrA4CmMkJ48MnXHMCzxu6ULGwLKGC7N2owNB1Fn1DsIfsluST69RKiZbLvnRJZWe1rMMnGwZBxnA/1JtYiveRMSknLeiwBPjKKzbgqSH1ncrtg8NV6eHntsDSHJiIMtC0khHfben57YfTfMa9vPH69aFkjGHOXHv1zek7D3ybPiZEMvRkwC1ck81Tzdqe5nvRcdfwjRjiJLuGOqyt06E+RiaXqXrVxC8noGPTFqYBMvXOPF/E9XMKMiAjRQdrqk6XX3llRP1DTnJgmhkNQE/Z3MwzGiQ77t1PpnUHc9plhxaq3nDdTenV//aXwWrr6Y6vditnc+6fdrMfm+uaG3gedfB3sVdPB2sVmDBtAeiUYlvLj9LR9trLbiO3ozPd/8P/RodyveqU8bIRsxukOLm/3Q58zYJ55+L5mmghZ1G5iCmYsJj5+BedM7T5yHj6/nM7Un0TTXkGM3UeHKe7LUBcQHfdVjb3zXt/mm57wwa6xralNgxtS89iJh0Za47xFn4eqJyCqegoShwQe6jGoV493Z4uXXs5TXeWwrI6Y229jPp+efsz5Fbup0eLgCaeKfuy2pYCUJHZ+kMZifK+hCdpycJFPLcV06CA0Y8mia+yBJ/f+7Pn0wRenaN7e2GRg2k//tD3fuyjqXnlwlQIW26aPt3LcCIcwn52mJRmURYr2q1B3qe5/NMs4Ll4AaOB7c++QTuoChkSpbzKuohsK/+QXzx8kuDjkq7V6eIVN3EYLemKngNMHHkA+aB6LNv08PQ0qNAoJ9XasBPjFPgd5LDcStK0rMS5dMpWuCsNd55PhWaau9ExosjgYAO03qmluD91Te9KB/roddawMP3oiS3pzjuugALN8bT/M8X/tlImgu9jdAzDB9mb07SQqVQ5rVl+SbrpotuQr8g0vtQzfe9Cmryev/KctHnHxvToxgdSXSfUWWXKO52QYNmxn5CUUmCWjToqREQnczmxq5HnPvkP30n7nnw+LTJLrqYRrw2BW8e1wSGdGM0HuLg31BAdKDANcM5ktgnX0uEwS2EJZUZlxzNTCTtD3qa3j6ColOKD4oWgFTaE7ACABdruj47R2pDuDqrJV116fdq47ZuptsO6vLJ8K7PLcKzqUIZXTSPntAJV6CfcDD/Vcu8pa9WJtD+7uRdZoOIxjBLC+BhmqNuzZMHIrtTDmLWjNDAYZCTooisvinKtx57amt5+6zrWp6Zn5phIwFoFnEoGKrh2E29l0MaKdNV5N6NsoWiwjtAseG+08LC1I0rD+St7iJxcn57e+hPuYXS8Cye9XMgzz14VxZglZcJBxS0cGrDwSSLxNXXUHxBaOULPmAU0Qli6+pxUGiEbjbp0zSv+z4nySTkway6SiSCbFTks267TzMpi0lOfcR1/cU62GfYKhxBD+KSQwBSpRxZk9hcPQ3s6dHRX6hvdRrrbeWnjq0/Q1Z3sMdrsq+3Ro4EHZ4CHoxUAVPNdQIa6zecnTdQHm0xWtTwayZJ+/graY6mdFANiZhxWnXFDKGfF0U1p7KWn0nBxYeq89BpidEcBAAdOllpdEniaGKwuPD5ZxspCpFkVoilY6Yb1VxAxcLAvthQ9skP7Zy21AM4mBk1MhrYR3fk9G9LjLz6Kd4aPwh4tqMlsPnc6yv6EDDxv72EWuE8TUZgpNOb3/v5HU/1yahWinQiN4V5+OY3jsTFTrMZz1PQCuXSuF2nMB+q61Kh7qLN1vz+XYRWcMDDn+BXEe7rL92Y/onEsDhpgaVsFJbJIHTRj2lUNzFB45u8BRF+qah0DkHjzPVCw3c/Z1smuP/r6jJ2ZaFtEoMei8T7oWDYqYOVstK+HGgcJ5RxAfR5gcw20teg6zMQtWoDUPP9kqmXY8LwLrkmHmSBmiyxuF7mTR0NMqBBxDzmGtiKaaBFt07oL24VIZfORzbUoKMbsyGnjiwgAMngaZamegYtFJoGlKursYJOLGNFWIJSl3MsZ2xJLWIrSaxx3FJLyTLXPCONwbkPspZ70CW1NL2FRRPsMzxRflR4rEkacZ3ypVful/5QPlWGVf64A7jgATwJeRHb9HJ/QQ+6MHzesPROtcxngpNfFA5vG1hk2DxKS33vk5fTc5qfSBaveni5f9R5mnUMx9aTSebBgt22Lx+Et46j/k/SmjtVphbsxDWV+dVk6cDTn0ZtTLUWJpWErjEhqOrQlvfv2K9IH/+N/Sr091zHcl44Lw0xLEQn6AQ4Tmo0PDnOP3LgGSsFU0FTRaeCge/MrR1n/4akjUAhHr+zgqbUgog26eRefZo8AHNBCZ9W02jrM+5gj60QxZJnqaRW+zsRUzNpJNGLicFN1I/i8eA4bsFlAcZr3N4Is9h1FDjum1N49dYwswBgBafGNIhqk1XBU8GQBb1m07Fc2n1MgygqSnKEs8yr6iLJvTrYZhwlGBNDYnJhssaXGtRM7qozZAUi1x1raUzz+8/tSG4MAb9rwRhY0nl547Zm0lg4/jPJK/WP7gxWNV3sYQzGOGwHAWVEVGwJD2WpPE2w0jrQB1lzEPCjiCKhFpr7rjutTy4Km9Kk/v5ehwOvwS5KpBSVZ59JA2KqEotAWfgCp3DXibzR1S6QAUVS9w8NDyvmmrS+l1tWrU6dJsQqWLLxCg9RB3IBiMQaw9o7sS/2j+4kguHc9J6pd+X7WF6h1RpNUWLqIUAuQCqTrm7M6xncdGdJdFZOqX35tT3p1c3+6vnsZjgf7jMkjTD8sUx3QC7gpUgCMZyElzrxmsk256ZzAi+AnAkEW6cLD5QUQlVUmqjoz3I4GBZJSJ2oIwEwPp/t/8tX0puv+Wbru0l9Nl626ARWe9sQc0JOv/Dj9cOM/pOpm6vcUzsgEDYVqHI42IPDKiyWpCJts3cp5aWArY92wI5cwqPfcdcvSH/77v041HaspG6NnswCHXY2RRj+fvJJF7TSIc0PaRyonsHOWGewpgKcsRHY6jeyHP/s+bYMZg0rqhprnBPcwZcFS5VqM9qHCYey8kfSdh/86VbeNkUU9zChUFCvuUTYduacUSEWPajEIiEoZeZ5aeS9v3EL7rkMgIknD9Lu++55H01bG8Vhbfy2ZBtq505gsxkblMuH0gBhkwUbdKyyUn2YB78RfTmKbx9+ggGRd3MxFRDtCsUGlBUytRNDHSQu0i631sdXdtNet3Z/u/enX05MvPZJayW2cwpaanJyXLlt/Rzqv51pYhl30jAUiWyZJD3f5qOF6MUQKCw71kb7t1ivo53kgLW9bDuBuSP/2T/8GBGG8NgPlp2smGIhB63+eWo9L6/DB7elX33YtJOHge+6jTA35zDpV39wI97b0OMrO2krpb+/7q/TklofgAJQoN9E7rZp9NJHmXn0gvdr7TPrCvZ9Gm2WY4UQv26MDO+nvleTZKthapjwSkTnfahBA6rXu4t9//LPpL7/wXWS2I+V4HcTopHy5muTP5nZmJdElUYYQXQ7Zp1q39HncLJByRXdpfPZVcV36qn8NysuOUwVvtiOCdKE6gSVWKGAFng+1dEkHrh32Chq8ei2K2FYk4xTwrts4jq5i6YnN307PbnokXXfZmxlge0XatXNH2gi7mnYEthOOC+VcfChI/NP+GzNPlNHT49RwdzQuSL/17pvT1/7uR+nH/UdTHbakCbNNsFw7L0yjAnZYyEi/z/f86s2puwP5xZqjmgeAGQd2g+bLFLGZopIIFj+hjIKy65FTo7UH0gMv3k2U/QCRcIK3GMr7+xiZPY28brboJA9aHB/DDYjLzs60misCysM1T3UKO86DN2UwXHV4dw4fpg0xSboNRGIknrfdemW67g2X42xANCJO1CYZOGvMiWfkSZ1RFOOtPQtldPg4ZY5l3AvukbmIcNIPOifbFGkFVlTRKBfYdrAhfoo2Tn5cozhKg0118OFw8lpdUeRFctAPvvi19P1n/jYeNlWnkYwyMK3CQsTdpcLWTW/Qe19LamFf3zAz2YmH8YzLr1iA2XFd+sxXfgAWL0lLu2jD338I53cHY2ka08C+nen3PvSWdNH5y0EsppQMHSJy7vxx3GV4OyxuNJlJhUDgNdYwxpu0vQZMmXESbX/w+PdCe+6gxmDPYO45EzkR0a7V3jJwiHEOebINZcM1q2CxYO6lx8mIiz7Q13e/mpYvWs4k5nnpj//kozSmG8YJgOPVW/H2elhiF5NYSiVLo/XY8DeTkKGGHbu3p1pcYyKAuT8memVHhoeZqS+DUDAevxQFc7BNKLIs7wJcYoaAAZBiiLGxsVG0zgLlzCgwDWBQLV2MqsetBkWjZAS17ymhkTa00qh7CkUFKJVKbfyNJFywtoisi/WFEkTrKsqEmzrb0rce+A4YjJeEcTPnnLs4/cWf/ev0m3deQk+TaaZqtfDVmN77jnPSX336t9NV5y+DVVLYgof/4ScwqHFjaXLUIQ+ncRJrosRDUCDqYG8N1W0RhK1G5pqKaIKwjcnroALdeDYVqAa56qdo4TiCEV8grbHEzAWbX6NMhUYaiIzpgGw1reOxpx6gpI3KXpQlq4aWEIQI8wTONM347Sn2po0ox2kiAjPK3sdrx9Mjz/womvCZoWBBjP7OCKwFm58NrFP9NoPyKvA9Dmc/r10WeY3hSVDQaoWxD/5YhJ1MO+EBFtSAHKrRX4jTeBJlYRoDWbdUkz8TKjINYWwYI1gbClYT9Q4chQa/RrvCo4aD17uxv3d/+uxf/ud03TW/gsHbzfzzYlpOEu+C69YQalHR4QAnD6Qju/tSP6Oy+ob70ovbXiHUAjVzXxOiipNEOexZpqLC7VVY7GGGIh+KTAvtEjExsTNT6qaat4gtqSlggYy9QKdwHDSjnTist1QgnRHuYktFkcwTyKEhAAardEj4F7/8X9Mll72BBguWqIHmIG+wQD4zjWyvr27lHHFu4JMdGO9Lr77+atqy+SVybUhiQv5Fe2XFVQBNnSLbg/52KjjKOgN4uoyCJcYnVU+ld20vncjkbvKvgGzLDXOMXxnC4L0sTPV/qsCYbIDSQjPvIfpK2rrJbn91eurt3EdMrmaSA9W0sEWCMoKHyx700keGpU5pDhPdj9eo2uHv9z/x9xG5sL29nnaDslFnzgE6qibXAABMNmAqQqAD9zRKr4uthJcncibZXw3+xRLJR511i1PbNC2SmXyZI/agokYY+3F9RkPy/Ux8hZKgLl16Zik4UazCrETOiEwo6xAZY4SZfrbxYQBklStmAgjvubKNyPQ2fGaejyErOyRKAW0ATl1CB3WcvTJNucc+TeadrqSGcA+BldMNWQE3ts/ZnGyzlps1YwQ3Ygo0soAGVHS7pjfhNWjg9/oh0v9G6N7Q25QumL8hzZ9amdY0nZcajrSmxsOUOA/hZhpnJCljt8aG7PWMxwEsjAAnrFNhr/an0ztG36gAYLtNwk5lO6oW/t5zbk/UGxQIxHYwe0cHtxED3UzNDCGWmlCt2DAADe0tzHw/zUFIKfzMXhpBLkurmxtxjYEmtdiaMYVlHPmN37IKajMDfJihiQgCgIM9C/fw4PTQqMSF+STiCRWu4KAcZuSrwD3m0RFCQC0k9AM2hSxrJH+1jX5tNmBoZgiG5giqAjYl8btYnQE3oKalXmZ8mdry/+NBp7jmVFhCy0QRMBNKw1dWbFvCzJKz7CNPLRJOu3G+Vk/3p1UrlqdeAqXOP68hX3wcDB1g5rijzJ599hlkS3YfiWmy39g8VwzMjX1k3FYHtdbNzGRdXZ20+Dh33TlonDkCPp/uQmL2IPUR3t8aAWVHUI5+WG6Ws6q5J8/Qk+EUzhZmFpx//vnMxdsfwyk2XL6GmoUDHGROAXQt55+7PsrTFi1ZQA/oQ7TvOJoO0UA1KDIvEaCU78vNlVEVjV3FzDqItWvXRl7rCO679evPT5voAHzh0otZ6xEahR8AmWTjZa/VqRijgDzV6y6wfJ0eeCxuAgVjCO1rFIxyclrOx5SG5eYgHErT0NihSJHYPrSF6SA7mOZ1hOwo6uBMIgWbj1BsYvFJPyM162owamOjGdtKsJuSVOi9BGLYZHzjZw9Jn2cjI2us9lmxdFlUqPYfoT8zpcWmWtgtvZ0u7QZFZXlmW+eS38zq5DoZN1TDc2+VDnpJb9+6CyAjZ8YYzHSwn++w0/buYEfDFljyjCaqfo8cGoiyr3nMvBs8cjTuIdVJTSJebgMSL3E2ICMOCyuMzKDetu312FcH9en79u6LcuiBwT4C16T6mg7Jsyw2iexw1unWrfCVbYZ2DOtQBMx1BfCOF/jJpzMnDR7L7utQCFobmEZiNjQPquF332FISNZWg5fCdLi9e8yobki79uzh75oAsFmcvXU4e5kiwKEq7xwGn+WpUJJ1+SUsXabWk/LCy9dMoR+mL9ngwR1Qt35F/16TCG2GIuB7RzEP6pFn0eTAlQn4MvV5J/OQYv4B3o1h+lMPHUHVjKP33fg7B/fGnvsAVEWmOLFyx/advCGzsr0EZuvw7eZUDheW1+jZhrNC5ic74urd1xdAlYPIqvurSfrlLLQ7fU0doRH/rpRnbqp+TNm+qReZKDx31KYIVptS6fqPx/G8d0X+BfAqD575XV7cTEvBx77+EM5cmqMhT9QmazDIXewU2qUBlxCqse4M9GxVZQCpYMT0Wt/A4iI3Mt6cv8IbHzScgRfaZ4V9+q7yW7Ne6nNFC4Hmhmbeq3IHD5J3l+VSKAA8U6Q4Jq9ina7ZV2Wtnk4sIcJdIqBJtdb+RXZ42T8af2dBM/2LflDtNi/UR8eTYo2+ZhhRgAQsVQB9r3/1PqEQxo5DNiulpT4p0vZVhlpH6UOdy6DzvfNeXEm+TmKbFd7t94nhYnrl6c3hGY/QB5qXoRQPPBKQ/CdwZKMcUsAwlu4iPehAm8qz8l8DIuVL9bIMPF/JRx+3i58jXla5AsO5Z7DcMsB56djdyj9Ubl95bLx99hJm3NS/Hf9jbmJgwNaUD5wGlbT82Z84+TfXWwHMjL/GkjJOH0PE4wvmTwKPx6vNl7eXz0C9gi3KhMIPyloCqU84ywDezBf9uUKaZkCpYk/CHg0cToMR0+bc+TBsLe0zpE1gUrZLXKyHIQDFal09M4ElDVUuT17VPrOwWEf8KYPen1TFAzFA4UjrcfEBjIy5KjIRZPUl76w2WEaBUCIC5TOgZ4C5/CBxP+81buClWeEjAV7EA9E0Zy5/5sH7dp8VRTM+s4wDMylTVphZaOXdvtcjD7Q/tj6PLCiRv1j/IZdwjM4YkRIRqoKQmWJjpXEF8PKY60yE2k554JE3hKCNtQkKdlGtLzNWycFopfvZ+H++MlF4YL6rArTyrnxL/lP53f49q/HHblC5z4x35NsIgHKAsnyf48AosykeHrIWY7eCjKZBBBsH6ILb/3KFEyIAuahD3OM8drlHfrcVR7xe/v3E9c38PQdyeKWy3Zl/9HmzlI68j8oWjn3EHyQAESd+xEFPFW6QrexdmQ2a5Lq8SmuQWTXplVsFGsy48i8BmPjDrD/OfGP++Qx/PvkDJ79y6luc/GoFSFHXwIZFQjU5awE0XxymZM23HQQrlTkRm+SfrEgAnhgzO3k1/71fOXkfp35C5X0zeFVwHgiH78cSkPwlC/QZWHjqO55Vrwqw3KYxZ7zNwwywB7UyS++IXMMUQO0ugWUt+hGa28V4HXnDMZZ6Vm1rzsVU2LJ7DF5pSN3NhR3zP9AlxQkI/aZOXfbqo4GdTQOiXwu/a/sZ2rLVxpIllHdhBrz00ktRoizw/0dC14puUYFT0KQazRGyeX0xBL3RBH8+E4v8JwZ02GH8q9iiPl724aRl2eEh+mLadE7AeUldoanxz0Slrdu2poMHD6Ybb7yxXDOHVCnf0z3PvO8/8dZO+zgRL7rWl9llH4lYXv4ewMsaaO68kLWbzFfd9Nl0VTaibKssbcXyFcEiRb4zIZuHsHPXzrR169a0YcOG8ITEQfAVCoz3PYuuEGf8kzNWHAjK8gAcHopj0jB7wnNxfnwkQ/Qs2kp5KeCT/k6XLqtUnh3CTWZB5ZmQTRbrIezevTt8rfNokiAS2ItFyj0br4qm7H5l9ZVSaCyI1wJ4ehXaiSbLPsNVBgs5pl6fhTsSSFLfhRdeSOeH3qgNN+/zTGwvav/4Jyt98YUX05Ubrozgslew4+O4fFbsOmxErlgXMJHiVMhUwri+HcCzVRNIiaywPto8elRoTdizjPpCQYFCIl+fdd98881EB/ZG8q5XRROLX7i07szzLud684rmhH7GKvpGk7hLgpT3EZiyUBWYs+nSfRGNDeA0mj+jUJ7dI+Q4wGYsgLcUj72AMgzSjFbWicrtQZx4GGfNxjhxucUC5pvb/UGX2S9z+AJJ6hMBlJND5LvIOt27r51tlKcyotroXh1ZJ3fxtW46w3uVgbc0jFmBZdKNb84s9JhIPCvgJmuT7QkA16oMiE3oi/wlqUZAVYR/TCkrc5e491nGaUJdZJ+ySanP8FrIeuR17Nv/0dn1M4cOHYyemnrUnRZZ/lx8P2uustMhlAt+jnYWsnizfc/PGwAABuFJREFUrdXIziCzKtpohaOsW7eO5qiUKsteQYCz7QqEBKFUrqJhD2EtzaGW1tanXGus+IMf/GCxr+9ISWHo+E6DjxWT4WzakJRRGdkiu3z99dfTIgYuualQRs5AOQK3Ig4WL14cke4YIsXn/DornRQgqc6Fwzgf7PFisBiZ9+Ax4HV1t/3RpZdeWiXlbdy4MShPvnqmw/inBmywR+SW9pgs5emnn05XXHEF1TuGlvQjz61w+PdKsPemm25KTz75ZNwnjHr+kzWdTZfIJhycgLljx45QVJzY+ad/8kebXOcxXkHOxVP6/hyDrSxYunTpWYeJ4cbTpQWVSGlbtmwJLqHi4mtnUrA8DNVvPTKXX355evDBB+I+QlDW6f3Ppsv9LIFDCECB5/ruuP0O93r3LOB94AMf+MN+RktLda+88nLq6enJnXrOot1U5FKOBtjvq5AeeuihdPvttwcLPNMlgBX+d955Z/ryl7+czY4ZIaQzAf9M9//v/XcdDxLR5s2b0+rVq/1eWtuz9hObXtsSukz8r3L96Z/+b6Vnn30WBWYIPrssPf/cc2knciU2Ffwl20QzPzPXz6rwZR1jrrfN/bdZ8bDZb41cTahpGabOlXRkkI1q9ykXlWXKbYO0kS8ChXWRrHTTG25KG1/cmHYywN6StdjU6a4cBzvdX+NIzvAW33Haz/vkmU/3tFy7FCaCzoejvPnNb06vbnolsudUXO65555jNzzGNmFBVe96153vlPqWkK+9aRP598upAVAZ4JC8/n8L9DnO5bQ7mvmHM31eZELTNHXvpz/9aaTbXX311cE92ph94NAo20Bqt64imiAW//iRH0c2V/gxT3+ueRW/xPN/qX38km8KjsJ+JBZT56+++qr05FNPopQtpnjlcAlAfuLuu+8+tuqTlv/5z39+45e+9KWLV6xYUbUDqjPj+CVqqZU1jjszp/6XvQKzzoyac99uDsrzg7W0zrDnim0hBchCqnMcF6PyMUy7fXM5xWTNCsvHtBOjP2cUyOS43pwLmGP9/1jKO5V6JfWp9TuKromCmQ1XXaW8K61Zs+bFu+6669KZaz0JeP7xfe9738Z9+/Zd3NXZXaUPUP+hSakC7pQfOO3uT7W80775FH+I4znF6/mliopfUVYilAXm+pEcFgJ9IsuM3/2xfLtQXCJUpOlw+vvrTvvHXXOvP9Y18/GhiOW1daOIXX/dtVBcbzr33HPTV7/61ZMWekrL9G/+5m9+nwN58sCB/aVrrrnmmDanN98rtD3lCd/9ivP1W3wd/92EoMrffunvM06rcr+ZQJr5c2weqAiI+C7g4sW8jgBW+TLJx89WclYiDa+8/uP3PP7+/NMJ649bH/8Xe9aJX/ma8bwT7zTz93i0C/L2sYb8vQI42futt9yiOCjpfP/MZz7zkYGBgewTm3Gjkx7HB+7EgP02h9H18Y//h0f+7hv3XHLRRReR8j0UsbDdu3ZFkYNjRiu5YAGwgA4bCzmRFRXrrisFgnNtpvI3ATBbzHDPOSkjGPNpb105lFn3zwuMl6LuINadr7z0mfc7YTXlQ575/lnLO3H98fHj95dle+V9Vu4tp7CheEPoGCtWrIww13PPPVv6lTff9uJf/MWfXwrnOwe23wNQH6g8e/ad+Q3AVQG4Ei6YW7nBj33DDx780fu/9a1vfR2DtrRs2bIqNR6EZyT16MjWaPRn5Upg/wxDOYP09Ic7cyGVnzMi5N8857k/7V/negfAmXG6FQo79tw47OOfr1Dx8bXoN50J3NkLilyDWcgwOxrvUcz4c6Yy7qcC2ExyVD0AW7BwQchoAaZowmtUuuyyy6re8573fOIdb3/rxytrAYBV2LOzNnt8ZeV3AZAWtDV6U+TrsUefqrrxDdeWvnnPvR/fsmXz//7tb98bZK691EEjcKeMeBOTfdyIB3R8Q1Je5Xh97uzH+dus1XiYsw7jTC4vPn0qhaJ8U7gptRA8pfygAJUfcU3xPcvHyl5PBG70c5nptZm9/HyjyofL32euP5eQHZdMlfMJBPX5iJ5+imSczSfrv+OO29MFF1z4ife9990ff+Qnj1fdcvMNs47nhEedcJon/nXG7xROVPX0rOH5pWu/+93vvfVzn/vc+A033PBn+w7sC8qzLi/H2vIBuZhjxfxxftl3WKFMz6GS3DvzsbFB36snJRxAOcsrDlZC0pXFh/UjO6nEGTy6x+ycF7uhdo83RcQ5kpB8v3eJD/sG671xaCO/K8D0cxWkm035fNbHHcfAeMZMBM0/iwy5ziPjXjmNJN6bd1dBDKmunfEBhqJs///Yo4/+8cc+9rHGO+985wO856nXNm+vOu/ctXMCrXJe/x9BX4/KhT1CGQAAAABJRU5ErkJggg==;rotation=40;" vertex="1" parent="1">
          <mxGeometry x="588.9100000000001" y="3405.01" width="53.61" height="108.67" as="geometry" />
        </mxCell>
        <mxCell id="rRB9kiorKSMEdPoHpbNI-2" value="" style="shape=image;verticalLabelPosition=bottom;labelBackgroundColor=#ffffff;verticalAlign=top;aspect=fixed;imageAspect=0;image=data:image/png,iVBORw0KGgoAAAANSUhEUgAAAGYAAADyCAYAAAC/KLA3AAAABHNCSVQICAgIfAhkiAAAIABJREFUeF68vXewbfd13/e7955bXu8Nrxc8AA+FIAgQBEBSoCRSlCh55CiR5cTjkexkEnviaDxpznjiJPYfGo8nGU3GSmJnRlYyiWXJtholK5bFIpEg2NCJjvfweruvt9vvzefzXXtfACEZ2YmTc99555y9f2X1tX7rV/ZQ+//htbAwO3b9+vXBzRs329z83Mi1G1c/e/PW7f/5xrXr627dut0WFxfb0tJSm5ubb0uLS4FoeHi4jfgeDNpgdLSNjIy0Ad9H873uDQ+PpNzQUKN+W/5cpI0F2lxcWqA92qa9pcWh6qctps4wlfzzNcT3kRHfw218fJz7Iyenpqb+8ZYtW26uXr36H09NT10cjI7c2bRpU1uzetXS+Njqqf+vyVaQ/WvuZWlp7uDxEyeHJicvPXhp8tKa8fGxp+hiz/z8wtL4xNij12/c3PLmW+9AiNE2OiLhRyDIRFsxMREGjI6OtTHeIwMYEIKNtKHhFsZIxOFAvcSn17khV0J+XhZcGuKfDKEgTPKOzF9ckFlc5/vC4kKbRxDmF/icn29zs3Ntgfvz83O8F2lnsY2PjbXNGze2wdig3bh58/dl2oqJ8ZmpO9P/x9at265t3Lj+1NZtW66sXLH2JHDdKQD+9fz/r4Uxs7Mznzh1+tSHTp8+8/GTJ0+Nz8/N3jM1PT2EhN07IbGVdN5jIDoMVUcGEn8cjYCwITQSDANC8CEIzpe8+e59VaHkHoLDBC5bMAzxr5AoxgzRFnzJPb9b199DMstroVsKRKu8mU+uLS7QGoyTk4swDu1uszMwCubJ1KmZKX7PhIl37ky36empy2Njo1dWr1l96q67dk5u27rl6t133/NfA/OFdPP/4lVw/j9o4Or1yz95+fLlf/vdEyc+89YbRwdXLl0ZW7lq1ejmzZvb1m1b29o1KyH+cMyQZkNkS3YlmB0uRhsGMAcahLwLi/Ntdm4OhO+EAFN8ztzhc5Y3vwfRnKE2efFSW0CqF+ZnQ8glCSrxZTJl5HBMYEzdUARidDDaJlZMtImJFW3FipXRzvxGC8bGMF8xj5SXkfypYQu0a8OaRjVTwVlUGGJuR9r1G7fapUtX2rlzZ9q1a9famrVr2v1Hjtw6ePDA2/v27v0p4Hn3/wFpU+VfiTEXLpyZOH7i1L3Y37979N0TTx09djx+4fChu9vhuw+1dWvXgmBr84szILQYBiwuzIeYMS8gNSPBp6bazVu32tWrV9qlixcxE7fazZu3Ychsm5HgSCgkDnj6kRHM3QhM9rcEDgPQugEaMarv4b6MUcKHILCWTULbTpNp1NRsDXNjgb95YfKqzOQTqaeNYZg2DnFXtfUb1rXtW7e3des2tpUrVuS+r0UER+XSRylMI8AyPIzP4/cMmnX02LvtpVdepc3Fdt/9R9pdO7b/b7t37fwb+/fu/Vdm0L80Yy5evHDojTde+5tHj534s2+8eQwwR9oDDx5p9xw+2CawwfMLSq+StQSSQzBstt26ebNdRZIuIuEXkayLFybbDaTs9tQ05mCRciCl39CvDDBzEFjCxpzhP3pTp1OWuGrMAL8j0EP0IVPG8UVK8Y3r19GwmbZhw/o2Oj4WWOSQRFyCkTJTEygR1bKYyAiMxTRr5XOWIP48WqvAocNo12g0YdXKibZl88a0v2HDxrZ61WpwHcQvyXqhGgEH3dOxYyfaiy+90lauWtnuPnTo60fuvfcX7j188Heee/GVoY88/KCo/ImvfynGfOPb3zhw9tTZ3zl2/OT977x7um0kOvnkE4+3zZvXQCFEBzEq3zHcrl+/1l57/Y126tRpGHKtTd2ebdOzSJqgD0F4P+PUMRsR2QJBPyNTjJSWOt+SMpFqaaiZ0u9A3DCwGDWGqZyZmYYxt9qt29Nt3cZ1EHMFDKCc/oa6pTMl6elHQnb92b+mqdyNZgqm2V9MLJorN+UfjJOho8CuQKxdt7Jt2rQRwh8Ms+bAcWnJ/sAUgbtxY7r90Ve+1mbxRw8+eGTx/vvu+w9hzv/4J3KkK/AnMuab3/rmurNnL3zr1dfeuvvUuck2gnb82I/8UNu8fiXIAwYhKbC227dutmee/UajHH5CYmBeFrXxfNIZ7CspDaFAMETvw9YIbt6x9WiRxKD5mBiFf2i4wtxoT66jPURzhs9q540bdzCNN9tqTNG6NaurniyhrJpnNFZ+QtYTnSlMtCHzOwcVIVmYhwH8ybyUSYCiMNgvjfEuy6CZnmuLmM9DB/e0JxBUo8xEf6k3aNduTLV/9vtfwESOtf3798489cTjv3Bw/76/hbYabfzfvqDAn/Baan//7aPv3n3+0vV27frN9hM//pm2acNqoJpNWKlpmbw02X739/55O33uKsiuTAQUhGFYH031EhCkOy1RAheRMrXNV8wN37kasxNmQQgJGqLkt77KekXE8+fPtTfffBPG3CbkXtkOIMFrMSFLtpNyhV+CAl5GWPo/+7RNQvgqACvsv+sm5lGmVJ9LSP5scBJSfddgqEzoEIHFy6+90y5fvd5+8OlPtjUIhYgvIbAb169qD9x/uH3t698k0Bgff/7FF//6rdu33qTAP+o6/b4fetTv+zp27Pife/2tt3/64qXrS5euXEUyDrQDe3YQ4qMSkE2m3Lx5vf3zP/hyO3PuZhuMr4O6Agz4vWlS4oxoeGvflXQ/DWXVGDFdUAp7hskQoyBtlUywJ5lj2e5V30sbzpw5x70BjvYu2h20q1euydZIv43HNFJ/wbEKb4k6j1mqqMtAY95Qy05K2mGanaae13OP32iMdfp7jn0SmlNvzZr17eLkjfalP36GoOZ21zfBCJp8zz0H42tOnznTzp67OHry5Jm/8fbb7+z4vkTvbpRIfJ9SP/KZz/7uG28fW3f5+q2hqamZ9vEnH2sb104A3ELMgzb/hZe+05574fU2Nr4GhEPVst+Rvl7tZURQDcISLSNvikdblF5h6DRJsqgV+oiQl8+ROBvZpz55zQht0BjotX379vC5pa1cuaaNEwYbDmsC02QPg/BAWGGKQNCyjtuOHaPU9WJmQnCFgT7TLe8IDgIlQH6vrIPlA3mCl5sEO/a70QAEEztPuwyuM+Z55x0CJqzDirGxLRs3blj4e3/vf/rDVPw+r++rMXD408fePb51dmah3bl9h1B4TduycQPRCyGpBAPImem59q0XXmnDo6vaHEA4LhGJMiEFsAyQAIldvKm2BFs1RQKE3uVvYKzhQd76JokQZllIDMp8aeyGqGskNYbPk+A3bzLmQUJj4ymumVVDeqZnkNgxxsGj78BKYTU2bzVCtht8dKaOTA7+UVz6AF5Aytxq7rwlE22HqKadOHGm3YZeDgu0DmrN4bsPikhcwYWLl/HH0//Z9+HH8uXvy5iTJ0//PBHj+PTUXFR6+7bNEKGkXNCUDEb5ibw0O4ntjRV5JX8V4hWCsViRNimtlCpz/NQ8FGZoR41Z4gMgioSLxoWhvHsmEqYPG91RXpNoW1aRWCEYxE24K1PoZI6b5UXs0Xb6tgpWGaBjD/vTVjl/ywqzZjmwCpMMkP6a2a6/4KQzFR6c/1WiQ4cIc8AgzLazZtVEW79uLeO3mXYDU3fs3WPttVdf/y+5+X1f35MxALiecHfzLJyZxukJw1ZieK2DQGp+JMCbb73dxgekVqQ8QCek7eyuJssIq1hQRJEpA5ANWjKN8uKlWQhRlFaJAfYZa1BbhiUQ8Bp9aj5zn3qaN5VP/iRc5zPMopz3QjMhDmU1jz0dSgiKSXXR+obGMimZilQVJ6sW4dOgcHNrxDxdAW/IVmYvdFlqZ06fCz7JEvCnL963d2ebunObIOUmmnNDzXm8h+Z7fX5PxkxeunoXTNlsDD4DYxwIbtywAaAWIAyAAvztO3faiZNn2tjESjEIkIWiCEoph2cFnAwSBxHSNAShTrr7VEchSTWpK5GiYZoI2SUj/C1dOibbG7+Nli5dPN9Onzzerl+5nExDdUb595e1eEfwEoQih4ywqTJzZdr67HQJDnipkpo52xPPmLwSufgpBaaAS6h/gQG1RYVlGL/i6+D+/cA6E39zZ2a+Xbly5YfBZXtB8d3/f89w+drVq3tmZ2Z33L4zFZNgInL16glA0TbX4PA8qZRrN6cZS6yO+ocxSojM43sGcHzGuwBkclDeB4nFmKAyJQl9wydtuF/qZf0MMdQcysuOPhrzHvxSTtqzz3y9XTh/gXsjEaIdO3e39Rs3hWy2ZpthJZJswLJgJe+Fyb6FmbbpI4EIquifDNPnmNEOLjaSmmgRgPlpm5LdfkrLq53rmDMFdzBYQ10qwrx169fip1cnHTQFXW9PT49/81vP//dU/elq+YP/f0/GYCN3MF5YmfwSGKxaOU7E4zyFWqshWmrnz5lAVXqE2LBR51+k1bQ5araCSCYCgw9+l0pRc2vx6TV1QtNQ2gAjZKjt2iEvRw8SLwRl1Bnma/4od/jwvW3Llu1tmlzVDLm2iTWromXCIJ0DHm9D6RIQ+6k+em2RusUg4fNemSl7TyZALvIvZlpR6/wfwJTAiYtarpFmUD2zdIfk5tUETJpHYViJn1m1akW7co3AAAGaUWuuXiXE/d6vwvx99wBweHJycifzD0kKLqIxcnqMUbZMUIIML2XMgBAx9JJgAt99D+L4AsWyxix+p+RyGW2098o2lzOFiSAXCZRhVpEoHSO9Fgp3fSTjQGpm647t7e577237Dx1oO3bvXM6TKdH9+EiizjNKL7mQsaUlKq0RpByTrOmBjoU9OTAulImrQCSTb2oJcCqg8WfW4foyZFaCsRcnL1d924eZRmgbmdsRhzskcR0HMbjdACz6gu96fRdjTp46bcGnpkkI9hHKBtQwDpG3n3dQ08uXr0eyRNIozNDVt3AFSMvzI5EMVzRXy+Ev1+LULdb9LyDDKcA92GPKXjYVo7gJQToadkQwSiIkJnm6sNRNeGnv7Z+ykrkPjys6kqgEMuoqfURrJWhPUcqXZsCUXs2Wr2nmKvIMd7UQ9mA7KePVatM2Bsw1XSETIP1kZMwctNmBENnnzMwsIXVmbsdobFxy/V9f38WY1157o52/cAl1c5Rc+an1MEbRdYJLqb5Fo3empwGsgLNRpb9mGpV8mg2BtF+FcIwaCGgIY5qCvK/3iBiUC8vUL59SfdhmTBzMcOAWhmsf7Upm2qcNdC8zLb0WJ/1i22mDz5jjMsvWVRPSPteMGvtmKjrjV4hbfWZYIEO7VI6MiW+yB5N74Ovsq9MaUzAgub/OJzHj2UYZd83OMdmGm4C+B8lDPtDD/P7P72LMSuZJ165d/VmjnVnUbXR0wLwEWeQQsF5Xr15lMAdwSn3CtM6PhPg6/E56uognYikj+Kd50XcQQzAQpk0ILaOKsPRA/RCLwjpKO8WUB+EyO/aBBNu2UEGkYRg0O+c0vBqrFum1OmILTzRI6G27cBDOeVL8vkI4iQ/DI+WOZdQG61mBsjX4tEPNcPVfvqqE0tZ7PAaDoWiFoXGSosBou+vXr0lC04HwLUJngoBNb7359oMF0Qf//y7GHDv27sJV8mL6F2cJVzDLt3ol1i3wieQCA6gbdOSlGu0HW++JDG+JYBJRGlgnkso7ap/rRR3LJjDoYMp1fuftvUDXC0QlHr0SHwTRNHnnyZV99atfbd/4xrPt6NF3QhBTNQMJn0FemVoZ7/e02MEZrQ1OanbBGviFqcMnZhiGaXrjS2yDsuIaIfOfCIBXMgGWh0aaPscrXumz2BMrmXSDMTJZbbptdmBi4tOTV659l5/5Lsbcc/jwEUM9UxoC5Ih1DK0p4hUSdrhsvwFCiZaWhXVpdEwXF2JOADgICqZldfJUih+R+iLdEa2v0zO0a5W2yoQs/7YeY4SbpPvPnbvUzpyZbJcnr2T+wzaEr5KMpSUhZEfYnjEFb4lJTFUnGMW+gtMyNVDuGBdS90InlsPJUCeK9LrtKDTgdhM69X7a1ldMjHZTEiMZf6lN0PjGYDBqhPCB13eFy0w6/SmneRUDnfn69etwZoOkGMaRxLk5JqXQGAFSYkV4iAhpKeLdS7cCVGOP9CbQYUZJYqSYt6V1tM5WqlW+q7hiqBSDaMfY3FimmKkTc2Wt3XPfkbZ734HMvYtonzm2aLQkTsi6wskX2rOfXjMiUV0fRoBydflefpbEdbeWtU1cci0CUj5II97L54Dp6DtTCjgTaPj34MfddatXtbPUnXE9A3761o1r204eP/ZdfChKBOt6wY8fVermkopBY5j/VpoSp/OeZrbw+rWbwpKO9Hs1QBQ/CQmcqjWfzsuHJuIuMywvI+wq9FCaNQGdibDRvOqzTyzKHNmYv2hCkWvR6QdgnFjBMqNtmzJxJjz6DOGtqEjCOKgsk2LNLOTAFrvwI+OtSHmnMcJJ+71ZjnYJswyQgXkX86zT+54MC3z3dalzmxlVBVrBVFBtY92atTGL9u091g2MDQbjtPjB13cxhoHPPXNzhL4APMHqEU0ZLXcOcgGHNd2u4tRGmSCa7wia6IXOM1ThL8wAoTIdJUUJjy2W1kr+enPV2+BEWhJezLt2Ygq51r+yJiAdMAsKIxzAxUiiPvoWGad/NHDwuozyFc3zHS0qP2L5XkuFofxgCUy0inoJOAShCwjSlszjfgRAvKqLZbgTofKehY4OJAunquc0tFJts0ZumMGPM/xY0TWx/PEBxkDII5cZGGmmjMhYjuTKQ8ErUkGEpLSdO+YlSAGC8pGIDsTev4hZXdNRYu7AQKKkLggpZf2UrRnkXivDsC6LIFPC7GVtWoada2DH9TEINKZ2dsLgQkE5UlmKrnyIoWZUSma5FYWhE4j4Td+yFEZIfJmVT2HqmKDQKmiu0kmELMM7nAq7umbw4Xiw/J1lltqmLRuhBX1QZ1rLtLAwSuqr4vf3UCur0v8+d27yM1cZGAmotnEt8+ej4/qRQkYiXr5ypQKDjigSJuFrmFJgRR9kSoAuaXUlTL244EXNncSGtn3Eo1mSOcMD2oS2me3sxgAyRwKE+HnLFCV5vp07e6a98eZrpNSvZ9Wk7WeVZlcnYOX9ng+0nTBCoISje0fQxId3mNMR3WJx5JRL9gNzKMaO7XzJvJ4BJSAOuBddFPjedXpjLILQCWIt5bpM4pVMAxniD74+4HTOnj07cgenNAeyLhXd5IBIywENMv8N/NeuXksqxNxTckZAZ5DgvYTCvGPMND8gp2TI2GGcToAHsVgH/pPQrnIpSWVMEeYZ9wu4DrqAtcWEoHLL9ovbGa985zuvtdcZFN8kMTiBhh8+fA+reEx9lMnszavaGZ+AwKmNwpEBsTyhrAxIslIIanQaIREGzaHle+IrtK5vk06GQL2mluYIX1mCObLJDsYzRpIevCbGR9sG3MOlK7cTQRrEXL9+k4V4H3x9gDH0/6hrs7TRmgkZI1GErNSZhReTV6Fa2VYHiXHyIpVyCp6OXEbym39ZisQFF2hIBLUjrypUTIEZw0hh5nV4RZP4l5KUzyfCEHvPjQQStg1Rtm7fSaDSMjk1yoK9VY65QDbwBKTqTwEqf1E+sNc+daYYgMAAYAUa6Xa5b5fOppkOD3gcPC3Ua158knALuB+05TB3imBpDqZMWJc2XHO3iZngi5duZPTPUmKXP/05avw3otm/PsAYVkj+UL/QWme4Fs6qjn2yznj9CosdzKLGlAQwJL9bolQRE3Bx3Qi5Eo8WKwQK8O43EBiVDBNW9jZahnRsCHziFwbmVTY+TMPkJQMM6uaftm/bHt937abIEulAJM2OgiCMSTxKlVC7Qm3L9NmDXO/6Ubr9S9pGuNN1wZB2ylGWKXOdW2+iQ/gOT1tI38OZf9EEqGVZ0UmZDevXc+ldTGXL6tMLF86XigfPepWIdj/IKo9ELUFqlEZcHpqIp/tzHtuVlFn3BV8kjYBa3ldP4Ppev5XxLAHmHZPFF2FWwvQh5Yy9X+quVNdgrSSsL6/E2n4tNLdBw1zgJP2xxKJDE5m1HqE0wABANrx/UNmHrPoRRSA+gTIFkcT0almAmL3OVFf4XeZJXxmtkpeUleAyvVhXMBowOI2huXc6eZ7oLK/QapEVnZtDD1NCjmXWrF7jbogPvD7AGOYHhmvssMQS0FVJ9dtlFmhjl1kTleWtlcxUEErCexNUo3j1vBghorHbMVHoQnm98jOWERSlNUjWn4yJ5PnuJZ1i7zlhHXMpejHQJpTw6keEE1Krsv5Ie9V+QmhHpbwyd6RNCsMLFud5ajQjczWDwATxssQp8PE/fSmqCRuoKKwyX0GT8AmEuKZ5dKWMKSJ9VvwWLxcJbt7MRB5tWu8Owj49NfWR3Hzfa5kxTDQ9zXTyuMiailmJrXZ+vcyPZsv1wTffk3pVXthoLO/QgHJ81jyLjlwn67UidGI7pTL1qm0Rs8+0JRMpq7QGDi72xM933jJsXs3T6QYRohukbgqh0bcwWkv/ZhSysCOU90PBqLGJQYqXlnNfwpQi+gnhpWX7T1DTa24NQmO6q9X3aCFc1pNh1Ek9zO0o/c2SpZ/tfHZEj3IrWQc9Nu7EHTBieh3P8H2P2PSvZR9z/N2TaxhYEixVB2vXrcYhU4yfZQJG2uTlS0QVE1100iPTNRXguIYk2nkZEsgHsr0zD0ZGCAAYsxRm+r3ko+taGqZofI4/eGkuE4BINO5GUrn28ksvES6fZTAHARjM7d1/gAV4TumWubSx3sfEdCXSUi865giDdikw2Y8Mou0ICgSI+ekiOO7bhqYtn8CTNrmedcsZVhR+AZM+nJo3+go7C5UwZQuR46nzl7LXZo7Z19t3Zh6lwklr+VrWGNaRLSl5c3IckV7NFK0LCRJd0aJEd7X+kKNr/pwOsKOodWlxVLiyvtEHfV8kTib5Oz9VF9rM2Ej19/U+82C47X2JF9seE1WO37aEw3sOWG31Fnm9i+fZRXD1BlkJI0okycFmiFX9Q72sMU5vfu/a6YONmE7K1vwTmq5GiYvvDkYZ4CvjLK6778drZVFs9r11DxE06wK71acw/30firPr79aS6jLQMsviQPPmzVvfW2NmZqbWTc/ODKn+SvnalasLMekG4QT8KjmywQiTbiA970heAmrLQyIJYaYZKZJ1HSIl8UVoeaJkCtwClCsNeC+dbxWZaEI0pkHkNIMyV23ht6+eoGYnPvH00+3hRx5JUDLNAsQVZCoqnFZa4gkS0iehyY966/uK8EKTfJnMyVvYO02lvDSOJej6VrvsN1mLmEwFpGCKmeu0346imZhXk5n+jnYVCUgOE5nxS6ZcJQuNNbo/yHWvTmSZ3xwb+2mkYTxhJkAwYUaRAsjfDjhvGpHBmAyY6LA3Q8IMm9AcEPNPgemcayFUpqCXtmXn2QFRW+wc48gWGcANtUpOSRyuSxx/L5s3fqtRNwiRR9DeVQQr2Uhk1ZQ1Uispt359k9BlZPu2dMDLQYRCESbYfchdxOyIXdoqOYVJrS+NkfmlOSF7CWUHtwg4jZLBaRd4WNZZ4Tl2xLmLzuDiyuXLfzaVu9cyYy5duowgQF7sqWZqnMFaPy4RxtlZ1kORXuhjfzuK1Im89j/87ySnbz1SU9LuzQDPv0RqmgvKRX80X94yCIjz7AlajM59geAdqezKZrWj5iTEJXQG7lr5ouTa8nvapdrYffXZASh8fuViGNUxKWFyYKiIy2xBn47p60f6gSd0QHNKeAqHTElQJ9kKHLWjf8tGaIPqEqN/9vEwJEnbtHX58tV56LOczFxmzO1bt5cy4QOkzllPuCtLl9VJywwZAR2sC++U2uxdiS3WwTvkBI0Q3Z6lnCFprSQReYlupPR+qfO7/SlIfd1+/CEG+evaSz3b4bojaa87TxRh8gZwJW/FdUic9oTJl4QS5kR/tmKKiHJpozORJSa2X7BLQNtKufiVMoXvLdSAmQikDNLBK5ZRUMoJVwTP+jBthrFMHwDZnsLlrLDzW4bvhtSUX6T88jb1MAZgxtCEDYtZyhKzxhY6RuT8xfzwvn2LSZ/M85tKL34WkQt5/xeX+qRzfmhK+qmBEJjXsuMNcaljDg3bJ9FKrSvERQ7TXpjXMbTaLo2b41pthagMgoDHj6RO0CiJ5TMDYRlnMMFniMz1aIGSQYWekFlayztwSsTImQLkWEYNoKwdcD1mlT7DwO6z71vLkhwir2mCqoUuZPa3+Lhx2Gn73jpM3bkzTtb+k6nAK+Eya8gOgeQB1UoVXokZi0lwG1/Y06KOcaVi5FU1J45P6qqm3tLm+qWzw6YrlDiv8dmndnQEMZMSTERd7WIz2mHFTtvdMc7rEQTvR4PtxzVlqR2NkWC9c482V3eR1jJJXpEZ9ZcAwzIhplpMW0p7upGJCpUCgZOn75ihDu8QQKJj8suMKVidP+SeqSIDKGHzVTvebmeRX5KmuYpVIgu+kgWA125N5x6pf9bzXWKypl6pjX0bmmYMIDBWdCOoiAugv4Xplg7MNIfXIlGdeaCO+2KgY95hChXy5romL4yzjNgFslrEUSFzEUumK6H9ILDvPP2lznum0D6U9khsh2oknL+akJNQHZHVvNSvza69uVELZE/ad+zVEb+CGssXqPGHahlMrkFvOXwrCnOlkNzEJIOrPdc6qgkx38BptMjpGmKQNiSoeGYQz6dLxbQAx46fkIJ5hTHE0vvh5l5tsebBCgKsPYxNpNJV0v3ZlEp5JShvOdfZ6CJ6lVcyJGwsoxViHpzu1UmKMISQaVzvkbFYqOnIjhI1cuc7gySPG3EAl6mHmCHBNt1uLcvLavuqetEOv6t5IVhpmuXsX81OPZnJu0brDoppFT8l3BZ8LwtR5YMzf5U2MuRWc2JHlrXHCMs5ooT7acbyjGXw0bVMtwRUGq1lCe2c+zgpaxKWBTC1b932rExD66g/kgiH3+7IElW/l41dzDhhdDARghU5REoShqRF8Eht2e6goM2X+PxpjSowKGbEPwk2D9dpAAAgAElEQVSxfdBJbD/fe6dssyJiRY2evfYhrkD1pqLuF1PCdBnBn2TJ4m8aTe4sAPhZRE52WS0Qdlujsn3oFxJNWd5r0QI/A2ng1cdUJBid6bSmNCk7qzNlrRCGw8Hzzu2pCKdtltldbKsYc8lA520w6RMM6v90OuAVH8MBPERkhndKjxXYXEqb2mLb9vrsFDYS++kNgUziLgCDGsSPcwUXtyyEIeFeMU+Cs34lgEYLBda0fdc2P9s8dlYA1Twl1lKZB+EV/LTrjt7TZ8FWWQk0Hsdsn5FgIsckVXtNhnQJJGhDWIWR5UIhcbaIp2nt/epsE4zfoYPgp4kDPZkXYupThU0aeBUhCAO1HLz83o9tvKIJFGf7C2NCT+vSK32shjHOhkp7IzOy+8vry8KYyYuT7EirFSNmko0WbFgJEnkTcdnAxO+kzGFUTXgVQF6PxbW/lLJyqXwveeUPJJKYScQeOfpAsi9fu8oA9gbzF1PRykWcuhluiwu0DnIVO4IdRdd6LMYtzqRSYJydCLc550UB4rQklq+yMpM607wltkGNK+2loQ3OIGRS3GTiKHmrOb7v2bsvZeMDOrT8XoIkHdWc0iL9b0yY15RV/+QeL4XCFaY2UoP1EgoXkoc6CitMty2PS5HhGaYg0KxMsmJeAy6Of+1rz37OY0S0yUqEBxhEvaN5pB36/YwhvFrQR1RIqKmZNAUjsK2RuPqZNmzPK14X30hzJ/UyzwUNTim4f2TlivH2scc/1nbuqN1XX/nKH1NkiJ2/h9vOXbtYcflM+9DDH2p33cUOZXrVUd+AmS9/55X24EMP0+xS+9KXvgwTVrOR96kQ3mNEDhw40L7x9a+xKPBs27ZjR/vUDzydaOlLX/xCO3v+LIENTIU4wubsbeXn5B14OvckEkodnxLQdFL5G5jgdxjob4mczLKY+o9rlUpioxf5stSXg35Sx93Mnuxhimd+fil5v/41YPJrBPO1PVutAcTFDOOMSA0VFQelwrW2rozpuuxyWeE/BK9OtLa9qiZkFRmlSAmxHL/9xvYRrlV+KUB3jIzkcP/IvYfaQw8dQRtGOU9gTfuN3/4dCLuvPfqRh1nJONQef+zRdur0iaw+MQB46OHH2s7dm9v2u3aG8ceOvtk+/ekfaju3bWm/9fnPJ6n52KMPtNOn3mbj6rH2yU88AaP3YkLQteFPtn/wy/8L9TxmxTUMNRZSkJJC6aRbvHvfp4n11eMUz8i/cvidaYupK2b1WXEFX2WsQXndr0wFfo4MRhbKLy6ugt6QamhpcBvbR8SA8Dljt5S1ZK7XWtJuS1w6yMp0DL9/2ZGFZHnHEba9eT3OO8iUTttezF2nZfnSRWrWDcPUvKVaPyCi7lR2/HTqNIcHYYYefuSBNnn1En1gg2fvJPafvHSx/dqv/honHzGuoo2f/jM/ndU8sywicev2n/qJH8MErmy//A9+ub31zrH2+MeezN4Yw9Wdu3a2uzn75stf/hKzhqvbY499tD304IPt+Rdfygg8Qlb5/sAXOAOqsJaA6TsdiGfZlTc1dxoB6vo2gvTP+olU+W7ZWqvnHlQl08u1EGUCJbiZLRn0Nzy459r1W0e4++owObIcGjDnQI2GPCwt0kSbGRACybxnwXQ21b7kt307sHJNmUQPDwWJzwCmrRWL991zSZG/A2+woSV+5Pgq68Bop4dd1/vrv/brTMxdax//+Mfa/v27QVgTg+lDk5aWPFRIITD6qQkn6+rnznNElVsd7se0jbBx1zPGkgGmrx/8wU9i5sbbwx9+oB28e19Wbn7kIx9KwrbXCMHQsdfAVDQQODMGfAp2/J9Eh15Z0YkA9lvV/R7GSQpw0ulXRgDGMFPpJrAaJkgb8Kb/sXGdlFaJ/ZkzMwu3bt9RQdvgxg0O4mHwaDTmzCAn2AXI+Sx40NTUcVNGDp56kYmvLpzUxxkcxA9RVxNllJHOw6nyWX2CT40prsicLjoTGex2MaaYrim9zo62f/iPfrX9hb/ws23Xnu1ENbfb9cuTbTsp/v/4P/l5Y/4g5paHF196gZP4nN+Ya5///O8wPXG1Pf30p1iosS3HmRgT3nvvQbTjvsYJUu3bzz+XbYH3HDrcnsIXbd2ypZ1gUXqEUZyNtjBtmc+ntmOObHvk0+9l5stCJLgJK8S/TJSsreCnNM2r+u8kR8NeXjDD2dYc88UlgwmtBNP7uU0OD/c2MrLTNVqallVIjymSUscyNaanSyNKWryXtDoMMC6KgsgHmWa/fK9YXTXvbHXqdLG+MX6Ak6ncB9gRnPGtq3fa73Emjas/oVt76+iZ9nf+u19qd23fkvZf5qipZ77+XNu2fXsESMJduXyF8wbOtHvvuxeBWOBMl9vtn/zG52HWq5nMusW07UusPXM0/sUvf7WdPX0+CyQE88UXX29f/srXWZB+ra1cuyFEKyVX+PqpChlVCdNl3wlOZU1kQGmjhk8tcLFILIL/wTMNgzJre1nHzDaMWBxeyqnCNcSbUxEx19MwBtPNC9jHxiZWrHgocwWUNx0T2wgwEk9gnfpUYhbVBq8rJX3nlI0v4l12uBYmlHTICE1W/pU5sDwQaQYtL/Qq4wjRyfa7djG1wDTr9PW2bsOWtKkmnj4DsBTdvvMgyM22cx76IGSCSQtbt+9h6ZJbE+fbpm0708+tGYQI/2kEFSnnPTPNEtVtu+IPfVVaabFt27kmxMsqG6kpjh0NkmTs4Igh5rdDBiVQOjkbKRYKZN9ugA2dioLCI9wOSWI90rvWztMH+0Pq0CgScJSJJRzwgwX4ED+MWUISmRJAc0K0AGSuR41BcjQ/0QrlA1UmkpTrtWJeIDMsil22DZsMjP5JDMoKVMANpwpR3RuTEfzU39AGhRYJCmxX5PQjXptR4niNMhcvw4yEJPqs5QJTNe6ckq9hzIQU0xK4wNuB5Bxh6fAQZklHnT9MNcGFMYu46adMy2SauadgNatkpbzNp2yyDHbB/8AputYJrrwcn+j4PTFDHDL3HzjrTxicXhnEFWTp7cbB2Ngm6w5P45RsQALYvlFCvtClu3f9aiit4EhSAcoZlDFLqmgHCN9dkiNDMwDkd5x9JMfmSsKDbOp1SVB+KDlhn8jRXu9Qi1UCXRKZCSjehu41EKx7xfFqQ/+mMxaOfr4kMEYSBENJdxezjOW3/XWMDGjcNPiQ5Mvnz6RmX5c7NCU5alc0cMvktKtPrX78sI3gQ/uG48vHmHiPsmrSOIpQKSNoOzKyeX52Llv/BpcuX62UPg3b2ASmLEQq+UtlAbVTPUN2bHWSo9MKHCG+GhEKSOpEccbsElBrljZx2JFJmRRbLFJcoUzWXnEtx5CohvQn8exfBRTNksOewMb9Sn+Gmuk7msq1mGXtTghQvqIEpraUJyLmrx/V6+MkNsqXsRQynii1j8QALg467YNrZqo6QbMvF0ca0ufoSCGVSXAk+4MMn7kYq8Tg1R9SyD+HE4b4+kbNnHRma8hd1B8ZTJHicIWlcbwzby5PSngpcbpOTG/QbjoQgeAfAnTAW7SopriXmbKuBOIexy0LbYg2BJdyBkCkDGJGogw2yveojV5T4ZVsjccQ/YiEbFVSwySayHb2JCXrWnJf4ZGtwTipGQLyLtVOZFUpEfvHVHdEs8FFZ2jDzWpTkyZajtcSTrscqLMYha6CAxNnHfVb0D4pEloFwErZ8Nv2ZwyXgSUuoRvPuNo1PWhOuQctbnjBtUjiGa6JrGMAL0jHQggfo7nzvgyT8936YDtPal2yYrv9q3mJhOKxmzQZTTDmt5/4qnnCcaSwQm19VhEio2gJFYAUALGVqB7vCItE1gK0l0Xq3bjIdpTIMiW0Yh+mnaJ5Zhn85CdM8QhHf9iyWrokRW22egrBLB8CIuCB0V7V3PRX12ymT90MjbyXoI30UsOgQClyjFbnTPemDHxkGO1JP6NLa2hWhYdgwNNMxwYepuDhM940ptaBBygr8xbZhHm+eskDF6Uugy0u6xOUqDhBkFbCJERyZ9JYGNOmJs5PhauYkWYpJFM0c7ab+RAJLWMpXCwP24GxFtvZRR+K25nlMg9EGZOWQYhXiOef7Wj6JDRwRAMgXsSqg9H2xL9Po9izbYbx1JU+wirr4itTHmJEKAsenbxWfdgECTAsUSf+kNdCR0evF4oO6F0OVswXbmDbPDU1NzL48Icfvu9f/IsvRkNGHLAJrFOqqnzac+mSpk3JEunyBUqctiYhp8QI03jzqXYpkmEMfzaj2YoG+UPIcq1+V1TjBW/ZRt0zpHbQ2ztVJU0RcgwRU8HLdQK2I/FiHvr2O2rblkUTYPTtiltH9DBRAksc+guJwzzfDjilYjFnMGKGvRjgdcvKTDMlcsM+RkZqUK2yKgBzHMTnoHuMDWB1ZHAJSGCGqR6gFIQV9ARZiwOFcwDHnjDKkQArDd3sJAsPlMKO0PEBqokjWNfbel+iVFgjgHHylFMPIukyJvdTNH6EWC2MKe0BcbWHAtp5AVW1KjtrjfoeXxefUVrhN3XAl4ySafFVmhphDP2FW61VLGSk5YWpTJHFxEWc0p+mj7aisdzKmm1gVTgT1KSdGjTHBMm4tGnV0r4EKdQza+0uBvd3qmEZVFNuzOVgoiK8Wgv6F+UxUmC25AJKD60juFrSdQw4PnGzI05fzg/YYZ3UV0iEYFSthyCMZeWgqm4omVXwIkjLmjOvC4V1BCIngvubFmSMEMQ8Ztyh5GgCCcctJ8KUk55FbIvLcOupDZVfijRJQiq6AsckR6IrpC8mg77js/jMgM9GuR7T5Y+OoDVmKbipHEYoMF5PPWxV+Ru7d/ufFOK/aIUjf7UkF6Ot/sVsUtV74ySDDabcRLxEnTFye2YqFJjQNPDggzL2A1OZQtTGalgG2FNtABIpJ5GjLSle9rpvJD4GCo+hUeN893Ej0yQHJWbZTWf8ZJRUrbGGclLjCXXIaENginCGx87B1HgBQrPIw/vSUySLYSWJMXMgZvvRCX4vyFzeMjyHknJ/dtaAQ6aUqenhkFBet20Fx+W3/ikcapb9agUkqn33YyWJIgMqAFEDCJK574KULHGijSQpnS5Q0OhFV1BlRjI97+42NW7AZJy+VSGrYUUHE3048tevzTHg19RB6zV37tweHhgKR1VByFDZ6eMSPM2XyGuAIEoyocxuzo2Qy1pBGp2Dfjw6a9YpUwUg9iFq7Jo0JXMwzAyhMT78drYxqq5UQdT4Cd5GgZ6vouQooR5cYNmkKjqNMtyORnYm1H6S24PYntoxMgqkEWYn7hggkkJyHOIqUaW0d+AJAAyxwXXWQ4pEOlgW4zVu3izJLmFzTCMlHFLUezoaOT/jQJfzdpBwUwEZt8zSP216XJh7uVeMrYgWJjMvdTT3WooIT2mbYz0PFrfrKCDPeFH1B56/ryQp0D41QiYsj2GEU2SU5Kiz89cwaGyE2cYRTivfFMBydksyvUVkiSqSHnlrewYPmpLa8SUMZS5cvhStQ1tHCGMGtDvGZNg4zMocBqkgE6j6NLPBcZ7ApMlSG21XQVBj7FtG5uAIejANkkQqEKhNaoeClwczgItt2ocJ23g6LWbZKwQFZ+89iNhL+dBqfMdgQ8yzpsrpB4UlG5OAJzPAMMDZyOGhUVa9MK1N/q9PFakxsShySC6EBzCTfpICYkugdZl2eRhBGhv4xCNZqBMcY0dtAKVCvzckgzEZQ4MxVyIPcnt37yBYGCG764FANSbJgIw+ndDSBCSignhQrLQQqLLog2smRlXhWlulJAuzqRRNIffodBBN6NYjK1FaWmBVWAYMwSrIoE+0xkeNqFED0ykwLRopCWQOsNvvHaZ3XXyumZqWEERM9sfhFG2MdQ7C7gjc5wRYxrS86wmkpUR2aOF6CKclZLjcXERwFJhZJvLYstdGcburV68FNk5t74InI1ltjxpTUaw6qOYaYLC+DLPnxuUIzfDwBhg4cGo53BOLcQ6hSWojRBKcfOG3MXyZoJyvDLLOpy9yFJWrCc+cPp3DdgYQ566dW+M8RQx5i5rG8SJlTJgmyzt57TIHRB+N3b7/yH1tFTOQw8yrACO6xIsQWNtfhNWZ4jwdPQyPR4AWGTfMd+1m/sf2qTw2Mp6U0oL7fMxmUFZc1JBrnF/w+htvtI8wNa2wvX30bZhgP4uccr6r7dm/hwnB6TDw3ePH2wILIG37vgeAj71Cs0wV8OCitmvXXW3DxrUh8lUO0zt35nwy4kMjS3kYhaZ5jkmvNaw0usXRyJrl+DaFXwmBoJrOSIsUVsgw/eWfueY/wrNhH56jubGgoV4SlDIjleW0NrHsZPJDNk1jDvTGYOTadauyeEPVdhPoKMxx+ZOMxLjG1rKxM4iqNlM3p5iXP85TJO5mCngNT854E+BKunP0r8yJ/TXTrAbqqoWiNtOOwUw1W6k1itQBi7zS62bTjMEwqxOcQekRVJ4zM4sfPHvuLEt/2VeKOdvCBNoP/vCn2lNPPcEDiNZyXs6adh6if/u55zjodGN74smPtUc/9lHaWM3SrhtYhokciDoLA9If/du2q2pmyWj40CGtlEIhE+2TR35FoKSl9IuGiZaYaYUUJt763SgEeCv0RqhmUwaapr5GIVi1y7TUOCFhqKInWygv4YzQJFeSlXHcKqdF3EnMvhVs7gvPvSIX69iONGFIa+dOE+OPWBVjrk6fNDSolJDdOPK3rYS99ClyySyIHAiYC0s0ppnSonBfOaBRIcAMIpUikKQbe1HYvXXo4P72/PMvcxYA5pMTca8zOXb07aNt4+b1bA/c3SbPX8ScwWyIe/nSpXby+Klo52ZmN8epc9+Re9pLL34nIa1+oc8DznjyBVo2Nu66NJcj6a86k612E8UOOR0u6Mq6kt29Eg5Dw37AXJTXF2NlNGUS2JuuTKnClJcYXPPlAgy/qm7FI8pj15UAQ93khfxXsWmcmRNkbr0D5rYWFd/ISefrNq1jAmx9fIv1fEicTLftrBhBY4eom+CDt0zK+EXp4lPTknyXTNEkcN12amE6DEkQoGkovxSfxzsZDd7acw+Yw3W16yz5PX/xQtu3fx9EJZiBWc7eUrzt3LmtfZhlUlqQcyxvGsojvWR6+cteA9QDt5cbSQprrAjlMkDVv1CjN+vRnE5lhLt/+S2JVSM7syoQbJ6ACh9jSr8GVnmaUYjBf7ZqGM1fzEnRItKQ4IACrqZRhx1bwDWI59HuXKPsONK3YcsGoowV7eA9B1DxlXTK4JQw84XnX2Bbx63Y4s2bN9TYAOAySqZt+7JPxyoZ+vR4CBwIGBnSXdRKneqTi5nulSCaCmDSNPpS26RJ1sBxz4gshITwRpjuyTl79jy+8iymeV1C6SxOgRGuLw4jyFomiuO7PjdmiDYyxZ6oExpSQ+uhWR/3uH0e9Fc8KHeQ820kba824hY4QaSzDjnDjIBssJw2oUafH9O6GYWKjbZdidXkZTwg4kozUjGmhmkuJJyIMzU7gsQK/Jq1K9uTT3200uAZRRP+AsjEqtF2hGeqvPP2sTDxoUceQqIFEIYkADDakrChadWHcMkAaDajjRAGGGouhkLRrk6Iom2WFdcu/UFjOuUtWzeHcaY//L1txxYiOs01Ws15ldMzW9LPu+8ej7BuQrD2H9wbTdQoWN+FiVltmahMIeDYkanbbc0i6Xv7tntwVbh923YV9V6vM4VbkATuBDAWiznin5otvouaIE2GN8O593E1ffFf3gYBYCyDLST76XwtGz0lut2OZ/+60sZtTlGit3wXidhfoNy4aW17fNMj9FUMrvUBNEX9gsGWyhwIu1oa9c+bf8Dabd3hEt97xgQoXl2XGfR1eG3k2QQf9WwcYSAXuG0HTx+EMc7ZuClpF2fv79q7J3A+se1xP6KplbtTKIdY8HEoZlH8NOtmAXbv2Zn5plEcvjPgvmJcuG+ZWHeFRvJpbcSQH7afi3xxHNhRN3XU6MGuXbueOMNZ9LY2nCfnBfcw36NAJHecM6FfRtvctVQkQjHiZT5o1cpVPIZqDZs+MVldxjdDNxCPKdGMULHkOuQHJu6jLgk6fEmknpEpq2YYlXUvJKnPx+njKnBx4GZY7KC1CBDiEyBYRjiF28TskMeb0KflQqI+uIiE04sExyyFZjJbXLUcoSWCS0jskcKhMVZggqHC5i2bedQiZ1/alrOVWgxpyX0f9+W6aOG0LZC14TQoXElDhTFYIlFUGLr38IqVE/dmKhai1Gp+75fIRX5tADs66ygbzkpskTALkAM34e7li5Pt+Dsn2hWOTdehJysLEftBnvUTaYWR9sUH35Ou0EZjAh3h17yPhHPMU1qj7c02dfq1mm9H++bbHMlL4GXTYbQU/PgDHyU+qRmR1oxIGz/lQffnTev3ApH7FM/IX0ZTLr4FeIM/Hdimn4bNjvhPnjjJcZTX4ibc3W3r+hozGlksaCsKRMfsgCMw9sNndh/IQOq58M8hzDB27et2D6opHE3hewBVsmhQgLyvWcrIFahiAiFqZjY1J/ndZWgjfZ1ELkuBJDPMdYEb7TJIrCShtrgirt7H1ei/CGT6I9neMEoi8h/9aN70OUpl1gmkH4DoRE69VuAkSv6EMfjRd4rJoLqXgMY3N3pfVWMNianDLqedTUaOM7AIvpLVoB3hFo6sx4sAlE9WAooplAP4Esyig/0XqEUHr0pj2+R5oquGr167/h0lyxA2jr13avZM6WgHnVoxzinjA52hCckKS5PUU6pFlHcmylKskI/UUL4Q0e6WKbFtLnd+rRAKYWxfjYIBZaZs1yBEkECa/w1AJJRl44PsmwKRT69JeMD1epkpmVvvUR8qGkbxO2WLoKK8HN7SN1W5L0UqmpOQ7+2Mqz4kvukgp0VyOB5VhNlIK8lcKtUKzuorhJG0NuYnb3OUfvGOub7NmzYe5riwwUi/NU0klm08hdSKVKYR82Gu/apwNmJbN73vnxTumGIbEkdG+ieD1H077gGK34ntlzYQvWvb9q1TGeEyMd6rLK0ML+bXAi7bc+2WLavJLqYQVZnLhz7J3woC/Xtq00lWd37z2efalUm2LuKtpU8Y170kqnDn1AtwBotqS3CFg/YURM1UBSVsW2EJkg/xzov2es3vp0RUUbU3s6QU8P8Pvgrq5CFxDQjH+MDnjwmYZ9VLzLQNAKGzvgrnYNRg4xUClpMVI30DpQJIugwnrQtB+TR0EGUlqRjUtW8nEkuqqIUCqsTTaY1BFIoKDjKRpCbrKIMWPVjOulQLwYWf38In6eylt+dq6SJzHeNkuk+fONveeuPdNk+m+hbPvnkESV2zyXFKDQWC9/t8YwiQDmvaIWsTIhhoW8oWzAqGU8Rqm4x13t+BrqhpCp3Q0/f0czodmQtvYYV+kRDeBlqsX36dVZhlr5NmyL1iSr7rZvhSU7N9Xf2LiNi5TxuXCUgJYWQRs9qwHXenSc7SQu27vyGekGl/8TeZoNK50kbNbPqlmCKznA1SW2RaGNBpYy/lHxCmEKyDM+3RDr7s5NHT7bWX3mhH3zxu0207j2a8TQb5zTfeZl7FHF4RP3DKdN45WJt+oxWG9fEA9l+/pY9lfAb0gCAgz4Iu20c9gyXGdKFJRbZpATwDk+12dKbnZCoyNwQT3c+zYeOGw4MwgP/iYH117Hwv0Vbz1/aZLKlFUkyp9fsQTyPf0la4h7E7UMD2RDLLXaMZql7HEOoqDCJJz3nbtgwLkUW8K2sIqjZarMJkgQe5ArqDocJly0VaqeufQgW52qkzF9rrrx5lfoTpWmccAcl82SOPPgLTmbtZ1jh9ipjVFEE65afuO7TQd2nyhJ3P8ltLDDjXJN2vxuTEQqfJqWoKJyG0uPERnEE0wiXW4vC+l/7TV+wChViIYuWym2F4/+oJz8XkxaQJ10orVFdVVfPBVunbzmTOJNOshMRiSmOlRWnUh+TTO9EZb3uBt4RWinzTjcSg7bpjI0ooxbzXIRMGBpYSgNL2YnBfznDa47JefI7EJfb//gfuz2r6ffv28iyA80wBvE7CcmXmYao5e6yhwbJ22m1UUBQcIjgEKK1XEPRDPinW0f/tG9eLgZ05S4QojKlbSdfsO+Jan7SM5vCX/F/KIhx8ZxgyGTXJ7Z4qXhBECia0lPjdpwiojnaY+XpU1t1a7h30kRxel1EikmU/6bikpTRHKIspxYhiSJYdUV6lraiomBBg0YJoi6YvI2T+HDzyp98Y5yE6SrWvbJRKt0gnUj7FMStqCQ+hJtuwvh06tD+bZHfvZo8n8yuvvPwa80i3ab8GgVmEKBDC3QlECNkNgIuMmvYaoznAFr4ZJt2cYEv0KX145aEVwKCGSAr37jhNIT3e/1IbrRFttS/Kkyu7zOZYY3JtvESzSlWtR0exaoaf2cykSaIRAXHmb5ZtBSYAVXGlQuLUnHt1W/Zas6QJsNmSIO9a3kAqNOC30UiZzuKq12LqIJCSqemPSXEgDPFPkZI/d/YCMI2wUXZ727n3rnLEqVhtxG9R10fIGxW++uqr7cDBA4zSr6WtXXt2t5OnTtCvPkDE3wsABHCEflzn4MuAosqUmfVaLEaCyhLqHPjNtQWmsTPppaBZC5gy8ndokSCqK8/95QCFwKZ4YA1mV9leAbbFKRlWZCoQYqdpRBUeVSopoA2NjQx3y9mHsemsFj5Eun3ZsSoax17aZ19KYjjjvy4lYX3b7bUxuwwS0xVIIqfkKpnPf/NFpHOx7d23r+0lt3WHBxs8940XeCZ3BQllaqkNfzZu38Ru5iPtBDOSnGUQXO7auSNHSK5gLujjn3gqWxtjKru+1BghNg+W7RzypMCI5IdOaj1fojnQwemFjKO4pflOlEa7Co5NJ2oFHjXPev1LU5zf0pm3wuv0Mo+j326aMRezLSHUgih0LHA1oGTkn+PKq4xsk9i1wh1zRrsV+1u7+7Oj9O7/tun1eslgIy2lK7fUFm7FyfMKYf8oxTIAACAASURBVK1JOSVVePPEP0zD66+/wd5JphAINMzrSYANJETv3NrYXn7x5fbhRz8cOlbExvJTV9+sH/aU1ozDJI6mzKfgjqMNtzlyftOW9URQPtarnHqY1PnP905d56LwBh/w52csgloVhnC9ONahKw60xzWZs+Cz0UDEyb20UMThWzGmgqG6mIlHntM4nCWiFIhN9Y9aGfDFJBSTMuXM9URD1M9TU+kw0sF1O4wjptFELpKWchU98UXG8HZQZhgZle8YQOEwIp+aO8qVYfWqb83cUnvxhRfxEXcnPc/AHWlNjazZWo//2LN7d3vztTdzboB1+tBXpD0tfM/e3exaZosgWWAfhvcSs5lvvPpWnmauHyqil9mxrqSVweUjSuOXB8KgZB0JHJGTpmQV+kOLlpnEPRexl3bV7rGiYW+NjNwMYIo+tia8MGbHwLVRcXhwNWtnWTBhP5UfUq1dgeLD50oVwyylRSaoXR1gyyczdb8FelltA3hNTIm0PxVfASpDV8k/oxbNQ9LlSpzONdLpkfakOcwWd3MzthFTIIciMAVLMTlcC3Os8/EfeDLaMp2zKS03zF7/e3J8u2vQXKsQodQ15I9iBBge3OpkW4moK0srHE/bnYZFMBFc5+oVoCzM59rsHFaF4IRhVOigyXSdgq8MOgmahNuEsw9m0PJI1gAKiMyKms/xgqYLB6gPsUKaKE66SE/VrPyntrwytpoKtWAHK0fmsMf18FCaSi+qqVB1ZoxL+qMyUbavdgSIkEIJ1dzUkbTWFW7qd0Q/ePBgO/7usXaYuXfB7TxQBETNvXjhPM79UKelKmW1KVWd7r10+VoGlPa2dcumLJs6fuIUG5WYpdxwf2ZjnWGtULZYUca0yGOStDSoG5OFRhWcbCL1X37HE2NJXcFoBbroGBGDNvqtbsCtZXjfy8UciXw7etPPajS/IwrSoHSWxPGpqVGiIZDPdUx0FJuKRCPBOZQ6hFzgKJAzhMt32hG2a+cQcVUzvOkY7A9eiWTCsEJ5qJvtirlIBdaiGdGICJKz4D5Ry9LOagZx+/fvh7u0U3YszJOQnpe2f/9BJJRHSiKiWXtNX0rvNI/u+saz387xIE889Vj2+qxiHdfxY8c5UeOumEW3KC4OwAeV0d8vDxNgVg1cS6AUgPgvcaB9aaVJu8WxKQrVapZhOahmb1gJIWUT9Ik7wGZxosSXduDUm0lh0jVIb6Ne+tnHyF/JjeBy0a5C0Xx4rTpnwQGEmtUMdB05x+KiPCV6EQmp56nQWehKTeC38zDCH1wr01aTWtWF/VR+yb5eeO5FCHYmPswGzM6a1FNDNR0xH2mn4OsDQGEU8S0bN2dexLUCwqe58Pzojz7+KCP0dSgom38RMgXCaewVrK504iuuWjroyDsTmyls2sijSDQvqozU4FrO9++0OcTkrXlyuavRoMIsPsJa6xEIRLoFIgkuFFjupQ1eHqKkEGfw4XV2Bg/miLstZOPLpgYgq99SV02BzB54EAxlVVUHULVMqDQj5cHNqVolIVPQ4QcgVv/LwGhL60QLYn7uKfWWP3L/kbbzrj3tOy+91qZZYjozLcBq7GhbsXKsPfmJJ5FQTW1pc0bjRjr0cZ0FfZM83e82g90p/OYEGrKPZUl3c/CCzsNylSKphKRTwsLsBF5JrkJWWuB1B4QZHnAtckA5g6CMSTphyriN3xmxJ/3Uzysx6HRHG03aonBmJ4WEh2uxOp1UCbvLjG1DU6bm5YnwIOlC1Fo6Q+GEgkLRSZEDQXc9maSbYayQlwgEQGJ53rXGVymQcZoEyqjqkQy+JmqrSCmMou0CzDb4ziWvOxjcSPj65Cc+2o4yI3qRI9YdI+zdv7dtJ6JyAC5iekzbdu7FU8A9SFWhWEEovAPzdIcFfg9wLIkZ3iXWRLsKRjNkzzWYDQ15l1bkhntD/eQliWJalS2vqQnigpQYOJTv6MMW/TB1wE9hjamjjtGndIw5594KBCXmzzYoX6+iETuVw7REtfzxaJOlAZI6L0BKoVOm6ohEsq5sEDAHijkynRG/r3SuJPG9zJUpDWczC2HFPEyTqwIWDZQxtso1mFEM6nxO0KVPtQ3empXde8AB5P4wwsjKdswEK61J28hcTNyFsxfbWyzcE1n9wcG7D7Z799wTJjo/4+NL9F1pn0LW7bf4acbir0JwPlBfNcscWHALvMAqrdVqLmYQrCbIuNgl+6ncYVGspkmI6XIvRSi6Ssb4JQIhgzoawzTPgstgnHtarYsXJ5EpRFakrG+apV6UEKCOtTJlLAEAToq2PUlIqdLxOeNmyJqFGTiYhMPyLaopeuJdjChm+Lu0LVKvNqGpMsUaEu7kyRPtxedfTVti5WDW6K/22IiUfdhnaw+SnPyhH/kUxZBqAwcZhD+Yn9ehlpAFiOAiopoyCCnn+J4JLDQqEguj7WNYRyk6WAmKBosamavpFbnqbBW0WU/TiBCqxSXEGPscZFfZeB9sh79kljMFFHrgL1Eosybdiyl2xqqjNaufRNllgnVqN3JMkBXDrIDkgAcbyVhmwRFycVyiiaoA7d61q63lzMw7PMbE9cM+U3gIYAoIQZBgHVBdm33EFqmgm2yBAC5L7z2wF/O1jyoypgKBXstCQPquFTpCoJzWIDmpHOHmbXRUmXPaDb+KyZrOmMN0Zsc6b+/xkpFaAi5b17mRCAAN5poCZTm7da1cTu/AhBJ6r+KYrVmEQfOYHWj6Pv5CI9pwkXkZQk1hwbmsOZpA2sqqJDriBJAvVj6/YI+9lkoBQAcFwAP2ehgprOXgnZMLk2GEksLJ5m3rZo5CxHGdJVyevHiFvSJIDz7hniMH26atG2Ma9UEhn6YgDC/ChOiKiXoCccKf/ARwIyClOo5ewhkZFTKhTJYRlSMtohbhpFgRNuQL4RM1pc/gHFgyRAgsJVw5CKJILtuDX4TKwtbHT2kMY+I6Bgmn2nOeqQXx3Ompgyy1nWDuP9lqiU3hRKX0bbieFZskfmVQbz3MaLsaNplqcacuWjyK5QAktYQ/j6ANgToMBNILormNVYgLSgQCrH1kkVVCWe+vYE5i3YaNPNB5Rdu1e1eYGmEvlkSK+lREcktUL9Uvk9axLsjbt3Y5YStmJdrBhYTIPTwSjTYcieda149ClV7pvJghIWm1Y0TdqzZtTRjM+FayUcLUHkmb6ROUttgv3Mjh25o60y90K0FdnOeaOpOktdC8zjAwBO79oYcsrMDiaEJ7hsRS8NLcTTFPZNBeWwgjIsQs3IgtBNmckEH5vlJXF7QXmQRbjWRUMq4io04laWbb9q2cLXkuR1Qpg1u2bg1BZUBSJn7piWZrAOjbV/kbzZU+wutlVqpvQTSSqs24CWutxE2VSyRLqEsC+1xWghPb7tryumV7jZVpfs8CE9NQSK0gJmcWWGvtWCbJ7CNEKWb5tcdG4Vu3bn3bsmUrxTrtlp5oi74rESCFVpEhWcGC9dTt4FjWGPz1gpkC69OeAQmFJtA2JZj4G2eYsFNMgSJSF4lUY3hsCaPlBcK6Wmdb6WkPqMlCAhD40MMPZTvDnn17MlNY0UeFqS5EkKRZjKCo8736KeZKpKKh9wJAtFibn5X7+IuYERXYe8IsoYQsTIKpEEOJVbolvOX6z9h2mZOWeVmHNqIV/NS9QR3w9ekaMq36USN7OLJoketlUmk9vJeIvhFs6NXxVOol0pJu+iqfaZMcGrRSaDLOC9Nadqm9F63a/kjbuHHDtBMEmNgilNuYwwwBjyMVPW20NtIlOkRmbuYGyTwoWwmXCCCWdIajZAAO52VoqvPDNgSEFEuyz1yPfRcZvqtVjhOyWNs+red/IZI2umBRgpdNAdeXf6d8lXFFSo0l6rcmsBhpeG1bH2SQ9SgpQGFKjY7SHN/Lj0hwl7FmsaJdSRABB5UZ/PI1/hLR5mZFboGb3/bvuoBluLlvj/V7ifMwb8WMxc9aHzpdvHDBzNbQuL5W6ZnFx2g3JyZUKwpKw0QQLP9hFtPdxdMdM2Y0a7zqmA13RZFOZ3ConU76u9CN3UyODaJHAjVhHcN7bZV5Sm1varxekZAIUBxNkGRhsfSQuZZ33GGAEDGoVwmJ9/RN1g0oKZFVOhEICWb5kKi0ohMIP6o1qWo7Tnx1Es6pFznKXgGi/RVsMVlYRbtos7vqpKybcoVf8ouvux82sidIGNOX7QcGIWYwyRS3axJ6OkY0xJ91TCsSAFDMtcMeGlf5HRpX8sP52kHmpiMvulHH6xLI7dx2JGP0NUZUUX9JlVi/GJFcFFDVgoYyN5ZxuWn8TGcaNE9xtl3AUCmPZUpW26Fq5JwuQMWuvNKZCX/IrmJ8SWdhqCABh+VTmboKGm3UNEetGJVolcStyCq+jS7nEUYtSSVRoQnCupmHWrs1Y+065onAu1JEtULGfJzrxAyl7TOZa969D5fo11jEUQewlpm0n0wEckDmNVMNVjLK8qjZIC1wEk7T5m/wObhvNxp1J/a+HFztM0lZaQVTSq6LSJXm0IoreR7tjvZgx2PySmQjEHqLxQUGYsO139/IR4LHf/mikC3LPFhKO4bxhqZOeRNZyciidOppaoQxDhj4dfLCH4IozVoDzVFwNLjgv6hjaaYaocHL06R8UU65kUa1+clNW55kiyATMGkh1EQZaB/SMT6RayvY9byS9/sH1bZX7bZ26eLlYowwcVFh8slWnPQ3Cl9KihzR83Q5CLA94y9LCgg73EPMXeShZmaeYV3WGrajOdXMaJxxTEyLOEDA7K8UDRGXETYdAdekqc71XROZrW0kUU+8eyL9ziKRGzasbXffcygDVO/XYFDalCmITyO1/8oLLyXSOfLAvRCim8+gs5hB/nI+tF2ZhscKvMqDsveQuFzPHpmkwBUiYbQ0dYSreCNzaqwR5theGMIzNpV44Q69qGF/1Lcdz6uO7eRKRvIdnmvIbmf/S0cDyyaCsz8kwhVGFUAJq2Ln7vE80rJifQtayeU8aUUC8C6QK9RkkQABgFFY7RBegEDW78s6gIo0YLJ0aHI2Nj1M0mHRmky0Xa5n8IlpOXn0BDuDV7W7Dx5mIQLb0WlTYmXTLRohcXxo3dgoJ3cwgeKB1Lv37Glbt26LRhgpGvWMj7lGrNYUaB5WjLFuDMbMsxf01PEzCJMrfniuAf0botqWGQIdu7CKa//c6BBWNQFuNWok/klqViAT5oiLsFmfCjLAMtNkxTPgo82NTDesgNDSoNeoCBf13aWcE+BtMwywubJcA+f24xNkBv1c4RDqCt9SqtReIKi1ikcwbiBuv3jtdvbBOFLN8k4lKdIjwUvKJJDOPPIbLxx6JLav36pu5a1korZ2mH2LBw/uy3hokszynn37OJH8Oru/trUTJ0+1m2wQ8nG423ds5WFEl5OG38B5yydYznSDR0Han7vE9IVvvvU6ebyFdoA2RpbMXgy3t956h/auNQ/YdnnvmVPnWQZ1vm3fvi195JA5yWCEFOKJA/qTeJq3SgiN4nM6zVGIxMm9OtJiMalytR1zx1FY69euZkukntMWyi9KasXAqW1nL2NVDHD0ddBIvzTw2NmskFGyqewjr3I+WZrSx5iHqiNIpOzeXTvb5StvkM/h5D9CxeTQ5KEAI8nWUlk0NwFFoYIxtqPUZMOqHBJx/uw1G3e6vpyevsm64le/8yYx/hzHFdbs3pssnFi7dh02+W36XMkezuNEieNt/bqN7W0Wirvi/tRpTinH72xYvwEEB0ya3eAA7Lfb/r176xwauj154nT8wzraeuO1d8Kgt948znBgLQzl1AyonxyWIxyIH5mVH1AzYyGFNfAXvRwmGDgEFyg8Qwbcwx9UGJ9DpsakPngHY+qGSfyuRxH7JCuYSoVkrrmZBeqGg/zkd3VmDuwOnOztpXYwkk8F7fbefbswAWoFKo5T1ckFSKo7TpAdXtNRikivdYVe2XFVN0uDgmw99nY3q1ge+NCRpPytg/MjxTPWDh7axwkUl7Jzy1zc+fPn26XJyZgu27/MPR9dcu9994XIrt3SROXRJrwvo323qatL2LZtK8nEtdS/6uO/2iRPwtUV8WywzHzGLIdsNWaJSfXtOCtEVZ4krKanhNm8mKapz1q4LmzGWVdaGWftmoc7RA3AqWeqNLIxH13iDGloDamKzo6dzKlpiijkykNBEnmZ43cNn41YoZKXHEjAI89dlI2QtCvMdVvCfi3onnoHeHZUpy6pMbZkAZ1o+bOoEb8NU02/Z+krgGs2ShA80GDQ9rFj2GRoPUS6tQ899GD7iT/14zjx3cgCFKXp7ZigtZiLr3zlGRiCP2EQ+81vPIdTvdN27dxVdKacjIn/6dI7EtPXfffd0z73uc8y/0/AAzkTyPgNWPQNmcXUNEED53aKKWWSq5wJS56vg/WwbxklvGrEpo0b8jyb8pHVrnVKc3g23JXrOTNaPJazFVirHIqUE+ZUT2/GxA5zNj4EL7hDdOtqbwVwHQvHd7OaUVo72BrDmQqEEZrAu8vM/FMeI6IGSWxNW7ybl/hMf/q2mon0UJ+y6b0QaDKQW5WHtvcdONjWgeRzLzzfXnjhBeBjLRia5RTDOEeTPMJCv4dJCcWsOOO5d1+k8fjxdxEgGqENxeMEeyV99OHdhw9zJszOdv/997c33nyD4+ZfzJn6BYMDUYWoJFecOuksojvuQfikmdTSz/nSVHs9xx9H8FrbwdH3K6GvdLB8JV29U3nBS5zAYRLUMZOzsYkOqWrfTpRRLxwBMTLM5LlkjOYmUROVHCQmo0xlI4+tmza0t4ZPJh3h/R6RXrKSgyK9XcnRAiq101c4GkLp9N1b8qFHHmQJEVvSF/EnOFq3fn/oYaaGtfX0vXrNRHvg4Xvbreu3Y4dXc4bAQx9+MIxxvdm5cxfxPZdInhIYcMjQCojx4MNHIiDu5/dZYI89+VgWjPh8nJVrOYMGodiPmdx4cxPjnDl8DDsV+FMQ65hgxj/glpUtMgJ4jRKlV07Rjcl0KqBo4vq04KQTh5wereW6asXRUVAYbTZehhYJfPQVg0lMXWS2BFf/5ulVjE3L9pUh0xlznAcr9yuBZzsmCB1AFYElzM67trVVEHQaAE2Bm5rIElT6dFGbZm9+gQUFmkmRFWRtaAarvsqJzhPByMz9a3fGxOijbMSzAlaTzRZU8OESGett68jiMgbhvkStZb0GJpgMzoMxl7cak7Z6XR2Bv3PfjghGBshQas367WGUGpiBIxZglPB61foKsQVRM4VBjbAJs+keF+0pSMKabRQhHFpioNNphv7OY75kzJ1bPPIKE72NtWvbWW+WgSdMVPGiZeJIGz6F9/y5STSe1TuU732WOGevTc8pQeqZoH32yKiRsY7TSKWMqicxLbAcdRdOlD2Ht3G+l262h3Hak5d5ygTboA0BzXMpaHVssCrs1GnF+z7yqcTI6MdF2ZqNsulGpZYz3slgSwJJSMlPucWsQytNy4ATIZHY61m/vBFmlYkRSZwx0ZylcxxiiKjEa56qnm0mDxbiOloHP9c1wGs1x3maaQauPrQhZ+9TzywyYY2DmmIOqGjK3H/p+yZ084FD+toDZNlduK5gJBUDABU4lAo4oHYz1dr1W9oUliL6EpyxWiyez6JyX1bsxy8+6McpgImNPjreEnCYCMftGI5ddGiHDx9oz7/wertw8Xr7o2eeR4uIeNZsIGdECoJjngwFt3BykftolBCl3pZEXEYYlsq8m5wpo2FVc1x453kCOWRbDQVIEZdRzhKaq5LCgqTDTW5KhsDAmE2ux/TQlgyXgMnpeY1Py8gQiZ5BIf04KA2KAQ7pNovsQJGfBiWaEOvYr4NdmeZMb5w8WmKb4nCFlZ6nObvMweUK/N5hTtHIpmOFohvA2oxU0CT6uJTMBeEXa7BajBNWg5kMVaNiQtAxwbW01+H+BhdwA7/XbSQn1XFB/3OE8PQrX3kuAzofkP3OsbMBUik0Mal0Ro2VSAkPNySyYyZt6IR2NH7IMjWTqCnJiUkS0m7jv1w7prPsRIh2Ha6ZxXatlpphpluNr+SnEsquLMZnBiIV7cBa6mtus29GyRRvarlGTr8gCeq5BfSlQ6a7nFIr8YAjJ+Lab8Co4MAy6rPM1Fyt27C9jWM19u3f4V59UkHTOTVEdki/Priw3ttH3yWcJjvtpBoXyvcyuEwGY+z8wMdAVfimi6rjPUzCXZy8gjrugjiujBERH/XhmY0Ql04MU+8/crg9+/WXiJhwoDpKxyBBmJwZGtJnrb0QJiFh4jU1vdiuDzFWsiwUMRLsTZfSbH2ZkjGewuAFGYxZiZnjJ8oSjTHkrplGr5u3Kh9h1OeIu0dac1L7eiSTCmTfFQl5wd9ZAapmSzn7o8Uh1jx43yMghTUnTQmfn8LD5zzr7ebmfZyiGYBBe4AF68Lo6qJsEO4sgPVsw4WMr7/xFtMkPLBIRLpXvgk/+zZyyI8I+ScFMkqnoXOTFzMR5vleRVh3Ok3VLjKAdlby05/5VPva175dKzP1Q0okwAqIElb7S/qOJapaCUFdXBeHUiYro+Igb06sFnvEh8gLCe+9Li0S7U5ZcaA9/iUNHzi5IT/57kr9hJ8Sg8voRXBLBEnDCkLGEDReXkxGFxx9CqYf0wRm6mELAmO/eKOMs+3Zif8WMvZyfUSA5mU9rUSvLe6cePPo8VgKI7teU6oBLQMItLYbq6GU6SbLadqxdvki4acPC80iCDqRCDPsM9HW1wh5OPtMnv7kE/ijqzEfkXoJAJB5rG0oWwD6VfPmfIaCKTFq0RwgUU/iOtapCNA2OgKEgUJXf8vrmDsTpMQmva/JyVx7+ZqYHdrzvtpMi7QA4uBtWRfEK/3J24WylX4Sdv2CgYuRooTrTbRMV0sCDYJo2UgCL1t36+M99xwsP8e1WnDS+TYKi5NR3isvv0rp0uZKhfVaamvJ2pNLdR5eJNKfhME786m9PcM+R1U4jEOC7T6PLOHP766x/fSPPE2qYwPA16Gn3rPxrDixTYguBgKumoZRCQTKjIm4ThJ1o7CS5ZipJtg0S0nfWJf+wxR+GyorL0kN2pYDS61Q4HL1TEKrvGzfZVBKrgCF+bSVHGCZjfRrU103gd+BaRYAyhza92bmfKKlZghsT1yEgTcJ0PtgygEOPa3p7GJMtFoMhBnp9EGlb6ExG8igRFuAx6aqbTPlwDoYLAy7plYCZlFDkNWfKETDZHRPJ1wsdVPeTNlwnKIDpQ5pk5if+oEncHRdGsdCecc4RmqUFIFK6Jvv3FCZgKg0o0cwzRa+fir9rhMIAsJUa42DpHX947tSl8USHTe8L4NjiuhLZnyAhsLiWzBEvpe7TuPVQCtK05RR3QE6y1gFkHJu/UggQcMLbPVYyyD48cceKSJbnpLCoXn3VTDxvDUSre5wzlM9EnSIg5hYpepQ+xQpGc6et6LXO0JFuvh3/uLFdo1TVPMkIa4prTbqwz79ndwXwH7sY4+1++87gHlwdrOILzLet/NYirzKvhe6JUWWqXkXoyqZKFIFT8Y5mDLD19SOdBkRKGgl+UZiMYtBDcQ0tSIqCvop/hyHuI2k0kNQ2/pKX+RBPLo+OwZHQ3knYLAfiCttvG5ZtdVP3wNXZDK++cnP/WhS/PreEj79RY27inalOa+zHXEF0yd2kSx2hEgJKAzcSMbJtc9iZitBqYR7iE/Z5fI5jkFOck7kENnaOCXu24nmLI4ewEzXaBZ+5mf+Le77EE4GmGFKrx0SScQlX0mqCIfQvpVYJbp/h1jFoDxroJM6Na9eUpx3x21NcDSem8pzmIk5yDEr4uZnuiOPJyFpp5w/cCHxapmmSiIpkDliOIFG+VXxzdljqI+D7Dy5A87oy5xhdWz1IwRBbrj1mrj2VkIz1hNekKc4HvgMo30HvQtLLmbpmSKoCkNZmEuTlyYJwevA5hSSOB0edqoTfPfdk118X9IjBZQE10MJtBGKUccadlP95//pX2VgxCCRMyJ1rFFVu+d7EFVMujqyyehJcid6oqD3LdrLv/BoPhz/GME4OeeKxkwkoUVGOJoE83dKmvMspoHMbI84bUBZg5JYAK0B7/RpoCEc9sRnVnx2Qhf44kcAzO/AI/zyNqZJ3+QtYSUz8OTjj7SHOeAhy3jpK9MgvGrAK95laRT8C8zvT3LYnrDI6Hp1ygCusS7cu37z+jSrWn1EPH9Rf7vX7tWkjXWvs1j8woVLPDF8U0LOcFbuk72VYGYBLKcWbeB845//j/5S+6Vf+vsseCOtMLG6s/0lDcXI8lUCEMeOVCcio3/9m33XFK1+gy2F+jROnjUanOW78E0zeLxF6sMgIVFjsTzC4DhUDRd5YXOVvRKcZxJ4phga4aBP5sUEdoJVI3AZpE+zReDSSChZlEx4C75x/PQzN3enPYEJ//hTj0tzrvNfyjpQ5WTeRLoRy7rIxxtvvpNBrs9+L+Z05jK2EVp0ZWEwx4kSYipQQpNmJBaq7C+J5ikYpzkoZztJueooohSi+sh215uZxMvoGOI59fvzP/+X2i/8wn/LQgtMx4rVOU7QwCLdKHsgplS6Ti39cMOzhm9cvYwQnOeghdrasXYNCUng2sQs4Np1PFaeSGb7do9w5/zmdRtyzr7bw5VkNUWonUGUiD5MwmSsR+VO4iuvXLmM7b7GJGDN2N5y8QcEXLu2lriuYNHESpKHRmya84TUIWl0Q3HlaOK5bLS9c+dm+9yPfqo9+cRjwP1eglfBlg5lwqQlzIG4mk6e18OTb19lgA5bNPNpWgZVxKg21wEXMciNZ5RhdlR3f1Iu6oqDX/K4JwiuSp5hXvw+Vq742PZawBcjkLJXr1zN5FlpA4IDYhsh3N/+23+z/eIv/g/t+KkLbc0Gp3qVOjPQOkVWccKsy5fOZfmPAcQGzmV+6P5D7b5/83PMlbDUdvceNJCJJq7LAKU+Z7pEI8rYGYlJOP90W/72e40fyt+UmVJQIQAAIABJREFUjRevyqeZZPXcm4vMXioER48eY+PT26wReKedOXElJs7TlFZztDy6ES2jyeAd5uMbfu5nf4Yj8Pcygp/iusONGLrQSuffMyfrtmGyg+MTx0+6IantO3CY8gZE0AH6wb1iPqgoUFqLZJczDwGXLeN/sffhKISnjmdyXWZ/4zm2GxwgB6QEe10ZMooyfHal+3rm2WWsWGgrXYH4V//qX27/9J/+dvvas8+jwqa6meIF0FssCzXM/jTn6z+OOdizh618TCqZvbb/mA+lFrg0VU5uxV4Anx/FCgVOWOOlpJ0I1Nsf3uO60q4kx8/w3SmFbczbbNu2qX1o+H6a/FQI6qE/Z8+ea8feOdq++rVn2le/+nXoUtsPXbnvrun7jhxqn/nhp5ko3J5Vq86Y9i+J6jxNjVvSfXC1X0PrL3z5j5gr2lUZCOxthieG24Gr0BM/fb5rGQZOnxolUReCOErDuWnWqKBDEz1zZG9ygLWrSxbYvBSkoZ4Ief82CziUUle+J6NqT0oKRPwzP/NTnH70YHv77Xdz6vd61o05C2n5p578KPH/Gibc8GPnZwPHCFqq71L9EyZTbg6pnCdn5TT4mJJrOXtRexASJVAdLqbKLBnibYgCrD7OF91v44xtsFHRagtUBKpQVgqJM0KZDf0QUr2bdQEX24/+6GeToLzAuf8S0WPlK1dYi+vFvyLT7mmzkW7lp7QzoT6LQ9544xhDj8m2eesOIE2BgrdKl1J4GR6pla4RB8caNHnRXJBAu7tJyPuQ14jl7IWLqOJlHumxPiapa1Oq5OVTIyTmJnxM0hmUUY7NWd173+F2+J7DEMLnNk+hHZvbr//aP85CiitXrpCJXcNEF/6ChKoHf9a4he3eADhDmy+dvdLO3OS0J3Yc+MhhJ+l80J1btEc1w5o2GCBd9BGz9O0k3m1SSlM+ioRB6mpM0GceuY+lp2htCNhHY4kF0WjMK2U1JS+++GL78CMfYiHI/mSp9+6pB2vHjzK3lGl2+lzJeETmaDEWeVCSlO0FWtrZzwK+5Q/+8MtErTwUyLVstB+TjNArGIkQWUugdvWRocI+2OBDEDzER0aAXNlnQJVTcjZrkdWk4fY8j22/a8fTdO7YpYKGJD11eAQRr73+ervK3Pmhg4c4pWJ/8U7gOt8iEGaz3cjzsSceb7/+6/+k/eRP/mQGsTPsNDaSc0WjA1q15hYH1A0xXzLL9Tv4pGvOp3PPwx+yIsc35iZjGbWG3++NQ/QLLrzCT8Asz9p3cmoMApb5KB+ZaXNh9JN2v/Wt59trr77Wfuqn/o3ALaM8yVwGaDIVPonroRO///t/gHSPtU984uPJG0ZTaaNoqLKPtle+8xZByFRbQ7AiDW3TxHAF4MIQHYqg5DAjcQKXgeGbnHORW9Cj4ZiqzvZZwT8HlBcmL3PG13metrQdkzWVRW43iH5eeOHldor0jY3uZRnSF/7wi4SGO9uP/dhnMydSTlo+l6OTz49/9NH08Zu/8fn24Q9/GGd6EObwrBZm/ZyTccySrMDYXNuzerxt8jkwaPIssM7xngfeeYTHNeIKjuBKZNcJqEWavJVo1ApC4xX4u/Ws7FkgbcQQOPhm4s6V+5anr9u3brQvfvGLWXf8uR//sYyJkmAMzOXDYl14P/vss+0P//AL7dFHHyXQ2di+8IUvxEwfOnSIBYsHM8B107Czos9xmNAQics8eoQtirZh1l4lSIaC1hVYp6btT2uRJwLKYW/XHhmYA6C+clgBhE5+SC5CgQUM+suvvMG5wBtYlTkOgN/kgLbX2oEDB1ml8nAI7QLCj33s8TyD5X/9lV9hadCP59A2pd5XrW607cX26Ec+krD3N3/zt1msd7J99KMfRQBcAOGkGs41al+TaOP4npX4GreGJBsN8zLXoQTHHJQI2Uc0HzSGkXTG2EQw4HPLMY7M6IWD6eGckjHavv3tb+Psv0Zm+HB7+umPZUpYPColQ7u0PWCJrgL2W//0N7Jq9E//6Z9kdwNngVLW2dzzPPjHwbj+84knn8hKne+8+jaCfI71BhsjNAp+YOetAZXU6odCb+SmkIivY6zBxPiKOcchSrsgmwvLwWj8ZYoVTpuyyIwkTJy8dKWdZlXKiaNvkZA71X7sx3+Uwd4tTJhLa50uHmkvk9b+gU9+gkNMN7ff/K3faD/w9A9m2/c0z/HyBAldt2SUSQcxeX/lr/wH7bd+6/PtH/7qr7ZHHvlIO7DvQMY4ARBYel/nSN/vqkdNISDJtCGDfOWghW70HI2Hacq6MDmrmvbQ4Pgjzha5cOUSGvtbMR2aVBcEJhDA3+TQH8+yoX3zibdYZPFLf/eX8I/b20/8xE/EwjgItazPUtt/YE805tSp0+33fu+ftR/+zOfaN771Qkyv5Nck5pkHYq7JityXrwvwMk2QFSjxkwMV0xjVIKk25A0aStgLQ5azoFR3A+0f//EzPJvrTPvL//6/h619JxzPNr6hivkVjt//Z3/QPsFczc/+3F9sv/LLv+wuKSTp8RC0j2ZkjojrT/78n/932pNPPtX+wS//Snv1le+0hz/8CNq0LlHQBD5pZU6oFTShr20QfcIzjJMxajft+0ukHanHZDDwtY5r3aZ5eMTNmzfa66+93r6Clnzux3+kffazn40Jlyk5Bh4i6QucM7G7F9lZ8Pnf/b2Y3B/+4R/KwDQd2nZg8dQQAh7yhAcPHuBUwYfbf/HX/jrz/g9h4vAtKVzaqvnSP2cFLILiS5hr7bfhsxEl9CfU/WNCwb8mK9kwlRXoMjKuLiYiNoJXZwIoOE0ybi1rhm8R9QicA0ClMxuA0AiPCTGo+PrXn2Ox9tb2F/7iv9u+/o1n2++CnIHBkQcegIgu6bEXmxjOpNyePXe1v/m3/qv23Lefb1955mtZjKewmAcbI6x3Hr2O0uXsr2iUOwBYUAd8Wf8MYQVXWVY6nZ5wVen1a9eTpZD4ZgRcZ3YIAv7iL/6dpG1cHKgZ6esbQDiGeefdd4H7G2HOz/3cz2IBtvIQuqsMSo+ylu0CR21dwcesjy/1eWv1cgXNStqczfro/uVMbCYTwceXprjXGAWffzFvABJzN7hw6eI7qmof3qlc1QDSIMZAVdFGrZbUzvoAtgtXz7eXv/Od9ugj94P4pXSSYZAGmS+vvfYWtvhGOwJA1699uR26e3977NHHmL17qf3q//4P8S+PZQWltlxJVkP9bshoqPrAQw8kwrtKOO2I+QIj9RuEpadPn+TA0etkDHwCnxKufMMKtRsnKxFNhUzgA7X/WzZv5XyyLTzeaicHRezMfsj1PO9mgkXovm6TcA03qajGaS7fIQvwxS9/Ce0ebR997LGcDGiG4vbtG5RbbDtYyLebJVwuV3rllZdjzmBHaHiVnRC//Tu/1+6518GrPWiilGyFpjSnfnsnehQ46lv5nWQZ9u3b84lnnkEqqpUUzMlDqJkBgFGEKRRZWudtMVmGI99E7uwLX/qjzNj5jEiJareagP+ztvcAs/M67zs/DDAoMxj0XghgQHSSYC8iKYJdItVYJFGiqLXkxN6NHSeO13k2Xj/PbrLN603yRJYtRRJXiURRlC2JEnvvvZMgARBEGfTeBjMApmGwv9//3DskAVLSbrLfYHDn3vuVc9523n5WrlpbPfviK1jYE6sF8+dHdLnx2jtvrySo9snqggsujGh4+NFHq8svZ/0BCVmfQI5rmxqMa8s4XDLj0XpaW1tr1OxCiaruL9SvCPXeMRS9nrHKPgJYjspiyj0jzkKpZfENGJibRBDNT1HC95s3b64eYUx2cPrMZ68BAVMhjn3pPGsDBe+rVa4G5t+jRh/BYzyBsXq9uQpVdfdd97CD4A7stlMGgF6KqAR6UVJiCEdLc8GvcRCv9WamIm7Igb37V0hzvslEZGPe16uIZX85xrVA3JlRn8Y5wGDOnFYW93urm79yfQy0KBCcv2XLFoqKJrFIfhpMYZDxma56AfnAgw9XM+n+euVVn6ouv/Jodc9dd7FmPV3d+KUb0PbGZ8AlYFfiIt5vIGmBcSmyittDYAjgmooflMjhynKpUDIJI4iG/ArMcHYAxHk8y5ywzYx3OUal68SFF17IIj43om8j3Wf1W1n4mvWr9rxyX/v5D4NzpvJdgc27766rnnvuFXx9JzFXtLooJY6KC4FtuFv9nnsFKWVwGWfumf88F1G2YuXKTeQx5eOILCead7UJe6KLbq4xpKqrHeqAahuhysGdQ6tnn3kFI+scLG26Qyjn+fGh/pRFVWCUHWVNcbKJzwYmbWPqiwDEXffcU/34Rz+t/uAPfj+LvbWYXusaVwdmABmAO245oyAl75lo/XDcAwd/hvoAkHEUE/W00o/guN20eRvrWmf8cK5Tl112GV6LcdhlB6v169eFkrXsNSALQsr65dpT3/lCIpGbBw8aVu0gNHL7T/4BRYAuGIjJEoSrLfjATdi56Lt+lfw8RslndfhkzCDPuTjvIYiCoyZeIxicaYCazXr4ybncKBhXbTZmAOfEbcPnynirt95buxYZPqWaPXsaauUBnHzTqqefeTGdWk+ee1Ja6ur3d33i2WxtSIUAz9If9SQbh1po9CKibwuqphXAqpZqav7Gb8T7OoIck8AO9dUQFQ6SckBE/bPCJToW+6rHn3gynmT7YMoBlgi6Rli66PnuxanHef+BfRGh2XAVoNefGRjUnqlUidjmvUqJXgpLwm+99ccQ3NZqDiqzhF1fnyVUxa52lUMs/wXUhYQiiYS6tpeehYjdYwT5SjxFsrBkL7cU8Pw0kiGjZmMqkraNACjtPXxEoWbX+pPol3/v/fdXX73py1Dd6Goh2SLGQl566TnWiGYW2zlxuYgUa/6TvsoiqkakyHj99der09DU7OllMMzfgfBzAAIFYYnXEeSrv3WAOTEB5ZExiigJjLH/+LafZKz/5L/7w2w26nqxdesWFIpdaFbbstjrIpIIpPQUTgEk7+Etk2NQbp37C1DBVNYs05z6q1v/7x9Vb7J+zp+/mC9Kgp/FSyIuuQISNUOKu0bNzMVCePNXiWSCDM0GvmMP6Ld5SHcQ46KeZ0cUI4Z4J8DztzdggVURCNVkeH4FB8Qfws6wiDXjDHf8wy+rL914HSrkyET2Lr7ovFCsSPG6ANC/+KcXWUVhz57dcXpeefVlAKMk1EmVUb19EP9BcwGUYqeOgHwVpH0AarVnlO8o1YYj9+BGuviSS+DgZwbC4XJNCyrzWMvwXPxBssj3VvnlBiIq96lxi3/rLvM70a5/sRcD9O57Hq4ee/w5bJbFUYGT5OE1LstyhYqJKBCZ3FOaiXYmgO0+iOaX5/CRSMNG2oGCc7RhLO6VpDCFncRGDYCcqcYjlh1Nvue3eEBrN6q5EaRc5e7MmbOqX919f7Vnn/kA+IQ0xEQoPxmk43GAUhEf6P11r+XLLrsM7qGaeOD5jrT8+rzyXMFRjuMRUn///qvXwvXRtkrYu4UMlsl4IqZRQjKeBtp6sk1hdezO2zHVA3ASY92FknnXKN6nOw+HaS+zx598rvrFL++m/LEVm8pa/oKAGKqcpmfAMQlwEVaH8cC64jP53jH6meNFjPdRdXCsQeClDLwm3/JcTkzGvSMB+IKkxC5U8WRtfpmQA3E9kh3di94tP+y8dP99D7KIEt3DvxTAZkJit6iL3lbXzxNPPF2diTW95BSTGTzL6XhujUB8E2R+mDPqRFI/ty6+yoRdpBW5x1hTmtmx1ryDvmo0cR85w1vrvFSkuq7UVfQ6AeSRQMpnlFdn7/OL/E8sB5ny6MNPV7f+4CeJsTRxb88XDv5mnWDMhbB9YO4QJskYnZPz1AMA7OuIl3ut8LOTRsNYHGxpkSErKzwDSJEip9R5SOx79yJ7VY3VMARf8UwDcLhLsSUVjqNW/zY0lL6jekqbM0Hv5YDridYvvvBK4vhXXnVlAOkR6q0jpfaaLzhyD47697VPQ22Z+cBRzvN8ta3hhA1EQCrkICoXdTWt7RTZPvP88/GDeZOo6bV7SemOpawzASG/Jfhlb+f773+0+uEPb6MTIQ3zMGALAr0N8KvBKNcIMqWDc/cr3kdbzVJeiM35xBWGGLTxuGaF3Mx5agFOWOFXFxcuTB5lkj5BDbWk6Ch/0c99bnl2mQCTlmUbnDha2JIlp1X/4Vt/h9G2HTYfHgdiGvLAYe+9tyaa0D/+5u8PeJ0FRNkHszy3jog6vOsI+fDnRTwUwNVGLA0EQCCCYbqF/RHU4no1W2JDPGv5ilXU2DNfFuuBWULKQQY/Pq9oZcy7Jj16CXr9/c/urH70oztYU1BWoOxUHXN+UUy8UjOFijqJNBxaxgiUM5V0WfJ+IoRxhBjhbkcfUYaGXDbSJpVQrIqc4oqpT7Bg1Af5vZLGpAknlcHXrvG6fM+tDVg5ieQ/M4AzzjyjevLpZ7D6VzBgexZTuk0UdA0uj89+9jPCZGCQ3tMJlaOMofamsP8AB/nd+9Rdzsko82c5jYkyYCnRzkeKNTtQ1FVgYbSX/K7N2DJtqLjt+NO8a0H6++JWj4cEqeZ2CO/y9773w+rBR56oFp22NDWbXlPfONwkdcPcAlyJomRIcgiwiYEsfPyVFiQG2ZNzlTgll7qkYqGxkqQEogGGnsTDYMteHpxbEOJTxayTU2w5b4HnUc84tBbfcLQDEHHpYZk/SDh3cHDP1OkzKWraTGXw22nY2XFwf3X1p66u5tCQNIukIrTIkNy7ftQB/KEPs9rVEVDGEu4INTpuzy5ILUYo1jmqsE0lShDKwimIhnmcSg+aV+mMfu+991RTqZW84LzziM7SHQOCKuPhVSmA6HqDjrZ3/Ozn+NX6qplz5oX7DXblPCWOAOex8ksBfCEwvw/CnQz/PEdlyjXGNc3MUL8IkXOt6jXusNWIs164rfEoN9jBm9bBPFDWcv/GpKdyuJjl5gFATWWGRUFzziuyEpsmIpEFT22osEIe6t/jJ06mb2ZTtWPbluobv/cNopVzmEAx0uqArgPUOTgh5zzAJBlJXWzVx1JHkKOr/5bP6veSgPR8p/sH0UTvGyUGQjsHR+mZZ5wWgCTohhgReeZHO6ZG+tbYwOF+fHr33vcwSs00rHwKbLk267HU7qlSPL8ZN29d9D2KsiAmimFt2LhA0OEqgRgPz8zC78V8KWJw/L7OOHvxEAxi3L2rIZTW0F4NexqYRTVG7ikHgyAfyq95AJqy3FQqCdsqvih81XrNcxyg3/OqE284iX+LFp9C/lYbk5yMmxy3fXxMRSwVJHyQ6utA9jMHXxZkJ11fbwoA6uf5rn6UzxSthh/Em+WIjk0EyDXpEcC4FTHF1igBuXAahvXq1euru+++t1qzto2+AAsYP2leGYMwFAvFUBYpAtreZKCgUL/qsYa5JzOGYkw6T56f+6ts8MJ1lhNKhBKNRjSEFFGAY3XIILiD5pjlywDVZ0kZWMHRKnKxKJBn/JJXqFEO8U3C0yLPKA6fpSCIr1JJlWQJX/urDjjM4tH7H3wslc5z2FusBUWhnhNQniCovG0RW3mE6OePupbk38cfH/7MyfiPRqG4YUznPURih87XSA/5hHsoogWegqTezK1tw9YEAt/Ckh8xvLlacqoh80yZV4m1xJBEZiobJOSMrSR1RPUKAgqBRjWOxPImzM1z5ZbAi5FAKLBzTAujqy0jR2ZyQ8h0PIaV21VHgCzlBaHk4M6kBybg87hpgBbDsuj1Pqje8SE9Kq1LCUjUMFiDrDRWBEpnPFJkdVAu/SL7ill/M3vW9Gpu6+xqZBMixwxQfmqSOc/LCMJVdc4pf+cLj4KDgbcDf3CN2S0qFIaJzcAUsXo5euKzUyMqDskGcgmM1z/62BPkgK2LXTJrztyo23XtqZBLUXpiLGZGBSYiw3f1MYoAU5mlLQkytp8UXzs/KjN/1+FcNz61qYgT5UTWmOIglIXr8QDBKEXAnWBeaig3itYEUoqHmbVIrcNMk5qI8L1DFvgiQ1LT9WKdvSlHZbUijRR5f4y1R+rcvm03e4+tI27TmkyZZoJb5mjFEJPzfL73U3TWiEN81eaZP5xJwaHTLcj08+QX8HYiuW5uXWzkdQy2E4ItczWP7M03VlB9/UK1Ag/E5GkE02ZjxSf5nDsJWIlRLggHI0FqY/DGEdPCgGdoJjjmrNG8GjaxC4cYCoEBOltlOaeECZiTGT3WgUbkcZBPvW77zu1v+PcQLWIifYyDi70xr7kPSFCE9RkS9VuBAdsEuy788gR+nqIi+EDRKey0eYqDUyClYScAQurGCPWw9VVdfKm9GaLd/zI7IiHPT5rJIsvuF6PQ4BrR8gpyC6U6yVjoyvU6AnLH99+n1oXx+kncLAx8AgG7xx59CsNtVDVnbiv+uT3subyapJF3iB1tp+sfu/8tPSNWd5pecyiqLXsvWT2KHmYq0Pk8eRHgKc8BU3JEiA4ApEY1SSHFnRXpgRRRGQyXcu/ARMxzFJJHlHJ/mKS/paXFoYNUBkM85qiICIVFNhbaTmpQHqKIAiA47XywsjmL/CD0fCYuADU6w7IRfzUq57sil8vgSauKIpDBhAoLIt1Gy4YZu7At9tCu6p1Va6qJBM1m4NeagF9rNFn/TYi6ZGkC7BqPBDX+7XhFYFnzvDvf1G0Fzjnt1DOqp556ufrPP74DF00L3usuaZ8dASdWp5L0oTZkn2SB/v7aUJAQaudXgnDtVPvMeu8cnSrPkQsML+v6sRxFBOoE7RZJ/Mg5WvReFzEdUVjgFGxyvXBSzI6q5Q4MIU3oCMkID9MR9VpPSvomr0Ybh7IghRBkWd53p2dYV7pe7NyxrYSg4RrXkUaStSdNnooWNJ50UBv2OJ/6IljCuOlGAUHKb7GNQvmFckS08R3zk3sopdBjsGsPjTwBRAtOVrtFsEtE9ohpwbgzepjtFBmvWqF3Vb2VUu1YYSaL9ovcYSnG2AkTq5PkXMZr/X8jr4qfPgiluxYWF0BBAM90ZI4/rhrXVN4rLeQcYzB+b6CtndBzO3kJ7ZSQDAMBdgs0T/koIn4mkUzby3d30W+HoJsIynrprBXR/BGvAjcrUqYh8/TINiUPPPDIHjsyeHKaRjOwer/IsniVNoG6UzppXThrxtTqD3//q3THWICfrZkYeUe1fuM61oo1SZzbtWMzAbTxAGNKsvzV12M8xdusqwTLV+UBbSAijVdlrsA1gV1FQztK4Lpx0REAvYuWIKqaqrtDAFThCrml7KSX9lJAryyk3AkEGb4VaYqnLup8jEhKAIXii7gKwUrVjMmxhOv8paZPSZG1JMSp2cA5ANI6nk0bNwCvo9XpbIA6+xNLaUaxOH3UzOJxDV6PMmGu3Dt0JtQGMvdO91CaVPhMp8uNy4/LAssHi7od4YMY/zNjpC6XXZiCTUaftM5MltxfFuVtpMde++krqy98/tr0GTaJYSih4OkzJlenn3laNeiGhmSyvE1e2D333Uc5w0vo/2MoNJoczU7gC1wpJLlqEZ+1NB4+U7zEOaqtgaDQ2AtTMXwRpYDtNwHDDR9UMRmc1NcFhxWLWqAWZST3AbD99pH2PGW4pfFwZVmByr3VFIWUxNKPL0ykuCDb5FQ2qT2e+w8iXYu6ml1bcPOMrD73mUur89n77EzcTmOI65hX5zO7IQARvIiWLhdfdEH1/e//Z/IiHiCNawacQ0eqISWpQ7EXPmQARfsEKTiTx7PTu0cQYyykXlCqFsa/AgQuluKk0PZ9HVXr7NnVFZd/Ek1qM5yxCYDjyqAPWBcixE5CajNWmJ1/4Seq80juW/7WWyT+PYRq/HrVQ9/HUaOpbfdHrnE9Ymi+l40lAmHkswFZBi1VGSOPKq+W5t8ALm4VECCw0yMA6CWWXhNDyXisqbCJhEqZAC1FJTUlxbUiOiTIS0aQBnLtiBEq9yhrhAUct3cPpRjsorTs4rOrT336qmiQIxBTEpjdqkToxo2bIcoVcdoOp9HRFdT/fJHA4Usvv0rSRwc9/keHyNVSXYNkhvArY4wDGI6oB+iCGBYmOTUnKSIiS3mX7EpeTdawHGHxkrPB+mFEjAGuFdX+9sPZbOEYzRfszDSkEYsaaktbdBSCRYuWoAYvYGAvV3/77e8S01/HHmKtIEFRCYCV7SDItSVyls8ESmlaJ3IEJMBTU4Lai77kgqoo4Dk05z5KFk4varDIK4hlDWG8jYzHDyLTQ/agmntHbIpkYS53iUy+870iVBFRSvTkYLYD7j5Sbd3URinGlOqLX/xqdjpvxi1voVM3ZX7etxCSe7k1kk82L8ihdjhxLsWX3QefePKFuPVzvs/ht7i7yvrtvAk2HmssRaWFY6D0/tKTvmaTMGBlqUDO2uMCy2RNquiih7HhaGtatuMpPsh+xYMBki4PNbwhh9FACN3aGUk7QU3jgvPPJx4+r/qzP/9XVGy9S8L1PIDCQgwQ4hBlnCZgeHifurtc8VVECecxSRHRSVb+9s0bAcwhKLa0cC+aIf3FuNbF2r2VOwFcExqOTlSTMEweH9Rf7BqXEGMCgqlkQRriNSEFQEvRrrH4tlRytm3egMNzfnXz176UzXu08DuRDuHiFOsK6KIVmgg5kXWsqXkj5RwvV5deukxLPnGnwhkl7bh46FWZsZeCJemhQa5awbNX+z7QwFu6g3KMDii2RarNGsOwI254qJqDa9W+fQernhkIBCx0yzfcIvcAWolUZ98vhDCxcPw9aEvG1Y0gyq5d3XTso6bxe//x29W//p//9+r1N9/FmJvJnMoa4XOkHpEkK6u2ep2vNnvoYOHsQOkYOvQYucGzqi9ff1W19NQlhHRnpfN42f/LmRRt0tKQHdu3V6+8+hp5Xi/QFHQ/k6Z7BaIUs451jzxo4FFEKkj32fyWQ6S4l04P+QI7gpRbbrkpSX4dJAIGqRwlP0HTYuCy6uGHH8ObsTXbeB1sp8cmSOzBDWXCvUWxFh37lJ1zAAAgAElEQVTLGd5DsZ++AYjCeFH4bRw8uOw4xy2DGCi0gwd1IgxaZE5pWAMSSHGBWe9HsSsmkva6ujp10byIMp2DC+aTGMdiL7W/u/o9JkOWPAhyO/eJE2gu+trrGK+Gd1sik5tGNNKo4XqyU/4OcddJHX5TNQy3elhaUSLX1CjW+XrvLkSnduYXb7iWJPVzcd/MSUmh7hLTZKXW7G7ExLKYMt4xZHBOQD1ecsqp1c033xQN6qmnn07SxM7d7YxzJIVEo8qC74N4dkLCoX5sEj46AGCHUOx0+eXLopLvRSs8SD9ouXkMZfOlGKvCKbummjfv5EiISy65kHy1rRnT5z9zJRzdRDL9Hua7g+Bh0cjkRnEbEev6EblcCq5wqtbQXl/8m1so3RrUmaxzL+PkiBgG3Y8OqovFNWQ75djL33mXVu+z04h6PEZgJwlypupsobLZ9ru2uF2zdh2+p4bU0ZjUt3XbNvZJbuPvacm2vIAy7IcefQbka/Fig9SGoyLg+uZAY4jCuUOwSr/6lRuqs3DTa+McgvLfeuulyHh3hFVsxynohLmPMSCxXNZMJBaImjx5WnXTl2+q5uD/+qv/82+YF6KXtaNpSLEZZJ+0NJH8eRXR5kxfQ8n4eCqy2xj7qnfXJunCDulKCiuzlQpbqHpobZ3NOgnVwxHz5rWWJEEG0M19nqNtmIbzUByiEZ0QQFFSyIdgvM7ZgTvX+sLPaYVjiHuDk4IU5XVRJ5ViLsr6vvqojz9KTeLJ1eNPPZv1ZsJ4LGjq8YvYI3mPiVh2rpazixoat9Ddv68NGTsq2fHq+Z2ko8oUM2bMQLzsw1XSHPd7sbaL8YYc4fmo4airR+CqWdgGs9gSXpGpzfTLX9xVrcFGmDxpCpb87dW/+7f/G8SAgxIqLXXyJecsk2ONqiNL0bNw4cLqFAJkK1auJwXcramKRlQ8vtpvRWXvB6ACkbxutM3OiJuDFCutW7emVAegNjc3s76RuSnxmeutCuANJOIuMv2Hg4iXXnwJs+EhmqiOGRDNrmWKrYjOmijP8oE4l8PqR0SZ2gQJChCdVFcAY0mGKrQcFCzz/iDh1TmtrdVDjzyMYXUaDacnlwJV1oXFCxZQ17Ii2ttwHtB1xOYHZDfu3xPNzVgDO6IyfKOdhHxRtWM7MR8VD+VxvNh8JkAtLT/MYMdQyuAi3I2n2CYNGrWfXLYMzl1BT85XixoL2+iZVjTsoKhqLD2abQThhAWYzy79Cfoj5gRgKuXERDhUGAW0+Uw/XQcNGQ4fcjclx9dQnUPWvyJEA3FwQ2uY3CxR1x4N4fjYeL6rhIrJiy88XL3y2htJ1hjOWms+gzqCdliRTEVFV/lwzj7D+tQPI2ZoYyfUdshxBjE17slGAO4yxIVRAmrUPe/kBeT3tlF3uYne9WNA0PS0Kzn77HO5AU9XfnKfemm0CQadeHftIGvr9kcefYzBlN0rXBNSVghY4paQiRFFqryjubcOzr37bO9eOEJuvfNXv6LodFX1e//NLUHajl072fJxR3qBteC22Yx4EdETCRnrwzr55NbE/pXRxvqt4anbDkWKxroqohOWbkE56Ds6qXrisScpFzkTJEvxYo1/3QU++u3MLVNxca6uhfv2d1Rr167H6m8LIiZNnsKaW/aOEfiCUTrQEACq/F/WxXrwjGylMhweFY7hxlv+7b//dhuvS31IZC2HslA1Ne4z6Umxxnv9SRMnTuUTVcfO6nmKe1RTFV8Cw2Ie005NE1LW66FWM2rbsJFKtB3pOj5xIi3bQUA6Y3Ct9oy5aXqeBYLIMgtlY9t6Fth1KemWYtva3q7sQD4eEfLUk09Woz93TVqS6M4YSnaktaEHaBgxljG0jByBpd4ZILkZw7PPvQxCV/PdRNKaGJtzREwLXNVjjVy1qKMgZur0GdX6dWtpIPFrXCoT8XjPyd422iVRrZEiNtLbQQ8AS+LtiGhvNxtRjKKuVE0xJgcEUiqVrR8t3nFhEuO4Zr+F0/gFZjbWzBGQe8D2ZinI5aEmqSMI4te1RlYT275XjWX4EQ+NaF0zZ0mNJmeTRU8brVVoKjZl6NPTquxnkMrPFlTmOXPZB1knIMiyYDaWOYehAX1d8WzzvbETETxtxiw6a7wG4IeSB91CJuX0dNKQC/UruRBPZIFWNCladL5Om0oHDw49uvOpzzFL9BlqgL797e9Xk6ZMTUWZSDD1SI3LMSbBEcD6amFUD2JFG8gw+HaUlzeoKz1I0rkN6lyJ5LBmxF1Li0pAUzWVcQ4xjgPcXHNM1hAmho+HUL3gF1no+dUH56z7YSGlhGsjMO1u7zz4QAbOMYAYJ5mYQ02UOUgljAhRZU7FljdQhY43RbeF7EhnDDQkj8YhI/CujiqqL4u4XBSwA3yR7E9XLOaCMPT2IF2EH+OzeG3hCqnRELQqqvnF41C9773/AUrQz0koYAicoWfBMj65MjtjcK+GBpQLvRS1VCXV956eDvYEWJ4iqUlkTU6k4MpUpnQB4cGl4KmMTy8yvBMHqHu1dWK+awpMxrCciriOouN6y/fCJqE/4GQQ0PcmPAp4z8tsmVc9zv9BZ22S+/SiU7PpeYo53ou19gCSYwAxI4h3mPqW+LWA4kcZKJTjoucp7g1WRK2Gp/MqwC4qtsad2Zilu0a/virOiT9IZMtxQULhPu/twEVajLVgu9gjvI3c9u7Wq0wBKIZ733pnJWrr6pRQWPYxhpKNhBD0PfEYA1QG3pARiLMd2BRbsK/W4Dpqh6tbCRuMKt4BZ+H5AFAbKYWwEh/j87kO/JhORj7TCOyBAHIOY480CZwKESezhh+DZ1K+SIosDlYEU0GccHO6xbOu9uYkfTbn87yhEMDollGelmMAMSziQ8Mw/giU2o3VdAqSCiX7t7EW2TVueAbhXLKYQgk6A/sMN/ueORhOzSF3cc/SkKFoUCVttZybAXK+pQjRkJiwCLPliZzjhBYsXJQYiH0lV6xk93KuGUPBrJqR+QXaQKbDWiVm+Fpvw/jxE6oJU9g7gPt1oQaXbkllTIpTRU4qD/K8Qu1SuYcKhBwtTAR6GreGGAvxCkWVFOef88NG3ltkaJyXBR/azlhLbRHiE5Grq8sQh8hRBfA+7mZVPwYQw25Ft2KvXAUV0fyqaB4umg0NhYq1eKWoXmRsOy6GQVCUcYluZHwoCSwYvJoAIEaOGgfRIFehZBdzHx3VGEAoo0sHccakuPPaiE/PLQtixBL3c8KZqwDix8ijADp5wcI4BI0WamfoKjnQQVdwCGMsNZsnwR2qtSoWijOpUxVc5Lu3S/rP8KNmlA0RAHa0JqUb55rEIUGm/YnUGmTICMyhjgXFHfbMPrJv9mESHIYYSklg2cNmIhrZUNbfeNxZ4yT22Cv0F8ikgix9cyWkYYTWqugTEIMOHTLiEg7+FFBSiVhnQE7CxfIQ9skRfsfg0Lzuc1dXs9GWmlhMVaU3oj6rRq+l05KN04biHxqOI3EYG8MJFNeUsD63j/8NRGfxd5w8Tx+V5RtFhiv+ylAEiy4TrXM1GepGM6aEKkjMG4uhOsaZyuWc18Ua0ocjs9A29+RZ6bHPJwbsQvW8jzgKyF2QnXnhDMcVccQ/x+14vbVEZMvJw1QvD8aMOJkuTQRNKNS6lCq6mYlROfbV771X3UO4Y/9eXP0j6HsG5+olEDHe07lm/txUxDuyoUOHH6OQ68O+MlFhuZ2LaCMWUpILHAmHN8gNBRzzOIoH96zTllQ3XMfORzOmpa2VlWBqSYEN1L0D39AqGv4888xz1dsrVlfbcAaOGTuxGowXIL7kUCACwQEqPjK0spbFfxRWEV41BYLBu3gW0PmVQPU77Qdj7GU98jLv47XCttxGP1RZP0RIeE8qzcllMfeSErBT3PjrmIoTtW7TdcERB/a730sjnf2WYnCeUS1CtE5Ga8tWx3EtcSPuvWzZJdV1119X/QjPxMOPPg1n43VHQxyaIiXnrVbnmDm4xAPE9cHUy8u7D6wxWsR1a7gMhsEiaiSXEkTzuaVV1eXLPomePriUWmNU6bhbsmQR8hzHICJmAimxl02dhlPvkmrrls3Vnb++i0Y4z1RHuNewJvZLcXhBvGAsKqN/p8YzP7wDQbK6NOGpESm16xKLr00si7Xrl9d5rkBWLPGsKB4iI2uF1KmiUbsX5+mPc21JxgrnhSO5rsCq+O0UvXv37sL91IFD85LqsssvqubMmY3vsAlkksPMgtvVXfq1rSdHey2mwiWXXogIG1zdeN11eENWV3v2ozy4nqDyi7wQvmKsNk8fSGM9WqsN2p4POcoqxx/z8YPVnWjRVkBfKJsJyf7W8hvnmM42WDo03W1JR+J3v/vd6lt/853qbTzPuretqTT5ocM8LhZb7YY//dN/Wv2v/8tfYNccqHZta2NQJW9ZAES1BDh9NCYVUFlPZA2erWgTHeYGyFVln02QyTX67/Qu9+CM7MMesl0IHyY1ld1wuUduwo9iib9q3FlX+eMd5ozEgeQcHhqDkHuENKQO7rFn51Zy3arqj/74m9XXvvZlEixm8d3gRGztsanbybVuz+4D1e2338H6Snss1i29HKryc+fOLYSl4sAtFckeRVyrWEAIDASp49cDx8DiT4srSgSt1JWJJT1h40VU6WJjDLUcEIozlqEq2UEPrp/9w53V6XS4GDlmQoyydpAipdAHJQueYWnd4XprT6V04dYf/G31f/zV/1W9s3IdiRozmYCeYMdTxE1EEoQwwE08279FwjHWLJFggrgyXgenWmATfj4t8uKHg5OYeCc+rsRoOIZB2Y38avyZnmUifPFV8SXPgkqKoqE6z3pSFBF8bygJ27dtrBbNn1Xd/NUbyWuYxjy010rRlnARoB6GNn7y058ROm6qlq8k3+GB+6t/+ef/LGvqSAxrOVUCrBvTmV/QUF5d63TQfvAYQMyYcS1vcyGLz7HhuYnioKAo64CjsMrYpm9qO3vwT4H36gDdWd9Z8U4Mw1kn4bADUGoi1tTb1rEHX5YLn6wrkP70X/xJ9R3a/77+Bvtajqd5AcgTQGFt5ZDI4M4CSYVDbjgEVRooU3wuJStlbusFiSZOZNeJsWxnKAcrt1WpNS4PHNjPuNqr1e+uoQRkXfZq2U6Qb8oUNiYFYVSgZIyRCAKJZw/GdxdaZt5qcTu2bGRxn0644HrWxzHZUbfGhIXya0hMkgj3OHSoBMNGowhZ2RJXD/PpIHioQqNYVamIZqYoDkEWxYrZBlYfiRgooO0/fOtvMRuMbajeMkbHDNAU70b0DNHu3rGdMrm9UEJzdfWVl8P+ysxBxDymptXH0V6ilyh4gwezBxc9vKylV7FQzBlmNdz75S/fyLr0N9UOlILxE6cNUJSIiCjjubposidnB4E4JvqZay6rLl12UTZkG4GXYpi9YDjPbEmvk4jqzsDZs1sDhEuWLYtzcRdE9Mgjj1d3/PwuOIda/yYUFi5vtMyPe0RCcH60N6Czj0rq0fTH/MxnPhWXSzf73agY2flWx6yi1jFKsL2KP4D/xRuuS9c/laALLjiDAOBgfHj7cKhuj3brZnolRSvCuYhaFRToUmSNGjPKRw8cAxzjJ27ZWyxwLuB9NBymLdtKic1g1QilVVjz6c+VBZeBzaGrn9tvHISbdu06Um3fuTfbGa5f/x4IYqMbavhj42BjuPOefTOvuPzi6vaf3kUiBXnEurulBDkTRJuVY6IGWRhwTnd1zbWfri697CI4ZkjsEsCBOl56Dxyiy4U9JaOwME5fSx627wVgP8rIBDpAfZ29LmdU3/v+j4J8DUsCHTlf6i1CodgYh8hjuIII5CjWi+WkYm3bRlk6Xu5Z7EDbQlboHnp5SjhNiOsWjMLdvB+Pd11NzfsZrLPU/lX6le0hsKbJoDj2mqxlPDtFsTxX4tdG5JoNH8DL+5a/H84kIPXSq28UduMm1M/kwpAHkzCWPgqqf+edt2PMTQPIZqlY7nak/0ioeDluk3ETJlNB9g5FsmROssZswwnoOtWHgjGctUqraP6CRdz4Tj5nsyByBEKxNU51lbM/mX1oxrNVvTuQ60E2q3E43PLTO35BMK49Fv+ll1xUzWZnKIEt5Sk2FC+ulU44iGLshw7towfaKdVpiMLX33wvwFFk1RP8JEIN384OOXsEi3Yr4oum2jRssLnqXprOTaXibPuOLaxnh+it9onqddp3GeibS671RsLXlgPGU02I4vm3Xq3uu/8RRDWtu4CBYlCviBqu8HJLZAnHccb5erT3lx+LmKEjDJbV3RJ6kYvLILKRjEpDoXYdH08S9qsMajKUeApqchOLuBn6epcnU05u0xyBJoeY+qTDTpeJlvQB3P+uCak6Q+eydZWIb+iH1QsV1AbMfpi49seOGRltMGKGZci013bKBQ1TH8GGsbzCyKicbQ9o3RxSrM20BYRdayfhtldhMQvGDe0aqtUQVuGUNDMCOC5vfJFFuA9iaW/vgAga00JFpC2hE+4xCEXP9XR+u9A6Fy6YHyKwOdCp5BeoOm+mAbgNT1esei9e5+G5n3luNQmk6AR5gxD1epn1JJg0yTJRelPWsPMhUdbS1NznwhR3COKEP0EOF8N2sk4qsMQOi840OokfIA7xwMN4bQHgKUsWx9gciRE5fy7U7rWwc5f9+b2eBffIYPtcDs3m1I8+9ihu89FpN2VfZKlXNTVJ7AKL82yl615p+zifxYt1gcRvsHPRhRdx7ajq3nvur+7+9d3VN755C/c/SshhC1HWQ9W6tW3ZqncGqv1e8p9FkgEzRdyuHRAGXJc+/9oTcFo8G+HYQemNY07AQw89QafbcxIA1Cx1+y5j+Dp6NVhNri9eBKl+ON6OjUiSVdlFvYd5mwxpqbo+MwYX5Cr6k9wCwZRqZ3UN6kThmDEto4qh9lGIYTF7iRjGZ7qTKqrIZ0hQqvuvqPEoEw0kmaKkB2AEebrjocB9LK73PfBIGrTZV9KECyOJFqYawHL56ESV7uvbB/A2YfPY456WUtNnZe1yk4S0PJRq+XUaBtda2DF8K3Wba9dtqmbhTd59mC1wmdTzL7zIfRurjQTebv7qTWml6Bpm47lDULImmJmT41CjbU8lEETE6tXrKIh9I4GyIsYKYEIQEKMpWRKd+wesfm81dsk/kFwxr5pD7H8sc2uUuwfZE4e1Dk7UZtu9e0+1eePG9M6hhKIaN3FS1mHVfh29rgQivKbYBhZRAiQE3vhcfWy0mXy7hpO8fIhjoJz9phCRN19ks5yTBVkruriqzW02DqNOLubdvGA0dswE1pWDyOetxNzX0cfe60rnWDUdbYTiRjdDcgJxcMWhC6AmlgkMynw51DXB0kCNth4ozijmy4jNqv+MlGSoTFx88cVxiH7q6itDbSZKHD5CYSmIsTPHksULQkTaZaNH04mPvDSbeX/7W99hynSfYP0SNioGdW6RKrzmgNyJ+Jq3aCG77o2v2uC+9evbAqx4EDhPVdtrDRvrFVZSLJh+EkQMMrhv9kSLduszNAUgNecVJ67iS1NA0VwW/2FEV6ntf/NjEYNYWSElD2pwm/ViT4jVItKMR0RHS0KBlBXsgwAtfQdhIdMkXOzpOJsHMzgQqTiU4+oN1xzgYZqGek695byLpmLFEG+AwFrhJqn2urGBwjMk7p3c2ooNMwduwxAGiYZ0BX46M3H9dDRBbaZO1PbkXOPgtBn1o48/Xz1Nds9w8timURqRtCHG5qGqrP3i3CRvqwbcVl7vtOvigiWn5Jz0UVbsKUwCG38Kxykm0xFdgtWTUPsu9+Rcq6J9iDvfavkP5jyFQ1J2+UNu554ahgPHh9eYluYea9gFsj7PAniXTC3z0kFC1gsSlMuQR86NC4LyPM6UFHt8au0wYO0UGkCGFJewMoOLqsg9igVSJLAUoKiSO6UwgXEAw3ASZQwTxk+uVry1nC7iq8jCPLWaTctHg3uWIfbS4eLokNJFsJu/TZTo7OypXn3jxSR0u3XJRKKXY8eOC+DNlRbYKW5inP6d0LI/jE3lIVmS3Ksfkf3BPcSiCHFN8JhrRI4ALpjN3KJAqQ2+r2D4IOMxQVL+dv6l2mEkYv/440OIoZR50AgoLYnWIMAwq+ZbLH+fDaZKvbzdZouvKRFJzsmizXkpq2YAiW46SAcO13g/gS7yiu3Ad6q4TCJcIoa9k5TMhIIcfl2D9mHFKzLOpIG2XoDlqOvPvvAstsM4VNippMmWvWTkwP1k1GymfM8qZdOKZs2ek3XQpMTDrAtyVuFciQIAMebiYyi9kf2wF6VDzUlRreoeIuW9c66X6IVoRQhz9bxjcENyroVVCFNJoegrCPAZwq8E3Lw4J2WeGt7HHx9CDHUynbKVgBNQVt6a6+XfTsM/swbAFYdQUXvxXTUgL4+hMUXV5V86ucIVisShQ+2UVzyqOiAVV1KlDksnLC5EfeL+ZZRlUjxXlEZsBAKo6ThM93OePY7PoouFAbJOVNrdiLPN9HRWZVWEmrug0qHz1PIS281rM6gZZj3xnty4uPd5PvcXmI5FCRBG4j4Rq6q1AFCxl/iNY+GwlYmR1F6eaet3DeGUfrhmDMbFTxzK5BOlT5YGrvE5xnb0TkQIhmNKTh+Zqv/uNyKGliI/JxT7vX6aD0it9d8MRu1MMcSPGfed2BITxzdX551t+1syTxiIg9P638Div3HjJloZ7sLOYOsnilJVbxvIFrG0zhGFlQFI9Pv6+xqyHHfiQUY/gZWKRlnniL8DjMP44RSJo1A6xiLiSt08hMTzhbyeXdXUjkN08pdzeWYWbG/s/77wmmdYVSxPCKUQl4uBX2cQGWeinBCFdtohXETH2KqlGaN40ckzw7GTp0yK8SuHbtq0BbX5vWrDpu10A0ErxJtiVo4IcW11LkoBb+8jtedQ3z/sKOPxx2llg/b/+q57Q8HZopCbhXX5V6wMnCG4Srrw7J6yZF510xc/V82ZMyf+L61+TuOB1vUTdsUQ3Lx5S/XUM89iszxVbd+yq5o2fS5A4JFypFSKiAsg1fWlZqmUZ8ol8fRyXj0jxQlpZSdGBDbdWKeJxbwTNTUblComEKexw1C/LSvUBaJhqhapGC3e3YIcxa44OMY1UTziIinxHyEWL7Mz4rlyxr491Jx2d1BScnb2vVm8cAFEMR4JUYzlEXT+OMo6q82jl+L73/8hFXWvAUNi+xCFKbWDTG/1fpmv6yowBuk6h48/PoQYv0wtCZOsuzLsDeMhwDSoGkDaeJySV152KdrSkeov/9Vfon6OqoZCGRecf0F19RUX8UzXkaG4XRZWS5aeUt30lRure+9+sPr7v78L6pmANYzRJgBdwUCk9052iZwjVeefUOMjni3VamOYJ+b3As2A1oZNG8gEZZstEs/Ry6KqZq+z9t1sdFCyJ0VAIoZ6MbiPBFc3+tTm5JRohiAlYiZrgk9FeCPC2g/sxibaRknfkurrxGPmktVpyaAd3Q2fs2sF6vqB6rbbvsMYe7B75uLcvbT65je/nmTALTtIsmUecceIDG/NEW2XV/fDsWH38YdE/qEDda+jXumUQQoigCYlDgO7TsxSb7lJzv/c5z6biimzFhvxoNpO0eSIbpp4dpJcfYDoXXPzmOob3/h69dd//T9V06Y0M9mtDJRO4xpgkeECW3Hlb1k0jVGUOLzrkLGMkkyhRqXV7bRGU0rRxdYjR+DOI8TiO/BrCQDdKr7qOKwDQm2oMaaAHMUvcxFRcpKIVyKomkgwec/Ydu3aChf2VH/4j2+p/vmf/FE1A1/ioc7uiEgTEvUEaArc9uMfJfzwzX/0+9UmPMxtiHHV9dlzaNKKm0j4lUTBuvhSfOqbM+HDcEqzbPyh4wSOwS/1EDlON+pbSqk2YJFKS3pRARyolwigzt7kFz/1/At4kBdUJ02fhAtlRzSPxiEGy4YlUVp5arBsAQ09/3sCSL+6867qkSdeIHlhCoCq1SKKEKjPZcILivGn3C9aT5yOAMvd+Q6jcQ1iwTUl1sq22Tg63V9MEtx30K4aLtClbqaJTHu5x9pQS+EzcNcySLJojc6uSAWVgxAlyNq5dWN2w/30NVfQ/p4oJFd1YhM5l4ot730Vgd1Dj+C6OZvSx/dA0E9IEjxI2lRZU8w8TZWdKjKHUngkBbCq70mCl9jRNocOHjIQ68+JHCcghlj2bifRA1Xq18kkXLARCY6mcRiUi+ppQWgjtsM7767Krng30drXKioNrJJpaCi6kQXzcPKYNfzMVLTM/Oav3RQk3Hv/M1Tzzi7iA1+aCBUCabclJ/E8GyN0sejuJsQ7CG3uZCrKTjvtbLbXmheH6SQcqW7GUPbI1K1CBiUG7x58ZGveW0/b3RVsOt3G82wqNznrjz4yxVgAAGfKVVGaeZ5rzdYN+NoWnFTdeOPnkyNNy124l5MVeyCuKApFJhnenkqfaa2b24lifvUrX2Q8Ixk7Vc54mwND5hT7jVscRJqUzfAC2jSKXbly1SMZzAeOExBDtK4tcXAGmaRyNCO1J5UAM+ubWMT05uq6aG4uHR+uuupKHkwNIQ8dJgJci1AjDUO7NoR6QUpTP/2N+0oZ4HXXfwEqW19tpeJq3DjzqVyM9SsUblSICmDDyAeR85bcKeP16IropLO6aEdvIJmc9TPrBWOeNr2xWri4gcSJyxNtXfXuyurnP/8VCSHPYvNMY4zNEIG/pQ5UwzcGAZBrJ/o5dkxTdf11nw23H0IcS5TaKIqtElrQjtbzXuyzQb0NSeX90z/5b1P+YX+d9oOHIdj1gWNKQBDBpXd1yWtAdofDU3ZIgvDxiCk89sFPBw1djTf2X3YAFDtMaH2r56vbm/St7FTdUwOZQHQypRawo+uExUhr11q4ivsChKxZs47GaCKxI5sAuWa8TbzGuMUE/FB21HvisSegHBFcYvSJyQBoKVNOce/mG667pvo6dZBuwtBDpXDHIbnCZBDFgQnoJGWAeIGpYbUAACAASURBVDnSxb4b+e97tz4RmFOmTqmuuGxZop+W/DkR16zsh+azJD6ArPfCxPGLLzwX8XgSQbIVhKfXp3fzBtreG8V9i8CZx6pV74YgdmBDvbV8eULfc1tbubcO3+F0yH2WZqgvQXTjByKlijQVkThLeZ7hj3lcQ1ji3//09ts6PoiGEzhmyeKFw9pxTDrQWMkAykWxDwPLhAYjiNa3r0U8aLkvXDAvntYGxNpewscryS2ed/I8LHBK4vh8F95X1UJDtbL8OpSEDpyOxlkURbNmzWDHQLjPqiuBVLOXfP5w2qBMGDelWrx4UVTQERhuvdgo9z34OEA4GZuhrTr7nLMYw5xwnItLSbUqfW0UI/rSbKjQS+7A0qVLq0+w7+byd9YKl2iC0dj5kcC6oXKDZHa42EvE0uv37t2NAkOjIKrHLA/cs3tn6klTQfDM09WySy/NfgGGGEwCGUJu+IsvvVn98ld3xwVkjkGcvio3jLJ4NFzg3E+tFCvpBD3+OAExhlNTp8LII0UduDzuoqific99O4FSu1X09mrDmDznnDOzCbZe0lk4EqeQJOFyUQ0aHfEmcKax5cdhOODMM6ilREVMIS32zzETI7AFtMx1e3hvRaidVBuZ/ChCt1rXvZSSd7FvmY7SnTu3J9lj7bo1ZOksTfDMDXssKxyCS8ixa1DqdTBMIRLyC6dMwWf25tH3eP9+Qp8E4XDHAKDeHtZFShi11+xVs3jx/FjwJut53/PPPxeC1fvRUy0lZG73w/POOZcQxUhCFLtoJvQ8WUCrqFFV4aBJHoRWurIX70Zx84SMIoqFBSKzaB8fwM4JiDGr0qTsxEfUtWuzSghW+Q/QHLTrwcxZs8ma2ZutR+bPO7maPXs2ZRKzmByRQyKaUqHsqpfWHCytdjW1Y6w17Uc7ifQtr7axI+2UaSelVsTyDMlhOCyvyFS97cT1YWaOa3X/UfLVzFkjDjJ/3oI01nnt1VcJIVzOpgc/rK68/MpoQHKNzzEKaWWA5e3uZcMj2PkbjU5EsL44p3ggWKgVbc3E8w+2HyWDZzltspZkbXDaqt04X4p2dZjmc8OPpre0kdkjh+laiEh97eW3qzdwsh7C8J02vXjYoyhwb/1/OkZLRmjN2FV957N9+w881HkY/9JxxwmIwQrtHrx73zaMqGmeK3LErpt+6outd1lVTh4AgSNbxlTzF47BcbiRXTHWx/icgouiyQx8qH4Yv4ONXKoJDUbmI/5cE9axMG5jF6XptJ1X7oZjosHohYa6WI8M627e2MYi2kaiIRoV1NeOLLcYth2COErDU2W7CFdldqxun2WDUgthdyN29u3bXV1KyqrKhO18X3ntLQBLEapAB0EixvVRl71iZwLi1V2Utu6gXv+k2awRhMdRaNyC2LFp+PX3t8ehqWZqQfBWqg/0Wlt5NnUaOxjCpSo8JdobekbTxJBGNMduA6AqGxIf3DLIvdiOP05ADBexK3v3W2gs0zTy4uLgRqbp+IdUYK58FmluLwXLGTOYhJTVg4jZvG1ndXTLliymolX3ttjVyEqwiU9tn+VGDVKucfvU2YOYcCbnhtrwY00YPzGu+/POO6eaiBfZvcCWkaK7Dy/ymWeengQJS79bW+cytz5sjtYoABLFabQXKYpEheq8ofrBD3+M0UvF2Tg6VTie+MZQaHhuD/kDB452pETwtNPOYG3cSYBsY7VqBYs8ostxJsopVwMkZY8NWIcT1ZyO4TkUsaUHQS0w7h6+99lxL4kJPilEUDRP4WpmkWHu38klg6Y1aGtTEwQue9etZNgOeJmqarmLA/XQ6POBAjGZkAxI5Xwk8lVxUlTLYtWXkYImzvE0taUyiWL0yVFxn6u2ahXwbGtdxoGM3indtG1/sLrwggtAwCyuB7FqO8j9/cRrJAyfJxcokoZxr9K+BDsBF9NjTzxX3fXr+3AqtmRLFQHn2OuiLMYzh4kmalluvKpKfdIsWutz29g3chTiR0s+I2QMddHuq/aW4l0ijhqfCSuYJc3y42eJbAZREATn2ZxUJeH44wSOmUqN4wa6CJVMjrLGREOTP7iftSU+00cVMafRJfBr4WGeoPsjG7vxt2PwEh2UCmy5qjga1UzkHSmX+zJITqpRWfHminDtpXHE6M/Ci/3cC8+j9a2sTiFQNpHYuhmP7jbeAFAcr7GgRprfqXorcjdv3l29QK392vUbUrc5dvyEcGx2POKhtCQL4CLWmI8AjTWPBjekrwBXIlJ5iYPS8eZcxu61vMjpwkWgO5d8UTsvC5QH0kaxKUQkgUgFrjU7BgVj3/jRI6XwDx0nIGbGjMndJFC8jSi4Kk2uJRkeHFHjSPSfSRE8QdHkhKJpcJ7nBMAOmnMdVj1JOzFyjTSulyMEjKMMXTFZKVi/Ua8eZIRl6lK4h4rE3r3kkI1urj55yaXV+g3rqpdffoUFfUTakoynPjNpuQapON/ugCZJ7ES93rN7N2lUY9CsTg1wAxUlsvOQYgSq9hnzEAGOS4g5whj6/Co1+om/5LX2fbRH1yXWFTXIAn4NctxGvFNEmXARD7VSJ3ATJmW9NsalNmctKWL4aT4fqFauY+cExHBS760/+E+r1SIEWv1I1odeY8UYEzL20KthRwpqX587GDNIF3CJQZGC6tyEF7kZ5SBy1tpMSFRgCwIREbe8s2KQIs6LTRMKVYI4gaGHt5/3+zFSdZJOnjoT5WJ6dYhFXwNyy+atccsLBGsxrb3XmjYxUN+cIfGITt36PMs5iRNfzfZJLIefRE5ZR8JBHHJWiJJXbZBwC2ulG3Uf6SJIR+LJMbjIqrt0zeV7+9sMMylxuHubKQ6tm+FaJYrGJWPUTss8+dzMHYxzGmideJyAGE8BKUeT7B2olZtEdHljHtILBTFTLPgDLF4NaD2fSCsQc7AMS5srbBHry6++Va1+Zw2Z/fi0sHv6RAzUFhVcZAVCikFZvLY48sTSELTEhISTi65aTy99GI/2WVpot6cR1VjWgUyc995Katf6Ly15i2g12ihCkrPgMxl3wgwiSnnCl/7o30t7eEIIaoRymK8SkjxhP9CdtJQ82LkfsTi1WrJgBoZmK2UZVJJh+0kka9E0n37mBephdpDKxNrYRwk9KV4R1XIIzy1PKz46wyijPrCJ6QfR85GImTZjWv/WnXS042b+OmcTjYzNx1OKODrYsR/ZP6r6s3/+T9JPRQmmIaYf6wxi85/HF+ZiuKFtQ/xUTz75JCc04cScHi+CWk5oE4j2mXvM+3zAvQWaz0oshc8UCzkX8ZEfzunmM3u+NHKeuWP6skL5Yijc45rm/f2niKqJFc6TOyL6+DiJhgA/HQaZaziHc1O3yb1tnLcb939PdyfG8SnVZZd9PRutWpaur03vQX3fgE+zmcSNN36h+juqGd6EIPt67SWKMoTh6zjqIQYJUZFv6tVk7vNRx0cihhKHQW8tZ2sRbiC1Fu2MaSti/AxCGwESvnT956HgHuyFXXzuhp2j0YYozcC1MZxt3o3PTyb0+hd/8efVP/rmzdWd7Hn5yKPP4hhUWxpH5a4Vv8hdAeiiBYBCpQJXOS5SpApeldMCWFFQxKFjgZP4Xm9A3CuOj8EFoeEkzuUz/VdxkPIqohVtycbhHMWUyFTDc32T25yv3+/bh9rf10nvy1PZ1PtCOkCdHhtIt9DBg+besZ7hvlJsGQ9SyZFIb7nl5mrl//ivs56GQGqHy0P/MbXQmu+xv78XRWXf74wYTsT0d8JwjKJHTDgjPjTts+sQfVIwxIw32FOMEoLUohxm4T3vgvOrF55/rrrqysvgHnqKHTmQrW+bhreQNfm1uC9u/9kvaYrwLh0tZnBL2zv6HAEqV5Y1KH9DkYopDzlFxAnnUB8OxQENS4nkgsr5yYnmJK8y1KxB59Clfu/JHSI6B6qPa5xk2Doz5DsrELZv34AXYyIbZN8Ah+ByYq5HjhwlEHiwds8GesZsxi/2Cn67OSSbbyMkMTvtuyYithcuWFC98fa7cKZZmTwXpCRMXpuPY8LXuB2RuTETPO74SI5heLu42T4mNi66INMsslbdm+AZLhbXIB9iNFFjz+zKBx95qnpt+So6WJyFzMWJgRd6KMDxVdlvt9qT5pyc0r+f/ORn2BYPVbPnLMR+YD2QigBokuEYtaHjoygYJQ+t6P9qai66h1nbuqmctlyjhJvlIkQgz0lGDMxnG0SDUi0j6WJLYa5c4iKcFCQXYtcbgSQ2mJ9JIq5DInzr5jYKpE6urr/hsxRI0REDgjgMmyePm7Mdk+YA7hRcRocIXWyj8cNhUqUQ06xp+v7Gk7vsEUKLpVAIT4mg/aJDeERzcx9tWQwNnnB8JGJo1HOQFKBDsPS4qL0uIBwOPK4LJqbP6TDaUB8yWBf49h17qh00SrCJdS/h3jdefqH68pdugNKaAzwXVrtmyPaUTrMv5R+QTDGMkoo7q5mtS5xCaCAiRwSBnAbrYVLrSVUZUcv9e3fgTKxIgT2ZpqEXJ74+c8YMQ7NF/QbQh62HxCP8LsrHPmpT3njDPZ7XkVs2lYWWrH+AKpIM6xZiU0kQscXG2gHlL1k8L8VVYykPP0wYGQsHbrOKoGiR/ce66Ty1hc2u72adGIGisxwv9+nJN9D/Jb530hTbHjJD0NRKwBH8wDFpvsr3GsT4ETtxydh564TjIxGDdtWNj6tHbCtvs6gCsKNm7gO0ZrJt2qkX2UWBUtNwusXilp87jwz5Rx6jxPxUYuMzqjPIAzhUa86gFtTdZBoTm+XABbq7D9Ho0YVy/fo29gvbQPh3cgzDUqxaENQhRUIAXV0H0YBOqv7pH96E6/5U/FGTy7hq4sn1rS6GdJhy++rTn74mqraVbK+99ipr2+PVE0+9RPHqpKRTNcJNdlfXwVRhBnjs3rOdPOTh1VVXXRZEH2Cn8XbEcFvbxuwPMJW4TiNam4JyMv2RL6QawBjMli2baPl7ZZQW4bSHhPZNm9z8tOxAq/InQrRzlKvC1M4YxHfWQRBbT8AKH3wkYvCR0Vp+BJIMaxrsavhFpXUxFd0Muplyuddff6NadsmFUPMhWhBuruaQtto6pzU9XIyf6Phrp1nC2nUb0sVoETUmGopmhnR1qwL3VNde+6lq1er/GCXimIsjE3ddU2XS2u7rPVxdfulFtEG8Ij3HLO2wsYGUqPNThBj3Ke4fU5iKOq4MlyAsvTv73HNJGFlaLVjwQHXb7b8ghECTOoAzpHF0bBk1MKn9KHUxZ9JzbSQedqO0bqOyFsKZhyd7O7vMvvXWm9Uyyg2trNODsZjEcz3Mp59xOsbsnigGhisee+xpxBypvbR8LCIzOm0UG0VhRBncR654EUUfgZmPRAyW//K//9kvV4L9WanKAhHeoRekWCKnX2w02zRu37qJfYyfrc466/SEh6UIO0dMoRTDjaZNntBucOdYG5zasOcY4YAuRJgirY+mbLYYMVq4bgM+KpyCrgPRlPhV0TD6eN4551QduPANz7p2GIh65KHHs2fz56/7AlQ7k2dZUVzcKo7ZeEzWLNRVXS2uQRdd9Inq3ffWVq++vhqxYhUXWphEx6+hYu0K20JagS1i7U3mxqb++ncHJoKIMM7vPf3F01r1wlVmsHqPx55/gt1kH0wnQUV4UKHoghB6kDgqKSo6XvtRXuU6jj4SMX6Jq7unIZYxbxi48sEkCbbNiGqrR3jG7DkYVWvozvpsgmUWhBpks2WIGtJg5D0wSkjXzkdmcGrwWaHb3EwFGOcbV9cDUCq89JWVFld6qlow3EaPalJJTsBNLayPFKW7774H0fGphI+/f+ut1Z/9iz/m2cXQjArMGDUQRU5xxkpWAsQi3ikAZ2X+lmOLncZeZlYQ4Hw9wpj1v5U+OgrxY2xn8mbC51ZJu3uT3OyapObgcwyEdZDE/tJLT1aPPvpEOvu1YDqk7AIANgwt8aEjJqhznRJBBJNE8r4uXcdI7fVjEcOuDmuh+H6oCASrxZS1xoVMkaY3tWd/D9R6Mm4RditifZlNW99J1GVa5kflHmLErJWihZgHYL9me4Wp0fRgxTvAd95eSzx9G/bOdDQqtC+Qbih7GOtRF1xnbcv+A8SRyFcwZ81kPSuR1RR0c9hh0AQKA3Ja/kZRdW5qPtggwnVNq17qtSm2Fciq6NYBaQZYbmF4w+ai+1UW3nybDbmX4NEAqUDHmEwyPDVSwMUB1iwNacW5z+hkTNsIczxPfP8AXD19+gzMB0QuCIn7hbno8YiHGiL3NbZVw7Hejs72e47Dx8Dbj0XMuPHjnwDdfwyGh9VjMlZSpVmaxIJPS3QbGx+Pp9fkigMH9lbblm8LRwmQMYi7cbi07XAewCj/uWbn9n3xGm/ctDU1Lta1HOPeZCZHBqtey0nuoLqDQNQaKsqmUaCKwy3pUy68Tz7xOJMcTJrRvEQrV6xYyb0OQhyt4UqR7rpw1ZXLUhXtNr6WwT//4qvppM7u3yCquGa0wEua77BqNTsv3UuDnll4o6dOJScZjW8E3CKlK4aM3hqOUOuyp7Lxfnts2k5y0rQZPBcYGZoH+CavgJc8xyWgbBRX80Agrck/2/v/GjGTp0ymcHj4oMP0UBGaRTMrUUa5OEYTfyheTDOSNZvYVMA+Mk4gXcyR1evRaBQZRhlVS4v8t3N5C3J4Aj3I3GeZzBfWJqlJyvRZRgdtqThqNPuZvfASjXUuIDFjVBIizjrrTNYy+7c04hqZnILb8QBGzujp7YyYasCWWEjDbhUTKfVAe1f1d9/5Aevc4WoCa6BbjujqsQC4B8CZWWkG52JCCiZgrFuztnrzzTfCoS7WpUa/2FjmyBnpNHd5EpzueLswBdLyxLgMz6NwOcjJT001B1hiKTBQsRrTMlo6/cjjYzlmdEvTz//6r7916569B4cqhxUxxZ5WXZS1SxaNrotB+Y7BIa56MBbN+TKZ2g2ip9N7xYXPw4FngWY4JhQexbWhuEnumbPxqIsA3uq+N5OmF6Q9+sgj7LxxQTV10rjqkPES3DkCzHB51xHj/GiKADYuJERPsb/YfIcxrVm7BX/dnUlpnYXWaONSo6sCyfFIXBbsakQOZReLkSPHVud/4uIoFCYQ6kk3t06vQnIFmMAhFKDky2nNakR6L//kjn7vT3aTZYyxyfgtJCdszI5pjvfk446PRYwXIGeRYjWDD44YJDVIfrpAeLD+KQHgQEw/NfDkgqeMs762C8MwPi6AzrRQTaU8LG/urQx2Mvme6xy4CC+uF78yP4zYPp/MwIPrIvvMs89WM8m2sbmDGZis7SDULBjTeUWIgNOVo2/MdNpd1YYN7FqL308jdMGC+fEKmBdXZuCLgzZv2bA3WUAgQxppl5j4FzvONQHkpbyew7eq7RYuSU4WXyUsoJqiYuA9aycGXjhtSx42c4xygmOzual/2tQpG8qJJ/7/GxGDNrWWhgqna5Eb55ceErGTY4xY8lBZMpwgizLiuDk4kiAo69Y5QZeJst/hWwQkQphIiLY2D4Hl9c5L7mTLjoRy2/nMauDzWce2bqLqOUl3VDVbJYw4MXysZqcNo7quCO2gjkWOa4CzZtLRQsR0C0xtiQyrqNaOVZCqTDiPFDeoTWnAMWURJjDTAYrx6AGwhtPPAg/zGLhnwskuupmXSgz3Z0zOv8wZMce5w2qIIZesl3XrLZ//UcdvRAzP+wWUevpgMt4jLxmQSX79lpoxEMvvpOqS3cLtxYlAFrL8HU2OiwSCXNVDQK2B0K/UVk4ESIXkBpBRHsLUmGQmyM8R1iebkNq9fDJaz8zZs/Pcg2hju1iERUbJFwAYcJb9X0ajdEyePhNEy5E4JpX/AstJmJrluHgfLnANYH5x2vK5TJ/5IhKdT6jd8zM1xQWjgkCtrnaxjzgXo9479yxIF2GRBDWOS49NmtcLl5knTS+ppx+FFT77jYghA7LbLg8HO7CsQURsBF3nXOjDDbnWGzIYI2FIEl4m0s+APN/pREVEzg22ZxfrSsFbzRh0YomBlLrOLLRii8n0yGE+k8XZz7QD3N1JxUNOtUfLbPIBJBDXgSRLACQ1R9NZrV9RSOX5AohfRa1z0fBLyLdQkstDZELqKvlOBGffs9q1GTPDSnhBRAbJwsFMIK9VkBVCqhOjRCUHNQ5jqxbG7veq3mqp2Hv/Qyb9McdvRAwW+Zvjqa3fSRduMS/FyKKRBTZWYBIJC/Baj5tLHKEQqS7X1KhTMuTwfV45JYEjqdGpcY32UpHVTtMb5dQgws8Vo9kZkMmmpp4anC6qvFREfJ4UKkE4vrpXujaQvMSrwFjr4jbIAchSuo+SCxKPgRDM2y5E4ln8iBVHJSc5KK8RaXCkuFSz9JQivso8U6iESBRG2m+ux2b0mFTZOnsOxtDHH5LHxx4sUI8uWrggcsU8rYgBQcsI/E0Jediah/LqzbIGOTkBkAWTiQGQ43+8U2hTkeCM8lsTB4iF3Nfn8H3dOSghlIO7SSDel3NSleD95Gr+9rtwrWK3fl9eJa46sr1vktB9JqOLKPPLDMXnFkKQ6pOPkPsUztNT7vVqc97SqGeQ6vc5j8coQrmHbh6VEjVP1zLudcxE8tkzp/+iNpmPfPmNiPEKOqPeYaK1mShyfijLgcSF7RkCQdlZxh6WZiKKtiRABHjCUKBLaLU1hzdSpMD0Cyefe5QVNNfk3MCqdm2eIeBFdgGEI5ASS/amYWKIQi52oPxXCKicL2N5Xn0c4rkuesu6VyYRG42TPTfFVCDC0j5nGa6UO7JeSKCF8JI0XkOoc/E6f822VDJE0nC/lhFNg2ZMnfIrDO42x/5xx29FDHWWfzl3biuy0U0NlLtWdoF997esyWilUSgUBLkCwdxBSh1bpf9kAZKTCdD8soZYa+SDOCame0RkhhsFIp8V9bdwT9KCeEa4l2uSXsuYkicmNj34Tgp1TK4jOZX/VCBEvxwodop7qbz6PtkuPDPIxC9YVPsiVsPdzjHX5iH5KUmPvMoRtTmIbZUBVXh7iVrAZEWdCpCbR+Cy+l7tJh/78lsRc8bSpdvwnP5Y/5dukgCV+UtN9e196/K/qJO1SSlOHD6AEdCpm3TeaGTpOpFfi5qKiydiSETLCSIYgAsSLWg3lNMTLOX5qwhSjIi4GH88JxwjhfMcgSpCBXDEDdRfOFcAep6qO+c5htrfqsHOLaKX67SjuAGhgJKHLNE51hBQqB8SCzEW70FEWY1APU9vhzveKr72szuHiBuDh3r6tCkPkZvw9MdipPbFb0XM1OlTuxcsWPALKqYOq02IHCmip5fGoVjgcZ0HCACJtag0bHCBFTal2lhClo/kNJHq334fYPIqxQvQZGsKFH4i4wOMQvVOumh5vkLdUi6ySHFX9ygURhRgApap+WD/qUHyrDIon1/GNsCxGWARsb5GTHN9WZM4m/n2ZY5lTFn7Qgx85VoqMCEsNTZVe/uo2X3Kll/WB7kBnl72qdMmHVu0aOGvcCmdkOB3PKJ+K2K84PLLL73nk5+86HXXGnPH7EPJ6AM8W+nq2HMyfVR7GT7WoyxAFUdJmOA7uUCOiIznSI4VqrJoqGt2Uq/iCLBEzKgelKQJgVMAF/eO96gDRC0pmlIRrfHqcmVEposKrwNBNLmSb/1Ut0iCat4PvOhxdCwZW1w63leeLYRURGpaJMb35bk+q+AeMQnnyoGOz431iOfTiWonxVzu7ge3jB5JsO+q15d98uL/lIf8lsPZ/07Hbbf9+L69u/f+3s6dO5qNVRzBVxQXvqwMJOpGYxZxf2VtqV/54CtPcSEHMqHeuhbjOQJGwPrqWzlKZIqcIDXAFal1O6ks8qVxA2d7jcDlynr6UcSiiPHZXBtxy0DTR8ax+BvAMvja8+WEcGDwXru2xkHR7iISpcnCUSoAbpaXcTOnYTpy8UI4FYtzd/OrCJvARnNXX75s9+/dcsuF3J++W7/9+I12zAcv54a7mNwSvMQbX3z55RH9cIl9Kd2g2gk7ocH4KvyJPQLdu5BHDQVIxmekv3RsYiIlD6zEOKRwNbQip5m0mhpYLInoXAeFGgrQKxvgSffeR07hvOCEIyJVYPOAATGEOhJNKojmPkK9nJxxeW3RwBCNzKGumvezS1+IyXtylvcdJBEiriUYpURythV5jEH6k1A7cIS67uldVxy5j5uFtssuvngJMNpdHv7b//+dEeOtvPH6trYvEGb97rPPPN86tHEL+4MRk6CvmLqKYj/2Cz6irA3s3q0m4qgVV+EGEahRJ+XpmuFPxdcxNL7+aE2cA/WJYEPZcZO4gwTX2abE20XrA9Aaa7bbqnOhQA5RBGk1scl1AtgHauMU9VbfH5/o7wPoEY+MN0ZvjYPkwrJ2Fi6KaJQLOcfYitwWboYIRJC/hbCUFBIl9ak0tLvisktfvubqq/5N69zW3xkpjraMOQP/3Y+331k+fOvm7f/sjTff/CsbvLn/mAuebQ8tRFVeS9XO1/8irpyU4BZJ+S1yXFU4zsOCP87QtvFcxUw5N4LQkQo07xIu5IOwCvfkGd7exwicpNdKKrVzAng+qYtQr0pCrcjLcyAAPguB8BMvB8/S7ZT785OiK5BXum347LKO1sWhkq+4aHqw7IdV11xzFTu5X/u9bdt3/tFXb/pSXcf20b/T8f8JMfU7E/8+7ZVXXvnWCy+8eA5BpaEHDx5qtHz8MJStr0q11cW+OP6k8kAyk/fBxQ4q8A0MAUx23AtHgQSR5w8zVtyommZN4NB5GFwJzLhFRLpgFMSeUF/jCsYUiwG4z5GbPYf3A7ZPiKeMTeDnUETx49rmeLx/CI3CWP+MdGAubpxqSeP4sWOPLV26pPvaaz710hVXXvknRHxP6HhRbvzb//f+/8UHwJm4atWKr6xc9e4n2tavH0Yn10Vbt2wbRBPRYewuO8tyQOP1dh5XDtstI7YIAFKRMKlCGR7rWEBo84TTHJqAVywWx6MUqj9KAGvA/W4mMQAAAbBJREFUGVuR67JeiNhwJtcgYgJrERkOKEQRT7FnhAiAd65RrpKjoJbGr4STLBueYf6XgTe/s/WXi3ujrMEd0MpWz5nbOpi0qi7MiZUXXvCJ3eeee+6tSIWPdefn4b/D8V8FMcc/h0nPw8hqWPPe6mHsD3ZqW9uGfnIDemfNPul6tgAeS5zkmNmVRi9bRjYvZbGflnbxIM/gmo1K1f393pB0DEyothiWZNfg8peqS2zdFacA2HGImIgefupufJHt2qPWlLCuATVCCIbDR2lvUKFgIC5bRJJv3UKx0/4D7S/jOd5Dq/xB7moxDmcuZXk7Nm3c/Nippy45Rll6x+IlS1bxSNfpLpCx4Xg4/Je8//8FMR83ICh/ePvBvQ3pZIE2V3bd6xnacahzqF3BD5E5b4w+ex0f2HeMjU+bTzll8TIAecrBzo5+NKExUHwzwL+aDU/HgqAG0nmPcr/BQZQGLIccFNc8JG+utSm5iDE02v6H6Pr3Jv4r4DiIzQi73/7pT+54auH8+Y3DKHaSI+wOmG4WjcMOjx7T0i/CtLlG0yp4xLDmo1xXtjD8uEn+V/r8/wE0B/JfvEaxLQAAAABJRU5ErkJggg==;rotation=340;" vertex="1" parent="1">
          <mxGeometry x="513.36" y="3419.34" width="33.72" height="80" as="geometry" />
        </mxCell>
        <mxCell id="rRB9kiorKSMEdPoHpbNI-3" value="&lt;p dir=&quot;ltr&quot; style=&quot;line-height: 1.38 ; margin-top: 0pt ; margin-bottom: 0pt ; font-size: 13px&quot; id=&quot;docs-internal-guid-c6db9517-7fff-af88-e6f8-d25cc87e2070&quot; align=&quot;left&quot;&gt;&lt;font style=&quot;font-size: 13px&quot;&gt;&lt;span style=&quot;font-family: &amp;#34;arial&amp;#34; ; color: rgb(0 , 0 , 0) ; background-color: transparent ; font-weight: 400 ; font-style: normal ; font-variant: normal ; text-decoration: none ; vertical-align: baseline ; white-space: pre-wrap&quot;&gt;Buenos días es el sistema voz.agromakers hablando. Me podría responder a este mismo número por voz o texto whatsapp&lt;/span&gt;&lt;/font&gt;&lt;/p&gt;&lt;div align=&quot;left&quot;&gt;&lt;br&gt;&lt;ol style=&quot;margin-top: 0px ; margin-bottom: 0px ; font-size: 13px&quot;&gt;&lt;li dir=&quot;ltr&quot; style=&quot;list-style-type: decimal ; font-family: &amp;#34;arial&amp;#34; ; color: rgb(0 , 0 , 0) ; background-color: transparent ; font-weight: 400 ; font-style: normal ; font-variant: normal ; text-decoration: none ; vertical-align: baseline ; white-space: pre&quot;&gt;&lt;p dir=&quot;ltr&quot; style=&quot;line-height: 1.38 ; margin-top: 0pt ; margin-bottom: 0pt&quot;&gt;&lt;font style=&quot;font-size: 13px&quot;&gt;&lt;span style=&quot;font-family: &amp;#34;arial&amp;#34; ; color: rgb(0 , 0 , 0) ; background-color: transparent ; font-weight: 400 ; font-style: normal ; font-variant: normal ; text-decoration: none ; vertical-align: baseline ; white-space: pre-wrap&quot;&gt;¿Comó se llama usted? Cómo se llama su finca? Cual es el municipio y la vereda Cuántas hectáreas tiene la finca, en cultivos perennes, no perennes, y en plantas naturales, cuales? variables&lt;/span&gt;&lt;/font&gt;&lt;/p&gt;&lt;/li&gt;&lt;li dir=&quot;ltr&quot; style=&quot;list-style-type: decimal ; font-family: &amp;#34;arial&amp;#34; ; color: rgb(0 , 0 , 0) ; background-color: transparent ; font-weight: 400 ; font-style: normal ; font-variant: normal ; text-decoration: none ; vertical-align: baseline ; white-space: pre&quot;&gt;&lt;p dir=&quot;ltr&quot; style=&quot;line-height: 1.38 ; margin-top: 0pt ; margin-bottom: 0pt&quot;&gt;&lt;font style=&quot;font-size: 13px&quot;&gt;&lt;span style=&quot;font-family: &amp;#34;arial&amp;#34; ; color: rgb(0 , 0 , 0) ; background-color: transparent ; font-weight: 400 ; font-style: normal ; font-variant: normal ; text-decoration: none ; vertical-align: baseline ; white-space: pre-wrap&quot;&gt;¿Cuántas parcelas diferentes tiene?&lt;/span&gt;&lt;/font&gt;&lt;/p&gt;&lt;/li&gt;&lt;li dir=&quot;ltr&quot; style=&quot;list-style-type: decimal ; font-family: &amp;#34;arial&amp;#34; ; color: rgb(0 , 0 , 0) ; background-color: transparent ; font-weight: 400 ; font-style: normal ; font-variant: normal ; text-decoration: none ; vertical-align: baseline ; white-space: pre&quot;&gt;&lt;p dir=&quot;ltr&quot; style=&quot;line-height: 1.38 ; margin-top: 0pt ; margin-bottom: 0pt&quot;&gt;&lt;font style=&quot;font-size: 13px&quot;&gt;&lt;span style=&quot;font-family: &amp;#34;arial&amp;#34; ; color: rgb(0 , 0 , 0) ; background-color: transparent ; font-weight: 400 ; font-style: normal ; font-variant: normal ; text-decoration: none ; vertical-align: baseline ; white-space: pre-wrap&quot;&gt;Describa brevemente cada parcela ¿cual es la superficie aproximada y como está conformada: cuál es el porcentaje aproximado la la parcela en pendiente fuerte, mediana o nula?&lt;/span&gt;&lt;/font&gt;&lt;/p&gt;&lt;/li&gt;&lt;li dir=&quot;ltr&quot; style=&quot;list-style-type: decimal ; font-family: &amp;#34;arial&amp;#34; ; color: rgb(0 , 0 , 0) ; background-color: transparent ; font-weight: 400 ; font-style: normal ; font-variant: normal ; text-decoration: none ; vertical-align: baseline ; white-space: pre&quot;&gt;&lt;p dir=&quot;ltr&quot; style=&quot;line-height: 1.38 ; margin-top: 0pt ; margin-bottom: 0pt&quot;&gt;&lt;font style=&quot;font-size: 13px&quot;&gt;&lt;span style=&quot;font-family: &amp;#34;arial&amp;#34; ; color: rgb(0 , 0 , 0) ; background-color: transparent ; font-weight: 400 ; font-style: normal ; font-variant: normal ; text-decoration: none ; vertical-align: baseline ; white-space: pre-wrap&quot;&gt;El suelo. Para cada parcela. Cómo caracterizaría el suelo, arenoso, arcilloso, limoso, o una mezcla, arcillo-limoso, limoso-arcilloso, areno-limoso, o equilibrado. Si conoce su clasificación cuál es su clasificación? Cual es su contenido en materia orgánica si lo conoce? Si puede, envienos una foto de un puñado de tierra&lt;/span&gt;&lt;/font&gt;&lt;/p&gt;&lt;/li&gt;&lt;li dir=&quot;ltr&quot; style=&quot;list-style-type: decimal ; font-family: &amp;#34;arial&amp;#34; ; color: rgb(0 , 0 , 0) ; background-color: transparent ; font-weight: 400 ; font-style: normal ; font-variant: normal ; text-decoration: none ; vertical-align: baseline ; white-space: pre&quot;&gt;&lt;p dir=&quot;ltr&quot; style=&quot;line-height: 1.38 ; margin-top: 0pt ; margin-bottom: 0pt&quot;&gt;&lt;font style=&quot;font-size: 13px&quot;&gt;&lt;span style=&quot;font-family: &amp;#34;arial&amp;#34; ; color: rgb(0 , 0 , 0) ; background-color: transparent ; font-weight: 400 ; font-style: normal ; font-variant: normal ; text-decoration: none ; vertical-align: baseline ; white-space: pre-wrap&quot;&gt;Los cultivos ¿Que cultiva en cada parcela? Cual es el nombre de especie y de&amp;nbsp; variedad si lo conoce, de dónde viene la semilla ? En qué fecha se sembró? En qué superficie? Cuantas plantas? Floreció? cuando ? Cuando sera la cosecha? Cual es la altura de cada uno de los cultivos? Cual es el porcentaje de cobertura del suelo? Si se cosechó, cual fue la producción total por cultivo?&amp;nbsp;&lt;/span&gt;&lt;/font&gt;&lt;/p&gt;&lt;/li&gt;&lt;li dir=&quot;ltr&quot; style=&quot;list-style-type: decimal ; font-family: &amp;#34;arial&amp;#34; ; color: rgb(0 , 0 , 0) ; background-color: transparent ; font-weight: 400 ; font-style: normal ; font-variant: normal ; text-decoration: none ; vertical-align: baseline ; white-space: pre&quot;&gt;&lt;p dir=&quot;ltr&quot; style=&quot;line-height: 1.38 ; margin-top: 0pt ; margin-bottom: 0pt&quot;&gt;&lt;font style=&quot;font-size: 13px&quot;&gt;&lt;span style=&quot;font-family: &amp;#34;arial&amp;#34; ; color: rgb(0 , 0 , 0) ; background-color: transparent ; font-weight: 400 ; font-style: normal ; font-variant: normal ; text-decoration: none ; vertical-align: baseline ; white-space: pre-wrap&quot;&gt;Si tiene para la venta, cual es el precio de venta para cada cultivo? Cuanto tiene disponible? Hace distribución ? A qué fecha? Donde?&lt;/span&gt;&lt;/font&gt;&lt;/p&gt;&lt;/li&gt;&lt;li dir=&quot;ltr&quot; style=&quot;list-style-type: decimal ; font-family: &amp;#34;arial&amp;#34; ; color: rgb(0 , 0 , 0) ; background-color: transparent ; font-weight: 400 ; font-style: normal ; font-variant: normal ; text-decoration: none ; vertical-align: baseline ; white-space: pre&quot;&gt;&lt;p dir=&quot;ltr&quot; style=&quot;line-height: 1.38 ; margin-top: 0pt ; margin-bottom: 0pt&quot;&gt;&lt;font style=&quot;font-size: 13px&quot;&gt;&lt;span style=&quot;font-family: &amp;#34;arial&amp;#34; ; color: rgb(0 , 0 , 0) ; background-color: transparent ; font-weight: 400 ; font-style: normal ; font-variant: normal ; text-decoration: none ; vertical-align: baseline ; white-space: pre-wrap&quot;&gt;Qué prácticas agrícolas se realizaron en cada cultivo?&amp;nbsp;&lt;/span&gt;&lt;/font&gt;&lt;/p&gt;&lt;/li&gt;&lt;ol style=&quot;margin-top: 0 ; margin-bottom: 0&quot;&gt;&lt;li dir=&quot;ltr&quot; style=&quot;list-style-type: lower-alpha ; font-family: &amp;#34;arial&amp;#34; ; color: rgb(0 , 0 , 0) ; background-color: transparent ; font-weight: 400 ; font-style: normal ; font-variant: normal ; text-decoration: none ; vertical-align: baseline ; white-space: pre&quot;&gt;&lt;p dir=&quot;ltr&quot; style=&quot;line-height: 1.38 ; margin-top: 0pt ; margin-bottom: 0pt&quot;&gt;&lt;font style=&quot;font-size: 13px&quot;&gt;&lt;span style=&quot;font-family: &amp;#34;arial&amp;#34; ; color: rgb(0 , 0 , 0) ; background-color: transparent ; font-weight: 400 ; font-style: normal ; font-variant: normal ; text-decoration: none ; vertical-align: baseline ; white-space: pre-wrap&quot;&gt;Preparación de la tierra : fecha, tipo de labranza, mecanizada, con cual equipo, o manual, y profundidad de la labranza.&amp;nbsp;&lt;/span&gt;&lt;/font&gt;&lt;/p&gt;&lt;/li&gt;&lt;li dir=&quot;ltr&quot; style=&quot;list-style-type: lower-alpha ; font-family: &amp;#34;arial&amp;#34; ; color: rgb(0 , 0 , 0) ; background-color: transparent ; font-weight: 400 ; font-style: normal ; font-variant: normal ; text-decoration: none ; vertical-align: baseline ; white-space: pre&quot;&gt;&lt;p dir=&quot;ltr&quot; style=&quot;line-height: 1.38 ; margin-top: 0pt ; margin-bottom: 0pt&quot;&gt;&lt;font style=&quot;font-size: 13px&quot;&gt;&lt;span style=&quot;font-family: &amp;#34;arial&amp;#34; ; color: rgb(0 , 0 , 0) ; background-color: transparent ; font-weight: 400 ; font-style: normal ; font-variant: normal ; text-decoration: none ; vertical-align: baseline ; white-space: pre-wrap&quot;&gt;Abono : fechas, tipo Orgańico o Químico, sólido o líquido ? cuantos litros o kilogramos por planta o por cultivo ?&amp;nbsp;&lt;/span&gt;&lt;/font&gt;&lt;/p&gt;&lt;/li&gt;&lt;li dir=&quot;ltr&quot; style=&quot;list-style-type: lower-alpha ; font-family: &amp;#34;arial&amp;#34; ; color: rgb(0 , 0 , 0) ; background-color: transparent ; font-weight: 400 ; font-style: normal ; font-variant: normal ; text-decoration: none ; vertical-align: baseline ; white-space: pre&quot;&gt;&lt;p dir=&quot;ltr&quot; style=&quot;line-height: 1.38 ; margin-top: 0pt ; margin-bottom: 0pt&quot;&gt;&lt;font style=&quot;font-size: 13px&quot;&gt;&lt;span style=&quot;font-family: &amp;#34;arial&amp;#34; ; color: rgb(0 , 0 , 0) ; background-color: transparent ; font-weight: 400 ; font-style: normal ; font-variant: normal ; text-decoration: none ; vertical-align: baseline ; white-space: pre-wrap&quot;&gt;Enfermedades y plagas ¿Qué plagas y enfermedades se encontraron en cada cultivo? Cuál fue la incidencia en porcentaje de plantas afectadas y cual fue la severidad porcentaje de órganos afectados &lt;/span&gt;&lt;/font&gt;&lt;font style=&quot;font-size: 13px&quot;&gt;&lt;span style=&quot;font-family: &amp;#34;arial&amp;#34; ; color: rgb(0 , 0 , 0) ; background-color: transparent ; font-weight: 400 ; font-style: normal ; font-variant: normal ; text-decoration: none ; vertical-align: baseline ; white-space: pre-wrap&quot;&gt;&lt;font style=&quot;font-size: 13px&quot;&gt;&lt;span style=&quot;font-family: &amp;#34;arial&amp;#34; ; color: rgb(0 , 0 , 0) ; background-color: transparent ; font-weight: 400 ; font-style: normal ; font-variant: normal ; text-decoration: none ; vertical-align: baseline ; white-space: pre-wrap&quot;&gt; en las plantas?&lt;/span&gt;&lt;/font&gt; &lt;/span&gt;&lt;/font&gt;&lt;font style=&quot;font-size: 13px&quot;&gt;&lt;span style=&quot;font-family: &amp;#34;arial&amp;#34; ; color: rgb(0 , 0 , 0) ; background-color: transparent ; font-weight: 400 ; font-style: normal ; font-variant: normal ; text-decoration: none ; vertical-align: baseline ; white-space: pre-wrap&quot;&gt;&lt;font style=&quot;font-size: 13px&quot;&gt;&lt;span style=&quot;font-family: &amp;#34;arial&amp;#34; ; color: rgb(0 , 0 , 0) ; background-color: transparent ; font-weight: 400 ; font-style: normal ; font-variant: normal ; text-decoration: none ; vertical-align: baseline ; white-space: pre-wrap&quot;&gt;En qué época? Cuando ocurrió eso?  &lt;/span&gt;&lt;/font&gt;Cuales fueron las actividades realizadas para su control? Nombre del producto, concentración o dosis por metro cuadrado o por otra unidad? producto orgánico o no? cuantas veces aplicó? Cuando? Funcionó?&lt;/span&gt;&lt;/font&gt;&lt;/p&gt;&lt;/li&gt;&lt;li dir=&quot;ltr&quot; style=&quot;list-style-type: lower-alpha ; font-family: &amp;#34;arial&amp;#34; ; color: rgb(0 , 0 , 0) ; background-color: transparent ; font-weight: 400 ; font-style: normal ; font-variant: normal ; text-decoration: none ; vertical-align: baseline ; white-space: pre&quot;&gt;&lt;p dir=&quot;ltr&quot; style=&quot;line-height: 1.38 ; margin-top: 0pt ; margin-bottom: 0pt&quot;&gt;&lt;font style=&quot;font-size: 13px&quot;&gt;&lt;span style=&quot;font-family: &amp;#34;arial&amp;#34; ; color: rgb(0 , 0 , 0) ; background-color: transparent ; font-weight: 400 ; font-style: normal ; font-variant: normal ; text-decoration: none ; vertical-align: baseline ; white-space: pre-wrap&quot;&gt;Malezas. Cuando observo malezas? Que hizo en cual fecha para el deshierbe (deshierbe manual, mecánico o con productos) ?&lt;/span&gt;&lt;/font&gt;&lt;/p&gt;&lt;/li&gt;&lt;li dir=&quot;ltr&quot; style=&quot;list-style-type: lower-alpha ; font-family: &amp;#34;arial&amp;#34; ; color: rgb(0 , 0 , 0) ; background-color: transparent ; font-weight: 400 ; font-style: normal ; font-variant: normal ; text-decoration: none ; vertical-align: baseline ; white-space: pre&quot;&gt;&lt;p dir=&quot;ltr&quot; style=&quot;line-height: 1.38 ; margin-top: 0pt ; margin-bottom: 0pt&quot;&gt;&lt;font style=&quot;font-size: 13px&quot;&gt;&lt;span style=&quot;font-family: &amp;#34;arial&amp;#34; ; color: rgb(0 , 0 , 0) ; background-color: transparent ; font-weight: 400 ; font-style: normal ; font-variant: normal ; text-decoration: none ; vertical-align: baseline ; white-space: pre-wrap&quot;&gt;Aporque : a cual fecha se hizo el aproque para este cultivo&lt;/span&gt;&lt;/font&gt;&lt;/p&gt;&lt;/li&gt;&lt;li dir=&quot;ltr&quot; style=&quot;list-style-type: lower-alpha ; font-family: &amp;#34;arial&amp;#34; ; color: rgb(0 , 0 , 0) ; background-color: transparent ; font-weight: 400 ; font-style: normal ; font-variant: normal ; text-decoration: none ; vertical-align: baseline ; white-space: pre&quot;&gt;&lt;p dir=&quot;ltr&quot; style=&quot;line-height: 1.38 ; margin-top: 0pt ; margin-bottom: 0pt&quot;&gt;&lt;font style=&quot;font-size: 13px&quot;&gt;&lt;span style=&quot;font-family: &amp;#34;arial&amp;#34; ; color: rgb(0 , 0 , 0) ; background-color: transparent ; font-weight: 400 ; font-style: normal ; font-variant: normal ; text-decoration: none ; vertical-align: baseline ; white-space: pre-wrap&quot;&gt;Otras actividades: cuales y a cual fecha&lt;/span&gt;&lt;/font&gt;&lt;/p&gt;&lt;/li&gt;&lt;/ol&gt;&lt;/ol&gt;&lt;/div&gt;" style="rounded=0;whiteSpace=wrap;html=1;fillColor=#fff2cc;strokeColor=#d6b656;align=left;" vertex="1" parent="1">
          <mxGeometry x="30" y="3760" width="1100" height="370" as="geometry" />
        </mxCell>
        <mxCell id="rRB9kiorKSMEdPoHpbNI-4" value="&lt;font style=&quot;font-size: 23px&quot;&gt;voz.agromakers : sistema de democratización de la agroecológia&lt;br&gt;&lt;/font&gt;" style="text;html=1;align=center;verticalAlign=middle;resizable=0;points=[];autosize=1;" vertex="1" parent="1">
          <mxGeometry x="299.38" y="3340" width="680" height="20" as="geometry" />
        </mxCell>
        <mxCell id="rRB9kiorKSMEdPoHpbNI-5" style="edgeStyle=orthogonalEdgeStyle;rounded=0;orthogonalLoop=1;jettySize=auto;html=1;entryX=0;entryY=0.5;entryDx=0;entryDy=0;" edge="1" parent="1" source="rRB9kiorKSMEdPoHpbNI-7" target="rRB9kiorKSMEdPoHpbNI-23">
          <mxGeometry relative="1" as="geometry" />
        </mxCell>
        <mxCell id="rRB9kiorKSMEdPoHpbNI-6" style="edgeStyle=orthogonalEdgeStyle;rounded=0;orthogonalLoop=1;jettySize=auto;html=1;exitX=0.5;exitY=0;exitDx=0;exitDy=0;entryX=0.5;entryY=1;entryDx=0;entryDy=0;" edge="1" parent="1" source="rRB9kiorKSMEdPoHpbNI-7" target="rRB9kiorKSMEdPoHpbNI-11">
          <mxGeometry relative="1" as="geometry" />
        </mxCell>
        <mxCell id="rRB9kiorKSMEdPoHpbNI-7" value="&lt;div&gt;El agricultor que quiere convertirse a la agroecología&lt;/div&gt;&lt;div&gt;Se inscribe en la plataforma &lt;br&gt;&lt;/div&gt;&lt;div&gt;o envía un mensaje de&amp;nbsp; voz o texto por whatsapp al 3102643792 diciendo &quot;Quiero participar en voz.agromakers&quot;&lt;/div&gt;" style="rounded=1;whiteSpace=wrap;html=1;" vertex="1" parent="1">
          <mxGeometry x="103.91" y="3550.67" width="160" height="140" as="geometry" />
        </mxCell>
        <mxCell id="rRB9kiorKSMEdPoHpbNI-8" style="edgeStyle=orthogonalEdgeStyle;rounded=0;orthogonalLoop=1;jettySize=auto;html=1;exitX=1;exitY=0.5;exitDx=0;exitDy=0;entryX=0;entryY=0.5;entryDx=0;entryDy=0;" edge="1" parent="1" source="rRB9kiorKSMEdPoHpbNI-10" target="rRB9kiorKSMEdPoHpbNI-14">
          <mxGeometry relative="1" as="geometry" />
        </mxCell>
        <mxCell id="rRB9kiorKSMEdPoHpbNI-9" style="edgeStyle=none;rounded=0;orthogonalLoop=1;jettySize=auto;html=1;exitX=1;exitY=0.75;exitDx=0;exitDy=0;entryX=0;entryY=0.25;entryDx=0;entryDy=0;" edge="1" parent="1" source="rRB9kiorKSMEdPoHpbNI-10" target="rRB9kiorKSMEdPoHpbNI-17">
          <mxGeometry relative="1" as="geometry" />
        </mxCell>
        <mxCell id="rRB9kiorKSMEdPoHpbNI-10" value="El agricultor envía información inicial (20 a 30 minutos) por whatsapp voz o texto" style="rounded=1;whiteSpace=wrap;html=1;" vertex="1" parent="1">
          <mxGeometry x="503.55" y="3485.01" width="150" height="90" as="geometry" />
        </mxCell>
        <mxCell id="rRB9kiorKSMEdPoHpbNI-11" value="&lt;div&gt;Inscribirse al sistema voz.agromakers&lt;/div&gt;" style="rounded=1;whiteSpace=wrap;html=1;" vertex="1" parent="1">
          <mxGeometry x="109.42999999999996" y="3400" width="150" height="90" as="geometry" />
        </mxCell>
        <mxCell id="rRB9kiorKSMEdPoHpbNI-12" value="&lt;div align=&quot;left&quot;&gt;telf:&lt;/div&gt;" style="rounded=0;whiteSpace=wrap;html=1;align=left;" vertex="1" parent="1">
          <mxGeometry x="123.91" y="3460.67" width="120" height="20" as="geometry" />
        </mxCell>
        <mxCell id="rRB9kiorKSMEdPoHpbNI-13" style="edgeStyle=orthogonalEdgeStyle;rounded=0;orthogonalLoop=1;jettySize=auto;html=1;exitX=1;exitY=0.5;exitDx=0;exitDy=0;entryX=0;entryY=0.5;entryDx=0;entryDy=0;" edge="1" parent="1" source="rRB9kiorKSMEdPoHpbNI-14" target="rRB9kiorKSMEdPoHpbNI-27">
          <mxGeometry relative="1" as="geometry" />
        </mxCell>
        <mxCell id="rRB9kiorKSMEdPoHpbNI-14" value="El sistema publica en Agromokers.org la información de productos disponibles para los consumidores de la plataforma y de como se hace el pago y la entrega" style="rounded=1;whiteSpace=wrap;html=1;" vertex="1" parent="1">
          <mxGeometry x="699.38" y="3477.01" width="150" height="105.66" as="geometry" />
        </mxCell>
        <mxCell id="rRB9kiorKSMEdPoHpbNI-15" style="edgeStyle=orthogonalEdgeStyle;rounded=0;orthogonalLoop=1;jettySize=auto;html=1;entryX=0;entryY=0.5;entryDx=0;entryDy=0;" edge="1" parent="1" source="rRB9kiorKSMEdPoHpbNI-17" target="rRB9kiorKSMEdPoHpbNI-28">
          <mxGeometry relative="1" as="geometry" />
        </mxCell>
        <mxCell id="rRB9kiorKSMEdPoHpbNI-16" style="edgeStyle=orthogonalEdgeStyle;rounded=0;orthogonalLoop=1;jettySize=auto;html=1;entryX=0;entryY=0.5;entryDx=0;entryDy=0;" edge="1" parent="1" source="rRB9kiorKSMEdPoHpbNI-17" target="rRB9kiorKSMEdPoHpbNI-26">
          <mxGeometry relative="1" as="geometry" />
        </mxCell>
        <mxCell id="rRB9kiorKSMEdPoHpbNI-17" value="El sistema analiza los datos" style="rounded=1;whiteSpace=wrap;html=1;" vertex="1" parent="1">
          <mxGeometry x="702.13" y="3638.84" width="150" height="105.66" as="geometry" />
        </mxCell>
        <mxCell id="rRB9kiorKSMEdPoHpbNI-18" style="edgeStyle=orthogonalEdgeStyle;rounded=0;orthogonalLoop=1;jettySize=auto;html=1;exitX=1;exitY=0.5;exitDx=0;exitDy=0;entryX=0;entryY=0.5;entryDx=0;entryDy=0;" edge="1" parent="1" source="rRB9kiorKSMEdPoHpbNI-20" target="rRB9kiorKSMEdPoHpbNI-17">
          <mxGeometry relative="1" as="geometry" />
        </mxCell>
        <mxCell id="rRB9kiorKSMEdPoHpbNI-19" style="edgeStyle=none;rounded=0;orthogonalLoop=1;jettySize=auto;html=1;exitX=1;exitY=0.25;exitDx=0;exitDy=0;entryX=0;entryY=0.75;entryDx=0;entryDy=0;" edge="1" parent="1" source="rRB9kiorKSMEdPoHpbNI-20" target="rRB9kiorKSMEdPoHpbNI-14">
          <mxGeometry relative="1" as="geometry" />
        </mxCell>
        <mxCell id="rRB9kiorKSMEdPoHpbNI-20" value="El agricultor envía información semanal (10 Minutos)" style="rounded=1;whiteSpace=wrap;html=1;" vertex="1" parent="1">
          <mxGeometry x="503.55" y="3646.67" width="150" height="90" as="geometry" />
        </mxCell>
        <mxCell id="rRB9kiorKSMEdPoHpbNI-21" style="edgeStyle=orthogonalEdgeStyle;rounded=0;orthogonalLoop=1;jettySize=auto;html=1;exitX=0.5;exitY=1;exitDx=0;exitDy=0;" edge="1" parent="1" source="rRB9kiorKSMEdPoHpbNI-23" target="rRB9kiorKSMEdPoHpbNI-25">
          <mxGeometry relative="1" as="geometry" />
        </mxCell>
        <mxCell id="rRB9kiorKSMEdPoHpbNI-22" style="edgeStyle=orthogonalEdgeStyle;rounded=0;orthogonalLoop=1;jettySize=auto;html=1;exitX=1;exitY=0.5;exitDx=0;exitDy=0;" edge="1" parent="1" source="rRB9kiorKSMEdPoHpbNI-23" target="rRB9kiorKSMEdPoHpbNI-10">
          <mxGeometry relative="1" as="geometry" />
        </mxCell>
        <mxCell id="rRB9kiorKSMEdPoHpbNI-23" value="El sistema envía la pregunta inicial por whatsapp" style="rounded=1;whiteSpace=wrap;html=1;" vertex="1" parent="1">
          <mxGeometry x="309.16" y="3485.01" width="150" height="90" as="geometry" />
        </mxCell>
        <mxCell id="rRB9kiorKSMEdPoHpbNI-24" style="edgeStyle=orthogonalEdgeStyle;rounded=0;orthogonalLoop=1;jettySize=auto;html=1;exitX=1;exitY=0.5;exitDx=0;exitDy=0;entryX=0;entryY=0.5;entryDx=0;entryDy=0;" edge="1" parent="1" source="rRB9kiorKSMEdPoHpbNI-25" target="rRB9kiorKSMEdPoHpbNI-20">
          <mxGeometry relative="1" as="geometry" />
        </mxCell>
        <mxCell id="rRB9kiorKSMEdPoHpbNI-25" value="El sistema envía la pregunta&amp;nbsp; semanal" style="rounded=1;whiteSpace=wrap;html=1;" vertex="1" parent="1">
          <mxGeometry x="309.16" y="3646.67" width="150" height="90" as="geometry" />
        </mxCell>
        <mxCell id="rRB9kiorKSMEdPoHpbNI-26" value="El sistema publica en Agromokers.org la información de huella ecológica de los productos disponibles" style="rounded=1;whiteSpace=wrap;html=1;" vertex="1" parent="1">
          <mxGeometry x="901.5299999999999" y="3690.67" width="150" height="90" as="geometry" />
        </mxCell>
        <mxCell id="rRB9kiorKSMEdPoHpbNI-27" value="El agricultor vende sus productos de manera directa" style="rounded=1;whiteSpace=wrap;html=1;" vertex="1" parent="1">
          <mxGeometry x="904.4699999999999" y="3484.84" width="150" height="90" as="geometry" />
        </mxCell>
        <mxCell id="rRB9kiorKSMEdPoHpbNI-28" value="El agricultor recibe apoyo en riesgos de heladas, enfermedades, oportunidad de cosecha, mejoramiento agroecológico" style="rounded=1;whiteSpace=wrap;html=1;" vertex="1" parent="1">
          <mxGeometry x="901.4699999999999" y="3582.67" width="150" height="90" as="geometry" />
        </mxCell>
        <mxCell id="rRB9kiorKSMEdPoHpbNI-29" value="Cada semana" style="text;html=1;align=center;verticalAlign=middle;resizable=0;points=[];autosize=1;" vertex="1" parent="1">
          <mxGeometry x="387.88000000000005" y="3600.67" width="90" height="20" as="geometry" />
        </mxCell>
        <mxCell id="rRB9kiorKSMEdPoHpbNI-30" value="Pregunta inicial" style="rounded=0;whiteSpace=wrap;html=1;fillColor=#fff2cc;strokeColor=#d6b656;align=left;" vertex="1" parent="1">
          <mxGeometry x="29.620000000000005" y="3725.67" width="90" height="20" as="geometry" />
        </mxCell>
        <mxCell id="rRB9kiorKSMEdPoHpbNI-31" value="&lt;p dir=&quot;ltr&quot; style=&quot;line-height: 1.38 ; margin-top: 0pt ; margin-bottom: 0pt ; font-size: 13px&quot; id=&quot;docs-internal-guid-c6db9517-7fff-af88-e6f8-d25cc87e2070&quot; align=&quot;left&quot;&gt;&lt;font style=&quot;font-size: 13px&quot;&gt;&lt;span style=&quot;font-family: &amp;#34;arial&amp;#34; ; color: rgb(0 , 0 , 0) ; background-color: transparent ; font-weight: 400 ; font-style: normal ; font-variant: normal ; text-decoration: none ; vertical-align: baseline ; white-space: pre-wrap&quot;&gt;Buenos días es el sistema voz.agromakers hablando. Me podría responder a este mismo número por voz o texto whatsapp&lt;/span&gt;&lt;/font&gt;&lt;/p&gt;&lt;div align=&quot;left&quot;&gt;&lt;br&gt;&lt;ol style=&quot;margin-top: 0px ; margin-bottom: 0px ; font-size: 13px&quot;&gt;&lt;li dir=&quot;ltr&quot; style=&quot;list-style-type: decimal ; font-family: &amp;#34;arial&amp;#34; ; color: rgb(0 , 0 , 0) ; background-color: transparent ; font-weight: 400 ; font-style: normal ; font-variant: normal ; text-decoration: none ; vertical-align: baseline ; white-space: pre&quot;&gt;&lt;p dir=&quot;ltr&quot; style=&quot;line-height: 1.38 ; margin-top: 0pt ; margin-bottom: 0pt&quot;&gt;&lt;font style=&quot;font-size: 13px&quot;&gt;&lt;span style=&quot;font-family: &amp;#34;arial&amp;#34; ; color: rgb(0 , 0 , 0) ; background-color: transparent ; font-weight: 400 ; font-style: normal ; font-variant: normal ; text-decoration: none ; vertical-align: baseline ; white-space: pre-wrap&quot;&gt;En cada parcela? Que pasó &lt;/span&gt;&lt;/font&gt;&lt;font style=&quot;font-size: 13px&quot;&gt;&lt;span style=&quot;font-family: &amp;#34;arial&amp;#34; ; color: rgb(0 , 0 , 0) ; background-color: transparent ; font-weight: 400 ; font-style: normal ; font-variant: normal ; text-decoration: none ; vertical-align: baseline ; white-space: pre-wrap&quot;&gt;&lt;font style=&quot;font-size: 13px&quot;&gt;&lt;span style=&quot;font-family: &amp;#34;arial&amp;#34; ; color: rgb(0 , 0 , 0) ; background-color: transparent ; font-weight: 400 ; font-style: normal ; font-variant: normal ; text-decoration: none ; vertical-align: baseline ; white-space: pre-wrap&quot;&gt;para cada&lt;/span&gt;&lt;/font&gt; cultivos (emergencía, Floración, cosecha)? Cual es la altura de cada uno de los cultivos? Cual es el porcentaje de cobertura del suelo? Si se cosechó, cual fue la producción total por cultivo?&amp;nbsp;&lt;/span&gt;&lt;/font&gt;&lt;/p&gt;&lt;/li&gt;&lt;li dir=&quot;ltr&quot; style=&quot;list-style-type: decimal ; font-family: &amp;#34;arial&amp;#34; ; color: rgb(0 , 0 , 0) ; background-color: transparent ; font-weight: 400 ; font-style: normal ; font-variant: normal ; text-decoration: none ; vertical-align: baseline ; white-space: pre&quot;&gt;&lt;p dir=&quot;ltr&quot; style=&quot;line-height: 1.38 ; margin-top: 0pt ; margin-bottom: 0pt&quot;&gt;&lt;font style=&quot;font-size: 13px&quot;&gt;&lt;span style=&quot;font-family: &amp;#34;arial&amp;#34; ; color: rgb(0 , 0 , 0) ; background-color: transparent ; font-weight: 400 ; font-style: normal ; font-variant: normal ; text-decoration: none ; vertical-align: baseline ; white-space: pre-wrap&quot;&gt;Si tiene para la venta, cual es el precio de venta para cada cultivo? Cuanto tiene disponible? Hace distribución ? A qué fecha? Donde?&lt;/span&gt;&lt;/font&gt;&lt;/p&gt;&lt;/li&gt;&lt;li dir=&quot;ltr&quot; style=&quot;list-style-type: decimal ; font-family: &amp;#34;arial&amp;#34; ; color: rgb(0 , 0 , 0) ; background-color: transparent ; font-weight: 400 ; font-style: normal ; font-variant: normal ; text-decoration: none ; vertical-align: baseline ; white-space: pre&quot;&gt;&lt;p dir=&quot;ltr&quot; style=&quot;line-height: 1.38 ; margin-top: 0pt ; margin-bottom: 0pt&quot;&gt;&lt;font style=&quot;font-size: 13px&quot;&gt;&lt;span style=&quot;font-family: &amp;#34;arial&amp;#34; ; color: rgb(0 , 0 , 0) ; background-color: transparent ; font-weight: 400 ; font-style: normal ; font-variant: normal ; text-decoration: none ; vertical-align: baseline ; white-space: pre-wrap&quot;&gt;Para cada cultivo cual actividad se ha realizado en estos 15 días &lt;/span&gt;&lt;/font&gt;&lt;font style=&quot;font-size: 13px&quot;&gt;&lt;span style=&quot;font-family: &amp;#34;arial&amp;#34; ; color: rgb(0 , 0 , 0) ; background-color: transparent ; font-weight: 400 ; font-style: normal ; font-variant: normal ; text-decoration: none ; vertical-align: baseline ; white-space: pre-wrap&quot;&gt;&lt;font style=&quot;font-size: 13px&quot;&gt;&lt;span style=&quot;font-family: &amp;#34;arial&amp;#34; ; color: rgb(0 , 0 , 0) ; background-color: transparent ; font-weight: 400 ; font-style: normal ; font-variant: normal ; text-decoration: none ; vertical-align: baseline ; white-space: pre-wrap&quot;&gt;dentro de la lista &lt;/span&gt;&lt;/font&gt;?&amp;nbsp;&lt;/span&gt;&lt;/font&gt;&lt;/p&gt;&lt;/li&gt;&lt;ol style=&quot;margin-top: 0 ; margin-bottom: 0&quot;&gt;&lt;li dir=&quot;ltr&quot; style=&quot;list-style-type: lower-alpha ; font-family: &amp;#34;arial&amp;#34; ; color: rgb(0 , 0 , 0) ; background-color: transparent ; font-weight: 400 ; font-style: normal ; font-variant: normal ; text-decoration: none ; vertical-align: baseline ; white-space: pre&quot;&gt;&lt;p dir=&quot;ltr&quot; style=&quot;line-height: 1.38 ; margin-top: 0pt ; margin-bottom: 0pt&quot;&gt;&lt;font style=&quot;font-size: 13px&quot;&gt;&lt;span style=&quot;font-family: &amp;#34;arial&amp;#34; ; color: rgb(0 , 0 , 0) ; background-color: transparent ; font-weight: 400 ; font-style: normal ; font-variant: normal ; text-decoration: none ; vertical-align: baseline ; white-space: pre-wrap&quot;&gt;Preparación de la tierra : fecha, tipo de labranza, mecanizada, con cual equipo, o manual, y profundidad de la labranza.&amp;nbsp;&lt;/span&gt;&lt;/font&gt;&lt;/p&gt;&lt;/li&gt;&lt;li dir=&quot;ltr&quot; style=&quot;list-style-type: lower-alpha ; font-family: &amp;#34;arial&amp;#34; ; color: rgb(0 , 0 , 0) ; background-color: transparent ; font-weight: 400 ; font-style: normal ; font-variant: normal ; text-decoration: none ; vertical-align: baseline ; white-space: pre&quot;&gt;&lt;p dir=&quot;ltr&quot; style=&quot;line-height: 1.38 ; margin-top: 0pt ; margin-bottom: 0pt&quot;&gt;&lt;font style=&quot;font-size: 13px&quot;&gt;&lt;span style=&quot;font-family: &amp;#34;arial&amp;#34; ; color: rgb(0 , 0 , 0) ; background-color: transparent ; font-weight: 400 ; font-style: normal ; font-variant: normal ; text-decoration: none ; vertical-align: baseline ; white-space: pre-wrap&quot;&gt;Abono : fechas, tipo Orgańico o Químico, sólido o líquido ? cuantos litros o kilogramos por planta o por cultivo ? &lt;br&gt;&lt;/span&gt;&lt;/font&gt;&lt;/p&gt;&lt;/li&gt;&lt;li dir=&quot;ltr&quot; style=&quot;list-style-type: lower-alpha ; font-family: &amp;#34;arial&amp;#34; ; color: rgb(0 , 0 , 0) ; background-color: transparent ; font-weight: 400 ; font-style: normal ; font-variant: normal ; text-decoration: none ; vertical-align: baseline ; white-space: pre&quot;&gt;&lt;p dir=&quot;ltr&quot; style=&quot;line-height: 1.38 ; margin-top: 0pt ; margin-bottom: 0pt&quot;&gt;&lt;font style=&quot;font-size: 13px&quot;&gt;&lt;span style=&quot;font-family: &amp;#34;arial&amp;#34; ; color: rgb(0 , 0 , 0) ; background-color: transparent ; font-weight: 400 ; font-style: normal ; font-variant: normal ; text-decoration: none ; vertical-align: baseline ; white-space: pre-wrap&quot;&gt;Enfermedades y plagas ¿Qué plagas y enfermedades se encontraron en cada cultivo? Cuál fue la incidencia en porcentaje de plantas afectadas y cual fue la severidad porcentaje de órganos afectados &lt;/span&gt;&lt;/font&gt;&lt;font style=&quot;font-size: 13px&quot;&gt;&lt;span style=&quot;font-family: &amp;#34;arial&amp;#34; ; color: rgb(0 , 0 , 0) ; background-color: transparent ; font-weight: 400 ; font-style: normal ; font-variant: normal ; text-decoration: none ; vertical-align: baseline ; white-space: pre-wrap&quot;&gt;&lt;font style=&quot;font-size: 13px&quot;&gt;&lt;span style=&quot;font-family: &amp;#34;arial&amp;#34; ; color: rgb(0 , 0 , 0) ; background-color: transparent ; font-weight: 400 ; font-style: normal ; font-variant: normal ; text-decoration: none ; vertical-align: baseline ; white-space: pre-wrap&quot;&gt; en las plantas?&lt;/span&gt;&lt;/font&gt; &lt;/span&gt;&lt;/font&gt;&lt;font style=&quot;font-size: 13px&quot;&gt;&lt;span style=&quot;font-family: &amp;#34;arial&amp;#34; ; color: rgb(0 , 0 , 0) ; background-color: transparent ; font-weight: 400 ; font-style: normal ; font-variant: normal ; text-decoration: none ; vertical-align: baseline ; white-space: pre-wrap&quot;&gt;&lt;font style=&quot;font-size: 13px&quot;&gt;&lt;span style=&quot;font-family: &amp;#34;arial&amp;#34; ; color: rgb(0 , 0 , 0) ; background-color: transparent ; font-weight: 400 ; font-style: normal ; font-variant: normal ; text-decoration: none ; vertical-align: baseline ; white-space: pre-wrap&quot;&gt;En qué época? Cuando ocurrió eso?  &lt;/span&gt;&lt;/font&gt;Cuales fueron las actividades realizadas para su control? Nombre del producto, concentración o dosis por metro cuadrado o por otra unidad? producto orgánico o no? cuantas veces aplicó? Cuando? Funcionó?&lt;/span&gt;&lt;/font&gt;&lt;/p&gt;&lt;/li&gt;&lt;li dir=&quot;ltr&quot; style=&quot;list-style-type: lower-alpha ; font-family: &amp;#34;arial&amp;#34; ; color: rgb(0 , 0 , 0) ; background-color: transparent ; font-weight: 400 ; font-style: normal ; font-variant: normal ; text-decoration: none ; vertical-align: baseline ; white-space: pre&quot;&gt;&lt;p dir=&quot;ltr&quot; style=&quot;line-height: 1.38 ; margin-top: 0pt ; margin-bottom: 0pt&quot;&gt;&lt;font style=&quot;font-size: 13px&quot;&gt;&lt;span style=&quot;font-family: &amp;#34;arial&amp;#34; ; color: rgb(0 , 0 , 0) ; background-color: transparent ; font-weight: 400 ; font-style: normal ; font-variant: normal ; text-decoration: none ; vertical-align: baseline ; white-space: pre-wrap&quot;&gt;Malezas. Cuando observo malezas? Que hizo en cual fecha para el deshierbe (deshierbe manual, mecánico o con productos) ?&lt;/span&gt;&lt;/font&gt;&lt;/p&gt;&lt;/li&gt;&lt;li dir=&quot;ltr&quot; style=&quot;list-style-type: lower-alpha ; font-family: &amp;#34;arial&amp;#34; ; color: rgb(0 , 0 , 0) ; background-color: transparent ; font-weight: 400 ; font-style: normal ; font-variant: normal ; text-decoration: none ; vertical-align: baseline ; white-space: pre&quot;&gt;&lt;p dir=&quot;ltr&quot; style=&quot;line-height: 1.38 ; margin-top: 0pt ; margin-bottom: 0pt&quot;&gt;&lt;font style=&quot;font-size: 13px&quot;&gt;&lt;span style=&quot;font-family: &amp;#34;arial&amp;#34; ; color: rgb(0 , 0 , 0) ; background-color: transparent ; font-weight: 400 ; font-style: normal ; font-variant: normal ; text-decoration: none ; vertical-align: baseline ; white-space: pre-wrap&quot;&gt;Aporque : a cual fecha se hizo el aproque para este cultivo&lt;/span&gt;&lt;/font&gt;&lt;/p&gt;&lt;/li&gt;&lt;li dir=&quot;ltr&quot; style=&quot;list-style-type: lower-alpha ; font-family: &amp;#34;arial&amp;#34; ; color: rgb(0 , 0 , 0) ; background-color: transparent ; font-weight: 400 ; font-style: normal ; font-variant: normal ; text-decoration: none ; vertical-align: baseline ; white-space: pre&quot;&gt;&lt;p dir=&quot;ltr&quot; style=&quot;line-height: 1.38 ; margin-top: 0pt ; margin-bottom: 0pt&quot;&gt;&lt;font style=&quot;font-size: 13px&quot;&gt;&lt;span style=&quot;font-family: &amp;#34;arial&amp;#34; ; color: rgb(0 , 0 , 0) ; background-color: transparent ; font-weight: 400 ; font-style: normal ; font-variant: normal ; text-decoration: none ; vertical-align: baseline ; white-space: pre-wrap&quot;&gt;Otras actividades: cuales y a cual fecha&lt;/span&gt;&lt;/font&gt;&lt;/p&gt;&lt;/li&gt;&lt;/ol&gt;&lt;/ol&gt;&lt;/div&gt;" style="rounded=0;whiteSpace=wrap;html=1;fillColor=#fff2cc;strokeColor=#d6b656;align=left;" vertex="1" parent="1">
          <mxGeometry x="28.55" y="4200" width="1100" height="270" as="geometry" />
        </mxCell>
        <mxCell id="rRB9kiorKSMEdPoHpbNI-32" value="Pregunta cada quinze días" style="rounded=0;whiteSpace=wrap;html=1;fillColor=#fff2cc;strokeColor=#d6b656;align=left;" vertex="1" parent="1">
          <mxGeometry x="28.93" y="4160" width="151.07" height="20" as="geometry" />
        </mxCell>
      </root>
    </mxGraphModel>
  </diagram>
</mxfile>
